<svg width="400" height="400" viewBox="0 0 400 400" fill="none" xmlns="http://www.w3.org/2000/svg">
<rect width="400" height="400" fill="white"/>
<rect x="-0.5" y="0.5" width="31" height="31" transform="matrix(-1 0 0 1 311 27)" fill="#F2F2F2" stroke="#333333"/>
<rect x="-0.5" y="0.5" width="31" height="31" transform="matrix(-1 0 0 1 280 27)" fill="#F2F2F2" stroke="#333333"/>
<mask id="path-3-inside-1" fill="white">
<path fill-rule="evenodd" clip-rule="evenodd" d="M235 27H251V59H235V27Z"/>
</mask>
<path fill-rule="evenodd" clip-rule="evenodd" d="M235 27H251V59H235V27Z" fill="#F2F2F2"/>
<path d="M251 27V26H252V27H251ZM235 27H234V26H235V27ZM251 59H252V60H251V59ZM235 59V60H234V59H235ZM251 28H235V26H251V28ZM250 59V27H252V59H250ZM235 58H251V60H235V58ZM234 59V27H236V59H234Z" fill="#333333" mask="url(#path-3-inside-1)"/>
<rect width="15" height="30" transform="matrix(-1 0 0 1 250 28)" fill="#F2F2F2"/>
<circle cx="225" cy="43" r="1" fill="#333333"/>
<circle cx="228" cy="43" r="1" fill="#333333"/>
<circle cx="231" cy="43" r="1" fill="#333333"/>
<path d="M182.271 47H181.182V39.7754L178.996 40.5781V39.5938L182.102 38.4277H182.271V47ZM191.037 47H185.447V46.2207L188.4 42.9395C188.838 42.4434 189.139 42.041 189.303 41.7324C189.471 41.4199 189.555 41.0977 189.555 40.7656C189.555 40.3203 189.42 39.9551 189.15 39.6699C188.881 39.3848 188.521 39.2422 188.072 39.2422C187.533 39.2422 187.113 39.3965 186.812 39.7051C186.516 40.0098 186.367 40.4355 186.367 40.9824H185.283C185.283 40.1973 185.535 39.5625 186.039 39.0781C186.547 38.5938 187.225 38.3516 188.072 38.3516C188.865 38.3516 189.492 38.5605 189.953 38.9785C190.414 39.3926 190.645 39.9453 190.645 40.6367C190.645 41.4766 190.109 42.4766 189.039 43.6367L186.754 46.1152H191.037V47ZM197.359 40.6953C197.359 41.1211 197.246 41.5 197.02 41.832C196.797 42.1641 196.494 42.4238 196.111 42.6113C196.557 42.8027 196.908 43.082 197.166 43.4492C197.428 43.8164 197.559 44.2324 197.559 44.6973C197.559 45.4355 197.309 46.0234 196.809 46.4609C196.312 46.8984 195.658 47.1172 194.846 47.1172C194.025 47.1172 193.367 46.8984 192.871 46.4609C192.379 46.0195 192.133 45.4316 192.133 44.6973C192.133 44.2363 192.258 43.8203 192.508 43.4492C192.762 43.0781 193.111 42.7969 193.557 42.6055C193.178 42.418 192.879 42.1582 192.66 41.8262C192.441 41.4941 192.332 41.1172 192.332 40.6953C192.332 39.9766 192.562 39.4062 193.023 38.9844C193.484 38.5625 194.092 38.3516 194.846 38.3516C195.596 38.3516 196.201 38.5625 196.662 38.9844C197.127 39.4062 197.359 39.9766 197.359 40.6953ZM196.475 44.6738C196.475 44.1973 196.322 43.8086 196.018 43.5078C195.717 43.207 195.322 43.0566 194.834 43.0566C194.346 43.0566 193.953 43.2051 193.656 43.502C193.363 43.7988 193.217 44.1895 193.217 44.6738C193.217 45.1582 193.359 45.5391 193.645 45.8164C193.934 46.0938 194.334 46.2324 194.846 46.2324C195.354 46.2324 195.752 46.0938 196.041 45.8164C196.33 45.5352 196.475 45.1543 196.475 44.6738ZM194.846 39.2422C194.42 39.2422 194.074 39.375 193.809 39.6406C193.547 39.9023 193.416 40.2598 193.416 40.7129C193.416 41.1465 193.545 41.498 193.803 41.7676C194.064 42.0332 194.412 42.166 194.846 42.166C195.279 42.166 195.625 42.0332 195.883 41.7676C196.145 41.498 196.275 41.1465 196.275 40.7129C196.275 40.2793 196.141 39.9258 195.871 39.6523C195.602 39.3789 195.26 39.2422 194.846 39.2422ZM207.379 43.9004C207.379 44.8691 207.156 45.6484 206.711 46.2383C206.266 46.8242 205.668 47.1172 204.918 47.1172C204.117 47.1172 203.498 46.834 203.061 46.2676L203.008 47H202.012V38H203.096V41.3574C203.533 40.8145 204.137 40.543 204.906 40.543C205.676 40.543 206.279 40.834 206.717 41.416C207.158 41.998 207.379 42.7949 207.379 43.8066V43.9004ZM206.295 43.7773C206.295 43.0391 206.152 42.4688 205.867 42.0664C205.582 41.6641 205.172 41.4629 204.637 41.4629C203.922 41.4629 203.408 41.7949 203.096 42.459V45.2012C203.428 45.8652 203.945 46.1973 204.648 46.1973C205.168 46.1973 205.572 45.9961 205.861 45.5938C206.15 45.1914 206.295 44.5859 206.295 43.7773ZM209.928 47H208.844V40.6602H209.928V47ZM208.756 38.9785C208.756 38.8027 208.809 38.6543 208.914 38.5332C209.023 38.4121 209.184 38.3516 209.395 38.3516C209.605 38.3516 209.766 38.4121 209.875 38.5332C209.984 38.6543 210.039 38.8027 210.039 38.9785C210.039 39.1543 209.984 39.3008 209.875 39.418C209.766 39.5352 209.605 39.5938 209.395 39.5938C209.184 39.5938 209.023 39.5352 208.914 39.418C208.809 39.3008 208.756 39.1543 208.756 38.9785ZM213.139 39.125V40.6602H214.322V41.498H213.139V45.4297C213.139 45.6836 213.191 45.875 213.297 46.0039C213.402 46.1289 213.582 46.1914 213.836 46.1914C213.961 46.1914 214.133 46.168 214.352 46.1211V47C214.066 47.0781 213.789 47.1172 213.52 47.1172C213.035 47.1172 212.67 46.9707 212.424 46.6777C212.178 46.3848 212.055 45.9688 212.055 45.4297V41.498H210.9V40.6602H212.055V39.125H213.139ZM219.285 45.3184C219.285 45.0254 219.174 44.7988 218.951 44.6387C218.732 44.4746 218.348 44.334 217.797 44.2168C217.25 44.0996 216.814 43.959 216.49 43.7949C216.17 43.6309 215.932 43.4355 215.775 43.209C215.623 42.9824 215.547 42.7129 215.547 42.4004C215.547 41.8809 215.766 41.4414 216.203 41.082C216.645 40.7227 217.207 40.543 217.891 40.543C218.609 40.543 219.191 40.7285 219.637 41.0996C220.086 41.4707 220.311 41.9453 220.311 42.5234H219.221C219.221 42.2266 219.094 41.9707 218.84 41.7559C218.59 41.541 218.273 41.4336 217.891 41.4336C217.496 41.4336 217.188 41.5195 216.965 41.6914C216.742 41.8633 216.631 42.0879 216.631 42.3652C216.631 42.627 216.734 42.8242 216.941 42.957C217.148 43.0898 217.521 43.2168 218.061 43.3379C218.604 43.459 219.043 43.6035 219.379 43.7715C219.715 43.9395 219.963 44.1426 220.123 44.3809C220.287 44.6152 220.369 44.9023 220.369 45.2422C220.369 45.8086 220.143 46.2637 219.689 46.6074C219.236 46.9473 218.648 47.1172 217.926 47.1172C217.418 47.1172 216.969 47.0273 216.578 46.8477C216.188 46.668 215.881 46.418 215.658 46.0977C215.439 45.7734 215.33 45.4238 215.33 45.0488H216.414C216.434 45.4121 216.578 45.7012 216.848 45.916C217.121 46.127 217.48 46.2324 217.926 46.2324C218.336 46.2324 218.664 46.1504 218.91 45.9863C219.16 45.8184 219.285 45.5957 219.285 45.3184Z" fill="#333333"/>
<rect x="88.5" y="27.5" width="31" height="31" fill="#F2F2F2" stroke="#333333"/>
<rect x="119.5" y="27.5" width="31" height="31" fill="#F2F2F2" stroke="#333333"/>
<mask id="path-12-inside-2" fill="white">
<path fill-rule="evenodd" clip-rule="evenodd" d="M165 27H149V59H165V27Z"/>
</mask>
<path fill-rule="evenodd" clip-rule="evenodd" d="M165 27H149V59H165V27Z" fill="#F2F2F2"/>
<path d="M149 27V26H148V27H149ZM165 27H166V26H165V27ZM149 59H148V60H149V59ZM165 59V60H166V59H165ZM149 28H165V26H149V28ZM150 59V27H148V59H150ZM165 58H149V60H165V58ZM166 59V27H164V59H166Z" fill="#333333" mask="url(#path-12-inside-2)"/>
<rect x="150" y="28" width="15" height="30" fill="#F2F2F2"/>
<circle cx="168" cy="43" r="1" fill="#333333"/>
<circle cx="171" cy="43" r="1" fill="#333333"/>
<circle cx="174" cy="43" r="1" fill="#333333"/>
<path d="M175.918 15.0098C175.918 15.8457 175.777 16.5762 175.496 17.2012C175.215 17.8223 174.816 18.2969 174.301 18.625C173.785 18.9531 173.184 19.1172 172.496 19.1172C171.824 19.1172 171.229 18.9531 170.709 18.625C170.189 18.293 169.785 17.8223 169.496 17.2129C169.211 16.5996 169.064 15.8906 169.057 15.0859V14.4707C169.057 13.6504 169.199 12.9258 169.484 12.2969C169.77 11.668 170.172 11.1875 170.691 10.8555C171.215 10.5195 171.812 10.3516 172.484 10.3516C173.168 10.3516 173.77 10.5176 174.289 10.8496C174.812 11.1777 175.215 11.6562 175.496 12.2852C175.777 12.9102 175.918 13.6387 175.918 14.4707V15.0098ZM174.799 14.459C174.799 13.4473 174.596 12.6719 174.189 12.1328C173.783 11.5898 173.215 11.3184 172.484 11.3184C171.773 11.3184 171.213 11.5898 170.803 12.1328C170.396 12.6719 170.188 13.4219 170.176 14.3828V15.0098C170.176 15.9902 170.381 16.7617 170.791 17.3242C171.205 17.8828 171.773 18.1621 172.496 18.1621C173.223 18.1621 173.785 17.8984 174.184 17.3711C174.582 16.8398 174.787 16.0801 174.799 15.0918V14.459ZM180.5 13.6328C180.336 13.6055 180.158 13.5918 179.967 13.5918C179.256 13.5918 178.773 13.8945 178.52 14.5V19H177.436V12.6602H178.49L178.508 13.3926C178.863 12.8262 179.367 12.543 180.02 12.543C180.23 12.543 180.391 12.5703 180.5 12.625V13.6328ZM182.68 19H181.596V12.6602H182.68V19ZM181.508 10.9785C181.508 10.8027 181.561 10.6543 181.666 10.5332C181.775 10.4121 181.936 10.3516 182.146 10.3516C182.357 10.3516 182.518 10.4121 182.627 10.5332C182.736 10.6543 182.791 10.8027 182.791 10.9785C182.791 11.1543 182.736 11.3008 182.627 11.418C182.518 11.5352 182.357 11.5938 182.146 11.5938C181.936 11.5938 181.775 11.5352 181.666 11.418C181.561 11.3008 181.508 11.1543 181.508 10.9785ZM184.162 15.7773C184.162 14.7891 184.391 14.0039 184.848 13.4219C185.305 12.8359 185.91 12.543 186.664 12.543C187.438 12.543 188.041 12.8164 188.475 13.3633L188.527 12.6602H189.518V18.8477C189.518 19.668 189.273 20.3145 188.785 20.7871C188.301 21.2598 187.648 21.4961 186.828 21.4961C186.371 21.4961 185.924 21.3984 185.486 21.2031C185.049 21.0078 184.715 20.7402 184.484 20.4004L185.047 19.75C185.512 20.3242 186.08 20.6113 186.752 20.6113C187.279 20.6113 187.689 20.4629 187.982 20.166C188.279 19.8691 188.428 19.4512 188.428 18.9121V18.3672C187.994 18.8672 187.402 19.1172 186.652 19.1172C185.91 19.1172 185.309 18.8184 184.848 18.2207C184.391 17.623 184.162 16.8086 184.162 15.7773ZM185.252 15.9004C185.252 16.6152 185.398 17.1777 185.691 17.5879C185.984 17.9941 186.395 18.1973 186.922 18.1973C187.605 18.1973 188.107 17.8867 188.428 17.2656V14.3711C188.096 13.7656 187.598 13.4629 186.934 13.4629C186.406 13.4629 185.994 13.668 185.697 14.0781C185.4 14.4883 185.252 15.0957 185.252 15.9004ZM192.336 19H191.252V12.6602H192.336V19ZM191.164 10.9785C191.164 10.8027 191.217 10.6543 191.322 10.5332C191.432 10.4121 191.592 10.3516 191.803 10.3516C192.014 10.3516 192.174 10.4121 192.283 10.5332C192.393 10.6543 192.447 10.8027 192.447 10.9785C192.447 11.1543 192.393 11.3008 192.283 11.418C192.174 11.5352 192.014 11.5938 191.803 11.5938C191.592 11.5938 191.432 11.5352 191.322 11.418C191.217 11.3008 191.164 11.1543 191.164 10.9785ZM195.102 12.6602L195.137 13.457C195.621 12.8477 196.254 12.543 197.035 12.543C198.375 12.543 199.051 13.2988 199.062 14.8105V19H197.979V14.8047C197.975 14.3477 197.869 14.0098 197.662 13.791C197.459 13.5723 197.141 13.4629 196.707 13.4629C196.355 13.4629 196.047 13.5566 195.781 13.7441C195.516 13.9316 195.309 14.1777 195.16 14.4824V19H194.076V12.6602H195.102ZM204.611 19C204.549 18.875 204.498 18.6523 204.459 18.332C203.955 18.8555 203.354 19.1172 202.654 19.1172C202.029 19.1172 201.516 18.9414 201.113 18.5898C200.715 18.2344 200.516 17.7852 200.516 17.2422C200.516 16.582 200.766 16.0703 201.266 15.707C201.77 15.3398 202.477 15.1562 203.387 15.1562H204.441V14.6582C204.441 14.2793 204.328 13.9785 204.102 13.7559C203.875 13.5293 203.541 13.416 203.1 13.416C202.713 13.416 202.389 13.5137 202.127 13.709C201.865 13.9043 201.734 14.1406 201.734 14.418H200.645C200.645 14.1016 200.756 13.7969 200.979 13.5039C201.205 13.207 201.51 12.9727 201.893 12.8008C202.279 12.6289 202.703 12.543 203.164 12.543C203.895 12.543 204.467 12.7266 204.881 13.0938C205.295 13.457 205.51 13.959 205.525 14.5996V17.5176C205.525 18.0996 205.6 18.5625 205.748 18.9062V19H204.611ZM202.812 18.1738C203.152 18.1738 203.475 18.0859 203.779 17.9102C204.084 17.7344 204.305 17.5059 204.441 17.2246V15.9238H203.592C202.264 15.9238 201.6 16.3125 201.6 17.0898C201.6 17.4297 201.713 17.6953 201.939 17.8867C202.166 18.0781 202.457 18.1738 202.812 18.1738ZM208.402 19H207.318V10H208.402V19ZM215.457 15.0332L214.414 16.1172V19H213.289V10.4688H214.414V14.6875L218.205 10.4688H219.564L216.207 14.2363L219.828 19H218.48L215.457 15.0332ZM223.121 19.1172C222.262 19.1172 221.562 18.8359 221.023 18.2734C220.484 17.707 220.215 16.9512 220.215 16.0059V15.8066C220.215 15.1777 220.334 14.6172 220.572 14.125C220.814 13.6289 221.15 13.2422 221.58 12.9648C222.014 12.6836 222.482 12.543 222.986 12.543C223.811 12.543 224.451 12.8145 224.908 13.3574C225.365 13.9004 225.594 14.6777 225.594 15.6895V16.1406H221.299C221.314 16.7656 221.496 17.2715 221.844 17.6582C222.195 18.041 222.641 18.2324 223.18 18.2324C223.562 18.2324 223.887 18.1543 224.152 17.998C224.418 17.8418 224.65 17.6348 224.85 17.377L225.512 17.8926C224.98 18.709 224.184 19.1172 223.121 19.1172ZM222.986 13.4336C222.549 13.4336 222.182 13.5938 221.885 13.9141C221.588 14.2305 221.404 14.6758 221.334 15.25H224.51V15.168C224.479 14.6172 224.33 14.1914 224.064 13.8906C223.799 13.5859 223.439 13.4336 222.986 13.4336ZM228.846 17.4121L230.322 12.6602H231.482L228.934 19.9785C228.539 21.0332 227.912 21.5605 227.053 21.5605L226.848 21.543L226.443 21.4668V20.5879L226.736 20.6113C227.104 20.6113 227.389 20.5371 227.592 20.3887C227.799 20.2402 227.969 19.9688 228.102 19.5742L228.342 18.9297L226.08 12.6602H227.264L228.846 17.4121Z" fill="black"/>
<path d="M199.646 95.3536C199.842 95.5488 200.158 95.5488 200.354 95.3536L203.536 92.1716C203.731 91.9763 203.731 91.6597 203.536 91.4645C203.34 91.2692 203.024 91.2692 202.828 91.4645L200 94.2929L197.172 91.4645C196.976 91.2692 196.66 91.2692 196.464 91.4645C196.269 91.6597 196.269 91.9763 196.464 92.1716L199.646 95.3536ZM199.5 69V95H200.5V69H199.5Z" fill="black"/>
<path d="M199.646 196.354C199.842 196.549 200.158 196.549 200.354 196.354L203.536 193.172C203.731 192.976 203.731 192.66 203.536 192.464C203.34 192.269 203.024 192.269 202.828 192.464L200 195.293L197.172 192.464C196.976 192.269 196.66 192.269 196.464 192.464C196.269 192.66 196.269 192.976 196.464 193.172L199.646 196.354ZM199.5 168V196H200.5V168H199.5Z" fill="black"/>
<rect x="117" y="105" width="166" height="51" fill="#333333"/>
<path d="M157.143 132.469H153.568L152.766 134.696H151.605L154.863 126.164H155.848L159.111 134.696H157.957L157.143 132.469ZM153.908 131.543H156.809L155.355 127.553L153.908 131.543ZM165.082 130.752H161.385V133.776H165.68V134.696H160.26V126.164H165.621V127.09H161.385V129.832H165.082V130.752ZM169.594 130.893C168.629 130.616 167.926 130.276 167.484 129.873C167.047 129.467 166.828 128.967 166.828 128.373C166.828 127.702 167.096 127.147 167.631 126.709C168.17 126.268 168.869 126.047 169.729 126.047C170.314 126.047 170.836 126.16 171.293 126.387C171.754 126.614 172.109 126.926 172.359 127.325C172.613 127.723 172.74 128.159 172.74 128.631H171.609C171.609 128.116 171.445 127.711 171.117 127.418C170.789 127.121 170.326 126.973 169.729 126.973C169.174 126.973 168.74 127.096 168.428 127.342C168.119 127.584 167.965 127.922 167.965 128.356C167.965 128.703 168.111 128.998 168.404 129.241C168.701 129.479 169.203 129.698 169.91 129.897C170.621 130.096 171.176 130.317 171.574 130.559C171.977 130.797 172.273 131.077 172.465 131.397C172.66 131.717 172.758 132.094 172.758 132.528C172.758 133.219 172.488 133.774 171.949 134.192C171.41 134.606 170.689 134.813 169.787 134.813C169.201 134.813 168.654 134.702 168.146 134.479C167.639 134.252 167.246 133.944 166.969 133.553C166.695 133.162 166.559 132.719 166.559 132.223H167.689C167.689 132.739 167.879 133.147 168.258 133.448C168.641 133.744 169.15 133.893 169.787 133.893C170.381 133.893 170.836 133.772 171.152 133.53C171.469 133.287 171.627 132.957 171.627 132.539C171.627 132.121 171.48 131.799 171.188 131.573C170.895 131.342 170.363 131.116 169.594 130.893ZM179.35 130.729L178.307 131.813V134.696H177.182V126.164H178.307V130.383L182.098 126.164H183.457L180.1 129.932L183.721 134.696H182.373L179.35 130.729ZM187.014 134.813C186.154 134.813 185.455 134.532 184.916 133.969C184.377 133.403 184.107 132.647 184.107 131.702V131.502C184.107 130.873 184.227 130.313 184.465 129.821C184.707 129.325 185.043 128.938 185.473 128.66C185.906 128.379 186.375 128.239 186.879 128.239C187.703 128.239 188.344 128.51 188.801 129.053C189.258 129.596 189.486 130.373 189.486 131.385V131.836H185.191C185.207 132.461 185.389 132.967 185.736 133.354C186.088 133.737 186.533 133.928 187.072 133.928C187.455 133.928 187.779 133.85 188.045 133.694C188.311 133.537 188.543 133.33 188.742 133.073L189.404 133.588C188.873 134.405 188.076 134.813 187.014 134.813ZM186.879 129.129C186.441 129.129 186.074 129.289 185.777 129.61C185.48 129.926 185.297 130.371 185.227 130.946H188.402V130.864C188.371 130.313 188.223 129.887 187.957 129.586C187.691 129.282 187.332 129.129 186.879 129.129ZM192.738 133.108L194.215 128.356H195.375L192.826 135.674C192.432 136.729 191.805 137.256 190.945 137.256L190.74 137.239L190.336 137.162V136.284L190.629 136.307C190.996 136.307 191.281 136.233 191.484 136.084C191.691 135.936 191.861 135.664 191.994 135.27L192.234 134.625L189.973 128.356H191.156L192.738 133.108ZM202.008 130.893C201.043 130.616 200.34 130.276 199.898 129.873C199.461 129.467 199.242 128.967 199.242 128.373C199.242 127.702 199.51 127.147 200.045 126.709C200.584 126.268 201.283 126.047 202.143 126.047C202.729 126.047 203.25 126.16 203.707 126.387C204.168 126.614 204.523 126.926 204.773 127.325C205.027 127.723 205.154 128.159 205.154 128.631H204.023C204.023 128.116 203.859 127.711 203.531 127.418C203.203 127.121 202.74 126.973 202.143 126.973C201.588 126.973 201.154 127.096 200.842 127.342C200.533 127.584 200.379 127.922 200.379 128.356C200.379 128.703 200.525 128.998 200.818 129.241C201.115 129.479 201.617 129.698 202.324 129.897C203.035 130.096 203.59 130.317 203.988 130.559C204.391 130.797 204.688 131.077 204.879 131.397C205.074 131.717 205.172 132.094 205.172 132.528C205.172 133.219 204.902 133.774 204.363 134.192C203.824 134.606 203.104 134.813 202.201 134.813C201.615 134.813 201.068 134.702 200.561 134.479C200.053 134.252 199.66 133.944 199.383 133.553C199.109 133.162 198.973 132.719 198.973 132.223H200.104C200.104 132.739 200.293 133.147 200.672 133.448C201.055 133.744 201.564 133.893 202.201 133.893C202.795 133.893 203.25 133.772 203.566 133.53C203.883 133.287 204.041 132.957 204.041 132.539C204.041 132.121 203.895 131.799 203.602 131.573C203.309 131.342 202.777 131.116 202.008 130.893ZM208.992 133.928C209.379 133.928 209.717 133.811 210.006 133.577C210.295 133.342 210.455 133.049 210.486 132.698H211.512C211.492 133.061 211.367 133.407 211.137 133.735C210.906 134.063 210.598 134.325 210.211 134.52C209.828 134.715 209.422 134.813 208.992 134.813C208.129 134.813 207.441 134.526 206.93 133.952C206.422 133.373 206.168 132.584 206.168 131.584V131.403C206.168 130.785 206.281 130.237 206.508 129.756C206.734 129.276 207.059 128.903 207.48 128.637C207.906 128.371 208.408 128.239 208.986 128.239C209.697 128.239 210.287 128.452 210.756 128.877C211.229 129.303 211.48 129.856 211.512 130.535H210.486C210.455 130.125 210.299 129.789 210.018 129.528C209.74 129.262 209.396 129.129 208.986 129.129C208.436 129.129 208.008 129.328 207.703 129.727C207.402 130.121 207.252 130.694 207.252 131.444V131.649C207.252 132.379 207.402 132.942 207.703 133.336C208.004 133.731 208.434 133.928 208.992 133.928ZM213.814 129.123C214.295 128.534 214.92 128.239 215.689 128.239C217.029 128.239 217.705 128.994 217.717 130.506V134.696H216.633V130.5C216.629 130.043 216.523 129.705 216.316 129.487C216.113 129.268 215.795 129.159 215.361 129.159C215.01 129.159 214.701 129.252 214.436 129.44C214.17 129.627 213.963 129.873 213.814 130.178V134.696H212.73V125.696H213.814V129.123ZM221.971 134.813C221.111 134.813 220.412 134.532 219.873 133.969C219.334 133.403 219.064 132.647 219.064 131.702V131.502C219.064 130.873 219.184 130.313 219.422 129.821C219.664 129.325 220 128.938 220.43 128.66C220.863 128.379 221.332 128.239 221.836 128.239C222.66 128.239 223.301 128.51 223.758 129.053C224.215 129.596 224.443 130.373 224.443 131.385V131.836H220.148C220.164 132.461 220.346 132.967 220.693 133.354C221.045 133.737 221.49 133.928 222.029 133.928C222.412 133.928 222.736 133.85 223.002 133.694C223.268 133.537 223.5 133.33 223.699 133.073L224.361 133.588C223.83 134.405 223.033 134.813 221.971 134.813ZM221.836 129.129C221.398 129.129 221.031 129.289 220.734 129.61C220.438 129.926 220.254 130.371 220.184 130.946H223.359V130.864C223.328 130.313 223.18 129.887 222.914 129.586C222.648 129.282 222.289 129.129 221.836 129.129ZM225.439 131.473C225.439 130.5 225.67 129.719 226.131 129.129C226.592 128.535 227.195 128.239 227.941 128.239C228.684 128.239 229.271 128.493 229.705 129V125.696H230.789V134.696H229.793L229.74 134.016C229.307 134.547 228.703 134.813 227.93 134.813C227.195 134.813 226.596 134.512 226.131 133.91C225.67 133.309 225.439 132.524 225.439 131.555V131.473ZM226.523 131.596C226.523 132.315 226.672 132.877 226.969 133.284C227.266 133.69 227.676 133.893 228.199 133.893C228.887 133.893 229.389 133.584 229.705 132.967V130.055C229.381 129.457 228.883 129.159 228.211 129.159C227.68 129.159 227.266 129.364 226.969 129.774C226.672 130.184 226.523 130.791 226.523 131.596ZM236.391 134.069C235.969 134.565 235.35 134.813 234.533 134.813C233.857 134.813 233.342 134.618 232.986 134.227C232.635 133.832 232.457 133.25 232.453 132.481V128.356H233.537V132.452C233.537 133.412 233.928 133.893 234.709 133.893C235.537 133.893 236.088 133.584 236.361 132.967V128.356H237.445V134.696H236.414L236.391 134.069ZM240.275 134.696H239.191V125.696H240.275V134.696ZM244.646 134.813C243.787 134.813 243.088 134.532 242.549 133.969C242.01 133.403 241.74 132.647 241.74 131.702V131.502C241.74 130.873 241.859 130.313 242.098 129.821C242.34 129.325 242.676 128.938 243.105 128.66C243.539 128.379 244.008 128.239 244.512 128.239C245.336 128.239 245.977 128.51 246.434 129.053C246.891 129.596 247.119 130.373 247.119 131.385V131.836H242.824C242.84 132.461 243.021 132.967 243.369 133.354C243.721 133.737 244.166 133.928 244.705 133.928C245.088 133.928 245.412 133.85 245.678 133.694C245.943 133.537 246.176 133.33 246.375 133.073L247.037 133.588C246.506 134.405 245.709 134.813 244.646 134.813ZM244.512 129.129C244.074 129.129 243.707 129.289 243.41 129.61C243.113 129.926 242.93 130.371 242.859 130.946H246.035V130.864C246.004 130.313 245.855 129.887 245.59 129.586C245.324 129.282 244.965 129.129 244.512 129.129Z" fill="white"/>
<rect x="15.5" y="206.5" width="368" height="178" stroke="#333333" stroke-dasharray="4 4"/>
<rect x="-0.5" y="0.5" width="31" height="31" transform="matrix(-1 0 0 1 362 336)" fill="#F2F2F2" stroke="#333333"/>
<rect x="-0.5" y="0.5" width="31" height="31" transform="matrix(-1 0 0 1 331 336)" fill="#F2F2F2" stroke="#333333"/>
<mask id="path-26-inside-3" fill="white">
<path fill-rule="evenodd" clip-rule="evenodd" d="M286 336H302V368H286V336Z"/>
</mask>
<path fill-rule="evenodd" clip-rule="evenodd" d="M286 336H302V368H286V336Z" fill="#F2F2F2"/>
<path d="M302 336V335H303V336H302ZM286 336H285V335H286V336ZM302 368H303V369H302V368ZM286 368V369H285V368H286ZM302 337H286V335H302V337ZM301 368V336H303V368H301ZM286 367H302V369H286V367ZM285 368V336H287V368H285Z" fill="#333333" mask="url(#path-26-inside-3)"/>
<rect width="15" height="30" transform="matrix(-1 0 0 1 301 337)" fill="#F2F2F2"/>
<circle cx="276" cy="352" r="1" fill="#333333"/>
<circle cx="279" cy="352" r="1" fill="#333333"/>
<circle cx="282" cy="352" r="1" fill="#333333"/>
<path d="M233.271 356H232.182V348.775L229.996 349.578V348.594L233.102 347.428H233.271V356ZM242.037 356H236.447V355.221L239.4 351.939C239.838 351.443 240.139 351.041 240.303 350.732C240.471 350.42 240.555 350.098 240.555 349.766C240.555 349.32 240.42 348.955 240.15 348.67C239.881 348.385 239.521 348.242 239.072 348.242C238.533 348.242 238.113 348.396 237.812 348.705C237.516 349.01 237.367 349.436 237.367 349.982H236.283C236.283 349.197 236.535 348.562 237.039 348.078C237.547 347.594 238.225 347.352 239.072 347.352C239.865 347.352 240.492 347.561 240.953 347.979C241.414 348.393 241.645 348.945 241.645 349.637C241.645 350.477 241.109 351.477 240.039 352.637L237.754 355.115H242.037V356ZM248.359 349.695C248.359 350.121 248.246 350.5 248.02 350.832C247.797 351.164 247.494 351.424 247.111 351.611C247.557 351.803 247.908 352.082 248.166 352.449C248.428 352.816 248.559 353.232 248.559 353.697C248.559 354.436 248.309 355.023 247.809 355.461C247.312 355.898 246.658 356.117 245.846 356.117C245.025 356.117 244.367 355.898 243.871 355.461C243.379 355.02 243.133 354.432 243.133 353.697C243.133 353.236 243.258 352.82 243.508 352.449C243.762 352.078 244.111 351.797 244.557 351.605C244.178 351.418 243.879 351.158 243.66 350.826C243.441 350.494 243.332 350.117 243.332 349.695C243.332 348.977 243.562 348.406 244.023 347.984C244.484 347.562 245.092 347.352 245.846 347.352C246.596 347.352 247.201 347.562 247.662 347.984C248.127 348.406 248.359 348.977 248.359 349.695ZM247.475 353.674C247.475 353.197 247.322 352.809 247.018 352.508C246.717 352.207 246.322 352.057 245.834 352.057C245.346 352.057 244.953 352.205 244.656 352.502C244.363 352.799 244.217 353.189 244.217 353.674C244.217 354.158 244.359 354.539 244.645 354.816C244.934 355.094 245.334 355.232 245.846 355.232C246.354 355.232 246.752 355.094 247.041 354.816C247.33 354.535 247.475 354.154 247.475 353.674ZM245.846 348.242C245.42 348.242 245.074 348.375 244.809 348.641C244.547 348.902 244.416 349.26 244.416 349.713C244.416 350.146 244.545 350.498 244.803 350.768C245.064 351.033 245.412 351.166 245.846 351.166C246.279 351.166 246.625 351.033 246.883 350.768C247.145 350.498 247.275 350.146 247.275 349.713C247.275 349.279 247.141 348.926 246.871 348.652C246.602 348.379 246.26 348.242 245.846 348.242ZM258.379 352.9C258.379 353.869 258.156 354.648 257.711 355.238C257.266 355.824 256.668 356.117 255.918 356.117C255.117 356.117 254.498 355.834 254.061 355.268L254.008 356H253.012V347H254.096V350.357C254.533 349.814 255.137 349.543 255.906 349.543C256.676 349.543 257.279 349.834 257.717 350.416C258.158 350.998 258.379 351.795 258.379 352.807V352.9ZM257.295 352.777C257.295 352.039 257.152 351.469 256.867 351.066C256.582 350.664 256.172 350.463 255.637 350.463C254.922 350.463 254.408 350.795 254.096 351.459V354.201C254.428 354.865 254.945 355.197 255.648 355.197C256.168 355.197 256.572 354.996 256.861 354.594C257.15 354.191 257.295 353.586 257.295 352.777ZM260.928 356H259.844V349.66H260.928V356ZM259.756 347.979C259.756 347.803 259.809 347.654 259.914 347.533C260.023 347.412 260.184 347.352 260.395 347.352C260.605 347.352 260.766 347.412 260.875 347.533C260.984 347.654 261.039 347.803 261.039 347.979C261.039 348.154 260.984 348.301 260.875 348.418C260.766 348.535 260.605 348.594 260.395 348.594C260.184 348.594 260.023 348.535 259.914 348.418C259.809 348.301 259.756 348.154 259.756 347.979ZM264.139 348.125V349.66H265.322V350.498H264.139V354.43C264.139 354.684 264.191 354.875 264.297 355.004C264.402 355.129 264.582 355.191 264.836 355.191C264.961 355.191 265.133 355.168 265.352 355.121V356C265.066 356.078 264.789 356.117 264.52 356.117C264.035 356.117 263.67 355.971 263.424 355.678C263.178 355.385 263.055 354.969 263.055 354.43V350.498H261.9V349.66H263.055V348.125H264.139ZM270.285 354.318C270.285 354.025 270.174 353.799 269.951 353.639C269.732 353.475 269.348 353.334 268.797 353.217C268.25 353.1 267.814 352.959 267.49 352.795C267.17 352.631 266.932 352.436 266.775 352.209C266.623 351.982 266.547 351.713 266.547 351.4C266.547 350.881 266.766 350.441 267.203 350.082C267.645 349.723 268.207 349.543 268.891 349.543C269.609 349.543 270.191 349.729 270.637 350.1C271.086 350.471 271.311 350.945 271.311 351.523H270.221C270.221 351.227 270.094 350.971 269.84 350.756C269.59 350.541 269.273 350.434 268.891 350.434C268.496 350.434 268.188 350.52 267.965 350.691C267.742 350.863 267.631 351.088 267.631 351.365C267.631 351.627 267.734 351.824 267.941 351.957C268.148 352.09 268.521 352.217 269.061 352.338C269.604 352.459 270.043 352.604 270.379 352.771C270.715 352.939 270.963 353.143 271.123 353.381C271.287 353.615 271.369 353.902 271.369 354.242C271.369 354.809 271.143 355.264 270.689 355.607C270.236 355.947 269.648 356.117 268.926 356.117C268.418 356.117 267.969 356.027 267.578 355.848C267.188 355.668 266.881 355.418 266.658 355.098C266.439 354.773 266.33 354.424 266.33 354.049H267.414C267.434 354.412 267.578 354.701 267.848 354.916C268.121 355.127 268.48 355.232 268.926 355.232C269.336 355.232 269.664 355.15 269.91 354.986C270.16 354.818 270.285 354.596 270.285 354.318Z" fill="#333333"/>
<rect x="139.5" y="336.5" width="31" height="31" fill="#F2F2F2" stroke="#333333"/>
<rect x="170.5" y="336.5" width="31" height="31" fill="#F2F2F2" stroke="#333333"/>
<mask id="path-35-inside-4" fill="white">
<path fill-rule="evenodd" clip-rule="evenodd" d="M216 336H200V368H216V336Z"/>
</mask>
<path fill-rule="evenodd" clip-rule="evenodd" d="M216 336H200V368H216V336Z" fill="#F2F2F2"/>
<path d="M200 336V335H199V336H200ZM216 336H217V335H216V336ZM200 368H199V369H200V368ZM216 368V369H217V368H216ZM200 337H216V335H200V337ZM201 368V336H199V368H201ZM216 367H200V369H216V367ZM217 368V336H215V368H217Z" fill="#333333" mask="url(#path-35-inside-4)"/>
<rect x="201" y="337" width="15" height="30" fill="#F2F2F2"/>
<circle cx="219" cy="352" r="1" fill="#333333"/>
<circle cx="222" cy="352" r="1" fill="#333333"/>
<circle cx="225" cy="352" r="1" fill="#333333"/>
<path d="M64.968 343.856V349.496L67.2 347.036H68.268L65.976 349.544L68.592 353H67.404L64.968 349.76V353H63.972V344.564L63.816 343.856H64.968ZM69.6584 354.284H71.1464V350.144L69.6944 350.564L69.4784 349.976L71.5064 349.184H72.1064V354.284H73.3064V354.992H69.6584V354.284ZM76.8233 349.064C77.3833 349.064 77.8313 349.2 78.1673 349.472C78.5113 349.744 78.7593 350.112 78.9113 350.576C79.0633 351.032 79.1393 351.536 79.1393 352.088C79.1393 352.64 79.0513 353.144 78.8753 353.6C78.6993 354.064 78.4273 354.432 78.0593 354.704C77.6993 354.984 77.2393 355.124 76.6793 355.124C76.1273 355.124 75.6793 354.984 75.3353 354.704C74.9993 354.432 74.7513 354.064 74.5913 353.6C74.4393 353.144 74.3633 352.64 74.3633 352.088C74.3633 351.528 74.4513 351.02 74.6273 350.564C74.8033 350.108 75.0713 349.744 75.4313 349.472C75.7993 349.2 76.2633 349.064 76.8233 349.064ZM76.7513 349.82C76.3513 349.82 76.0473 349.936 75.8393 350.168C75.6313 350.392 75.4913 350.68 75.4193 351.032C75.3473 351.376 75.3113 351.728 75.3113 352.088C75.3113 352.448 75.3473 352.804 75.4193 353.156C75.4913 353.508 75.6273 353.796 75.8273 354.02C76.0353 354.252 76.3433 354.368 76.7513 354.368C77.0633 354.368 77.3113 354.3 77.4953 354.164C77.6873 354.036 77.8313 353.86 77.9273 353.636C78.0233 353.412 78.0873 353.168 78.1193 352.904C78.1593 352.632 78.1793 352.36 78.1793 352.088C78.1793 351.816 78.1593 351.548 78.1193 351.284C78.0873 351.012 78.0233 350.768 77.9273 350.552C77.8313 350.328 77.6873 350.152 77.4953 350.024C77.3113 349.888 77.0633 349.82 76.7513 349.82Z" fill="black"/>
<rect x="-0.5" y="0.5" width="31" height="31" transform="matrix(-1 0 0 1 362 266)" fill="#F2F2F2" stroke="#333333"/>
<rect x="-0.5" y="0.5" width="31" height="31" transform="matrix(-1 0 0 1 331 266)" fill="#F2F2F2" stroke="#333333"/>
<mask id="path-44-inside-5" fill="white">
<path fill-rule="evenodd" clip-rule="evenodd" d="M286 266H302V298H286V266Z"/>
</mask>
<path fill-rule="evenodd" clip-rule="evenodd" d="M286 266H302V298H286V266Z" fill="#F2F2F2"/>
<path d="M302 266V265H303V266H302ZM286 266H285V265H286V266ZM302 298H303V299H302V298ZM286 298V299H285V298H286ZM302 267H286V265H302V267ZM301 298V266H303V298H301ZM286 297H302V299H286V297ZM285 298V266H287V298H285Z" fill="#333333" mask="url(#path-44-inside-5)"/>
<rect width="15" height="30" transform="matrix(-1 0 0 1 301 267)" fill="#F2F2F2"/>
<circle cx="276" cy="282" r="1" fill="#333333"/>
<circle cx="279" cy="282" r="1" fill="#333333"/>
<circle cx="282" cy="282" r="1" fill="#333333"/>
<path d="M233.271 286H232.182V278.775L229.996 279.578V278.594L233.102 277.428H233.271V286ZM242.037 286H236.447V285.221L239.4 281.939C239.838 281.443 240.139 281.041 240.303 280.732C240.471 280.42 240.555 280.098 240.555 279.766C240.555 279.32 240.42 278.955 240.15 278.67C239.881 278.385 239.521 278.242 239.072 278.242C238.533 278.242 238.113 278.396 237.812 278.705C237.516 279.01 237.367 279.436 237.367 279.982H236.283C236.283 279.197 236.535 278.562 237.039 278.078C237.547 277.594 238.225 277.352 239.072 277.352C239.865 277.352 240.492 277.561 240.953 277.979C241.414 278.393 241.645 278.945 241.645 279.637C241.645 280.477 241.109 281.477 240.039 282.637L237.754 285.115H242.037V286ZM248.359 279.695C248.359 280.121 248.246 280.5 248.02 280.832C247.797 281.164 247.494 281.424 247.111 281.611C247.557 281.803 247.908 282.082 248.166 282.449C248.428 282.816 248.559 283.232 248.559 283.697C248.559 284.436 248.309 285.023 247.809 285.461C247.312 285.898 246.658 286.117 245.846 286.117C245.025 286.117 244.367 285.898 243.871 285.461C243.379 285.02 243.133 284.432 243.133 283.697C243.133 283.236 243.258 282.82 243.508 282.449C243.762 282.078 244.111 281.797 244.557 281.605C244.178 281.418 243.879 281.158 243.66 280.826C243.441 280.494 243.332 280.117 243.332 279.695C243.332 278.977 243.562 278.406 244.023 277.984C244.484 277.562 245.092 277.352 245.846 277.352C246.596 277.352 247.201 277.562 247.662 277.984C248.127 278.406 248.359 278.977 248.359 279.695ZM247.475 283.674C247.475 283.197 247.322 282.809 247.018 282.508C246.717 282.207 246.322 282.057 245.834 282.057C245.346 282.057 244.953 282.205 244.656 282.502C244.363 282.799 244.217 283.189 244.217 283.674C244.217 284.158 244.359 284.539 244.645 284.816C244.934 285.094 245.334 285.232 245.846 285.232C246.354 285.232 246.752 285.094 247.041 284.816C247.33 284.535 247.475 284.154 247.475 283.674ZM245.846 278.242C245.42 278.242 245.074 278.375 244.809 278.641C244.547 278.902 244.416 279.26 244.416 279.713C244.416 280.146 244.545 280.498 244.803 280.768C245.064 281.033 245.412 281.166 245.846 281.166C246.279 281.166 246.625 281.033 246.883 280.768C247.145 280.498 247.275 280.146 247.275 279.713C247.275 279.279 247.141 278.926 246.871 278.652C246.602 278.379 246.26 278.242 245.846 278.242ZM258.379 282.9C258.379 283.869 258.156 284.648 257.711 285.238C257.266 285.824 256.668 286.117 255.918 286.117C255.117 286.117 254.498 285.834 254.061 285.268L254.008 286H253.012V277H254.096V280.357C254.533 279.814 255.137 279.543 255.906 279.543C256.676 279.543 257.279 279.834 257.717 280.416C258.158 280.998 258.379 281.795 258.379 282.807V282.9ZM257.295 282.777C257.295 282.039 257.152 281.469 256.867 281.066C256.582 280.664 256.172 280.463 255.637 280.463C254.922 280.463 254.408 280.795 254.096 281.459V284.201C254.428 284.865 254.945 285.197 255.648 285.197C256.168 285.197 256.572 284.996 256.861 284.594C257.15 284.191 257.295 283.586 257.295 282.777ZM260.928 286H259.844V279.66H260.928V286ZM259.756 277.979C259.756 277.803 259.809 277.654 259.914 277.533C260.023 277.412 260.184 277.352 260.395 277.352C260.605 277.352 260.766 277.412 260.875 277.533C260.984 277.654 261.039 277.803 261.039 277.979C261.039 278.154 260.984 278.301 260.875 278.418C260.766 278.535 260.605 278.594 260.395 278.594C260.184 278.594 260.023 278.535 259.914 278.418C259.809 278.301 259.756 278.154 259.756 277.979ZM264.139 278.125V279.66H265.322V280.498H264.139V284.43C264.139 284.684 264.191 284.875 264.297 285.004C264.402 285.129 264.582 285.191 264.836 285.191C264.961 285.191 265.133 285.168 265.352 285.121V286C265.066 286.078 264.789 286.117 264.52 286.117C264.035 286.117 263.67 285.971 263.424 285.678C263.178 285.385 263.055 284.969 263.055 284.43V280.498H261.9V279.66H263.055V278.125H264.139ZM270.285 284.318C270.285 284.025 270.174 283.799 269.951 283.639C269.732 283.475 269.348 283.334 268.797 283.217C268.25 283.1 267.814 282.959 267.49 282.795C267.17 282.631 266.932 282.436 266.775 282.209C266.623 281.982 266.547 281.713 266.547 281.4C266.547 280.881 266.766 280.441 267.203 280.082C267.645 279.723 268.207 279.543 268.891 279.543C269.609 279.543 270.191 279.729 270.637 280.1C271.086 280.471 271.311 280.945 271.311 281.523H270.221C270.221 281.227 270.094 280.971 269.84 280.756C269.59 280.541 269.273 280.434 268.891 280.434C268.496 280.434 268.188 280.52 267.965 280.691C267.742 280.863 267.631 281.088 267.631 281.365C267.631 281.627 267.734 281.824 267.941 281.957C268.148 282.09 268.521 282.217 269.061 282.338C269.604 282.459 270.043 282.604 270.379 282.771C270.715 282.939 270.963 283.143 271.123 283.381C271.287 283.615 271.369 283.902 271.369 284.242C271.369 284.809 271.143 285.264 270.689 285.607C270.236 285.947 269.648 286.117 268.926 286.117C268.418 286.117 267.969 286.027 267.578 285.848C267.188 285.668 266.881 285.418 266.658 285.098C266.439 284.773 266.33 284.424 266.33 284.049H267.414C267.434 284.412 267.578 284.701 267.848 284.916C268.121 285.127 268.48 285.232 268.926 285.232C269.336 285.232 269.664 285.15 269.91 284.986C270.16 284.818 270.285 284.596 270.285 284.318Z" fill="#333333"/>
<rect x="139.5" y="266.5" width="31" height="31" fill="#F2F2F2" stroke="#333333"/>
<rect x="170.5" y="266.5" width="31" height="31" fill="#F2F2F2" stroke="#333333"/>
<mask id="path-53-inside-6" fill="white">
<path fill-rule="evenodd" clip-rule="evenodd" d="M216 266H200V298H216V266Z"/>
</mask>
<path fill-rule="evenodd" clip-rule="evenodd" d="M216 266H200V298H216V266Z" fill="#F2F2F2"/>
<path d="M200 266V265H199V266H200ZM216 266H217V265H216V266ZM200 298H199V299H200V298ZM216 298V299H217V298H216ZM200 267H216V265H200V267ZM201 298V266H199V298H201ZM216 297H200V299H216V297ZM217 298V266H215V298H217Z" fill="#333333" mask="url(#path-53-inside-6)"/>
<rect x="201" y="267" width="15" height="30" fill="#F2F2F2"/>
<circle cx="219" cy="282" r="1" fill="#333333"/>
<circle cx="222" cy="282" r="1" fill="#333333"/>
<circle cx="225" cy="282" r="1" fill="#333333"/>
<path d="M67.968 277.856V283.496L70.2 281.036H71.268L68.976 283.544L71.592 287H70.404L67.968 283.76V287H66.972V278.564L66.816 277.856H67.968ZM72.6584 288.284H74.1464V284.144L72.6944 284.564L72.4784 283.976L74.5064 283.184H75.1064V288.284H76.3064V288.992H72.6584V288.284Z" fill="black"/>
<rect x="-0.5" y="0.5" width="31" height="31" transform="matrix(-1 0 0 1 362 219)" fill="#F2F2F2" stroke="#333333"/>
<rect x="-0.5" y="0.5" width="31" height="31" transform="matrix(-1 0 0 1 331 219)" fill="#F2F2F2" stroke="#333333"/>
<mask id="path-62-inside-7" fill="white">
<path fill-rule="evenodd" clip-rule="evenodd" d="M286 219H302V251H286V219Z"/>
</mask>
<path fill-rule="evenodd" clip-rule="evenodd" d="M286 219H302V251H286V219Z" fill="#F2F2F2"/>
<path d="M302 219V218H303V219H302ZM286 219H285V218H286V219ZM302 251H303V252H302V251ZM286 251V252H285V251H286ZM302 220H286V218H302V220ZM301 251V219H303V251H301ZM286 250H302V252H286V250ZM285 251V219H287V251H285Z" fill="#333333" mask="url(#path-62-inside-7)"/>
<rect width="15" height="30" transform="matrix(-1 0 0 1 301 220)" fill="#F2F2F2"/>
<circle cx="276" cy="235" r="1" fill="#333333"/>
<circle cx="279" cy="235" r="1" fill="#333333"/>
<circle cx="282" cy="235" r="1" fill="#333333"/>
<path d="M233.271 239H232.182V231.775L229.996 232.578V231.594L233.102 230.428H233.271V239ZM242.037 239H236.447V238.221L239.4 234.939C239.838 234.443 240.139 234.041 240.303 233.732C240.471 233.42 240.555 233.098 240.555 232.766C240.555 232.32 240.42 231.955 240.15 231.67C239.881 231.385 239.521 231.242 239.072 231.242C238.533 231.242 238.113 231.396 237.812 231.705C237.516 232.01 237.367 232.436 237.367 232.982H236.283C236.283 232.197 236.535 231.562 237.039 231.078C237.547 230.594 238.225 230.352 239.072 230.352C239.865 230.352 240.492 230.561 240.953 230.979C241.414 231.393 241.645 231.945 241.645 232.637C241.645 233.477 241.109 234.477 240.039 235.637L237.754 238.115H242.037V239ZM248.359 232.695C248.359 233.121 248.246 233.5 248.02 233.832C247.797 234.164 247.494 234.424 247.111 234.611C247.557 234.803 247.908 235.082 248.166 235.449C248.428 235.816 248.559 236.232 248.559 236.697C248.559 237.436 248.309 238.023 247.809 238.461C247.312 238.898 246.658 239.117 245.846 239.117C245.025 239.117 244.367 238.898 243.871 238.461C243.379 238.02 243.133 237.432 243.133 236.697C243.133 236.236 243.258 235.82 243.508 235.449C243.762 235.078 244.111 234.797 244.557 234.605C244.178 234.418 243.879 234.158 243.66 233.826C243.441 233.494 243.332 233.117 243.332 232.695C243.332 231.977 243.562 231.406 244.023 230.984C244.484 230.562 245.092 230.352 245.846 230.352C246.596 230.352 247.201 230.562 247.662 230.984C248.127 231.406 248.359 231.977 248.359 232.695ZM247.475 236.674C247.475 236.197 247.322 235.809 247.018 235.508C246.717 235.207 246.322 235.057 245.834 235.057C245.346 235.057 244.953 235.205 244.656 235.502C244.363 235.799 244.217 236.189 244.217 236.674C244.217 237.158 244.359 237.539 244.645 237.816C244.934 238.094 245.334 238.232 245.846 238.232C246.354 238.232 246.752 238.094 247.041 237.816C247.33 237.535 247.475 237.154 247.475 236.674ZM245.846 231.242C245.42 231.242 245.074 231.375 244.809 231.641C244.547 231.902 244.416 232.26 244.416 232.713C244.416 233.146 244.545 233.498 244.803 233.768C245.064 234.033 245.412 234.166 245.846 234.166C246.279 234.166 246.625 234.033 246.883 233.768C247.145 233.498 247.275 233.146 247.275 232.713C247.275 232.279 247.141 231.926 246.871 231.652C246.602 231.379 246.26 231.242 245.846 231.242ZM258.379 235.9C258.379 236.869 258.156 237.648 257.711 238.238C257.266 238.824 256.668 239.117 255.918 239.117C255.117 239.117 254.498 238.834 254.061 238.268L254.008 239H253.012V230H254.096V233.357C254.533 232.814 255.137 232.543 255.906 232.543C256.676 232.543 257.279 232.834 257.717 233.416C258.158 233.998 258.379 234.795 258.379 235.807V235.9ZM257.295 235.777C257.295 235.039 257.152 234.469 256.867 234.066C256.582 233.664 256.172 233.463 255.637 233.463C254.922 233.463 254.408 233.795 254.096 234.459V237.201C254.428 237.865 254.945 238.197 255.648 238.197C256.168 238.197 256.572 237.996 256.861 237.594C257.15 237.191 257.295 236.586 257.295 235.777ZM260.928 239H259.844V232.66H260.928V239ZM259.756 230.979C259.756 230.803 259.809 230.654 259.914 230.533C260.023 230.412 260.184 230.352 260.395 230.352C260.605 230.352 260.766 230.412 260.875 230.533C260.984 230.654 261.039 230.803 261.039 230.979C261.039 231.154 260.984 231.301 260.875 231.418C260.766 231.535 260.605 231.594 260.395 231.594C260.184 231.594 260.023 231.535 259.914 231.418C259.809 231.301 259.756 231.154 259.756 230.979ZM264.139 231.125V232.66H265.322V233.498H264.139V237.43C264.139 237.684 264.191 237.875 264.297 238.004C264.402 238.129 264.582 238.191 264.836 238.191C264.961 238.191 265.133 238.168 265.352 238.121V239C265.066 239.078 264.789 239.117 264.52 239.117C264.035 239.117 263.67 238.971 263.424 238.678C263.178 238.385 263.055 237.969 263.055 237.43V233.498H261.9V232.66H263.055V231.125H264.139ZM270.285 237.318C270.285 237.025 270.174 236.799 269.951 236.639C269.732 236.475 269.348 236.334 268.797 236.217C268.25 236.1 267.814 235.959 267.49 235.795C267.17 235.631 266.932 235.436 266.775 235.209C266.623 234.982 266.547 234.713 266.547 234.4C266.547 233.881 266.766 233.441 267.203 233.082C267.645 232.723 268.207 232.543 268.891 232.543C269.609 232.543 270.191 232.729 270.637 233.1C271.086 233.471 271.311 233.945 271.311 234.523H270.221C270.221 234.227 270.094 233.971 269.84 233.756C269.59 233.541 269.273 233.434 268.891 233.434C268.496 233.434 268.188 233.52 267.965 233.691C267.742 233.863 267.631 234.088 267.631 234.365C267.631 234.627 267.734 234.824 267.941 234.957C268.148 235.09 268.521 235.217 269.061 235.338C269.604 235.459 270.043 235.604 270.379 235.771C270.715 235.939 270.963 236.143 271.123 236.381C271.287 236.615 271.369 236.902 271.369 237.242C271.369 237.809 271.143 238.264 270.689 238.607C270.236 238.947 269.648 239.117 268.926 239.117C268.418 239.117 267.969 239.027 267.578 238.848C267.188 238.668 266.881 238.418 266.658 238.098C266.439 237.773 266.33 237.424 266.33 237.049H267.414C267.434 237.412 267.578 237.701 267.848 237.916C268.121 238.127 268.48 238.232 268.926 238.232C269.336 238.232 269.664 238.15 269.91 237.986C270.16 237.818 270.285 237.596 270.285 237.318Z" fill="#333333"/>
<rect x="139.5" y="219.5" width="31" height="31" fill="#F2F2F2" stroke="#333333"/>
<rect x="170.5" y="219.5" width="31" height="31" fill="#F2F2F2" stroke="#333333"/>
<mask id="path-71-inside-8" fill="white">
<path fill-rule="evenodd" clip-rule="evenodd" d="M216 219H200V251H216V219Z"/>
</mask>
<path fill-rule="evenodd" clip-rule="evenodd" d="M216 219H200V251H216V219Z" fill="#F2F2F2"/>
<path d="M200 219V218H199V219H200ZM216 219H217V218H216V219ZM200 251H199V252H200V251ZM216 251V252H217V251H216ZM200 220H216V218H200V220ZM201 251V219H199V251H201ZM216 250H200V252H216V250ZM217 251V219H215V251H217Z" fill="#333333" mask="url(#path-71-inside-8)"/>
<rect x="201" y="220" width="15" height="30" fill="#F2F2F2"/>
<circle cx="219" cy="235" r="1" fill="#333333"/>
<circle cx="222" cy="235" r="1" fill="#333333"/>
<circle cx="225" cy="235" r="1" fill="#333333"/>
<path d="M32.968 230.856V236.496L35.2 234.036H36.268L33.976 236.544L36.592 240H35.404L32.968 236.76V240H31.972V231.564L31.816 230.856H32.968ZM39.3624 236.064C39.9224 236.064 40.3704 236.2 40.7064 236.472C41.0504 236.744 41.2984 237.112 41.4504 237.576C41.6024 238.032 41.6784 238.536 41.6784 239.088C41.6784 239.64 41.5904 240.144 41.4144 240.6C41.2384 241.064 40.9664 241.432 40.5984 241.704C40.2384 241.984 39.7784 242.124 39.2184 242.124C38.6664 242.124 38.2184 241.984 37.8744 241.704C37.5384 241.432 37.2904 241.064 37.1304 240.6C36.9784 240.144 36.9024 239.64 36.9024 239.088C36.9024 238.528 36.9904 238.02 37.1664 237.564C37.3424 237.108 37.6104 236.744 37.9704 236.472C38.3384 236.2 38.8024 236.064 39.3624 236.064ZM39.2904 236.82C38.8904 236.82 38.5864 236.936 38.3784 237.168C38.1704 237.392 38.0304 237.68 37.9584 238.032C37.8864 238.376 37.8504 238.728 37.8504 239.088C37.8504 239.448 37.8864 239.804 37.9584 240.156C38.0304 240.508 38.1664 240.796 38.3664 241.02C38.5744 241.252 38.8824 241.368 39.2904 241.368C39.6024 241.368 39.8504 241.3 40.0344 241.164C40.2264 241.036 40.3704 240.86 40.4664 240.636C40.5624 240.412 40.6264 240.168 40.6584 239.904C40.6984 239.632 40.7184 239.36 40.7184 239.088C40.7184 238.816 40.6984 238.548 40.6584 238.284C40.6264 238.012 40.5624 237.768 40.4664 237.552C40.3704 237.328 40.2264 237.152 40.0344 237.024C39.8504 236.888 39.6024 236.82 39.2904 236.82ZM47.961 231.276H48.765L45.561 240.108H44.733L47.961 231.276ZM55.8887 240.132C55.2407 240.132 54.6727 240.012 54.1847 239.772C53.7047 239.532 53.3047 239.204 52.9847 238.788C52.6647 238.364 52.4247 237.884 52.2647 237.348C52.1047 236.812 52.0247 236.244 52.0247 235.644C52.0247 235.044 52.1007 234.476 52.2527 233.94C52.4127 233.396 52.6527 232.916 52.9727 232.5C53.2927 232.076 53.6967 231.744 54.1847 231.504C54.6727 231.264 55.2447 231.144 55.9007 231.144C56.5567 231.144 57.1247 231.264 57.6047 231.504C58.0927 231.744 58.4967 232.076 58.8167 232.5C59.1367 232.916 59.3727 233.396 59.5247 233.94C59.6847 234.476 59.7647 235.044 59.7647 235.644C59.7647 236.244 59.6847 236.816 59.5247 237.36C59.3647 237.896 59.1247 238.372 58.8047 238.788C58.4847 239.204 58.0807 239.532 57.5927 239.772C57.1127 240.012 56.5447 240.132 55.8887 240.132ZM55.9007 239.316C56.4127 239.316 56.8407 239.208 57.1847 238.992C57.5287 238.776 57.8047 238.488 58.0127 238.128C58.2207 237.768 58.3687 237.372 58.4567 236.94C58.5527 236.508 58.6007 236.076 58.6007 235.644C58.6007 235.212 58.5527 234.78 58.4567 234.348C58.3687 233.916 58.2207 233.524 58.0127 233.172C57.8047 232.812 57.5247 232.524 57.1727 232.308C56.8287 232.092 56.4047 231.984 55.9007 231.984C55.3967 231.984 54.9687 232.092 54.6167 232.308C54.2727 232.524 53.9967 232.812 53.7887 233.172C53.5887 233.532 53.4407 233.928 53.3447 234.36C53.2567 234.792 53.2127 235.224 53.2127 235.656C53.2127 236.088 53.2567 236.52 53.3447 236.952C53.4407 237.376 53.5887 237.768 53.7887 238.128C53.9967 238.488 54.2727 238.776 54.6167 238.992C54.9687 239.208 55.3967 239.316 55.9007 239.316ZM61.9883 233.928C62.1323 234.28 62.2243 234.652 62.2643 235.044C62.4723 234.716 62.7523 234.448 63.1043 234.24C63.4563 234.032 63.8283 233.928 64.2203 233.928L63.9803 234.984C63.5963 234.984 63.2683 235.084 62.9963 235.284C62.7323 235.484 62.4963 235.736 62.2883 236.04V240H61.2923V235.68C61.2923 235.448 61.2603 235.172 61.1963 234.852C61.1403 234.524 61.0443 234.26 60.9083 234.06L61.9883 233.928ZM66.7239 232.032C66.7239 232.232 66.6519 232.404 66.5079 232.548C66.3719 232.692 66.1999 232.764 65.9919 232.764C65.7919 232.764 65.6199 232.692 65.4759 232.548C65.3399 232.404 65.2719 232.232 65.2719 232.032C65.2719 231.832 65.3399 231.66 65.4759 231.516C65.6199 231.372 65.7919 231.3 65.9919 231.3C66.1919 231.3 66.3639 231.372 66.5079 231.516C66.6519 231.66 66.7239 231.832 66.7239 232.032ZM66.5079 234.036V240H65.5119V234.744L65.3679 234.036H66.5079ZM70.1556 233.892C70.3876 233.892 70.6076 233.92 70.8156 233.976C71.0316 234.032 71.2516 234.06 71.4756 234.06C71.7796 234.06 72.0876 234.044 72.3996 234.012C72.7116 233.972 73.0396 233.928 73.3836 233.88L73.1676 234.744H72.2076C72.1516 234.744 72.0916 234.744 72.0276 234.744C71.9716 234.736 71.9156 234.728 71.8596 234.72C72.1316 235.088 72.2676 235.484 72.2676 235.908C72.2676 236.516 72.0716 237.02 71.6796 237.42C71.2876 237.812 70.7236 238.008 69.9876 238.008C69.7876 238.008 69.6116 238.06 69.4596 238.164C69.3076 238.268 69.2316 238.428 69.2316 238.644C69.2316 238.788 69.2676 238.892 69.3396 238.956C69.4196 239.012 69.5156 239.044 69.6276 239.052C69.7396 239.06 69.8516 239.064 69.9636 239.064H71.1276C71.4076 239.064 71.6916 239.092 71.9796 239.148C72.2676 239.204 72.5076 239.32 72.6996 239.496C72.8996 239.672 72.9996 239.944 72.9996 240.312C72.9996 240.752 72.9116 241.128 72.7356 241.44C72.5596 241.752 72.3236 242.004 72.0276 242.196C71.7316 242.396 71.3996 242.54 71.0316 242.628C70.6636 242.716 70.2916 242.76 69.9156 242.76C69.6916 242.76 69.4556 242.732 69.2076 242.676C68.9596 242.628 68.7236 242.544 68.4996 242.424C68.2836 242.312 68.1076 242.16 67.9716 241.968C67.8356 241.776 67.7676 241.536 67.7676 241.248C67.7676 240.944 67.8596 240.676 68.0436 240.444C68.2356 240.212 68.4556 240.016 68.7036 239.856V239.82C68.3276 239.628 68.1396 239.34 68.1396 238.956C68.1396 238.852 68.1796 238.756 68.2596 238.668C68.3396 238.572 68.4396 238.448 68.5596 238.296C68.6876 238.144 68.8236 237.936 68.9676 237.672C68.6876 237.48 68.4636 237.236 68.2956 236.94C68.1276 236.636 68.0436 236.312 68.0436 235.968C68.0436 235.576 68.1396 235.224 68.3316 234.912C68.5236 234.6 68.7796 234.352 69.0996 234.168C69.4276 233.984 69.7796 233.892 70.1556 233.892ZM70.1676 234.612C69.8716 234.612 69.6156 234.744 69.3996 235.008C69.1916 235.264 69.0876 235.58 69.0876 235.956C69.0876 236.34 69.1916 236.664 69.3996 236.928C69.6156 237.184 69.8676 237.312 70.1556 237.312C70.4836 237.312 70.7436 237.188 70.9356 236.94C71.1356 236.692 71.2356 236.368 71.2356 235.968C71.2356 235.584 71.1276 235.264 70.9116 235.008C70.7036 234.744 70.4556 234.612 70.1676 234.612ZM69.4116 240.012C69.2596 240.124 69.1196 240.276 68.9916 240.468C68.8636 240.668 68.7996 240.86 68.7996 241.044C68.7996 241.236 68.8676 241.4 69.0036 241.536C69.1476 241.672 69.3196 241.772 69.5196 241.836C69.7276 241.908 69.9196 241.944 70.0956 241.944C70.3756 241.944 70.6676 241.904 70.9716 241.824C71.2836 241.744 71.5436 241.608 71.7516 241.416C71.9676 241.232 72.0756 240.98 72.0756 240.66C72.0756 240.452 72.0116 240.3 71.8836 240.204C71.7556 240.116 71.5956 240.06 71.4036 240.036C71.2196 240.02 71.0356 240.012 70.8516 240.012H69.4116ZM75.4544 232.032C75.4544 232.232 75.3824 232.404 75.2384 232.548C75.1024 232.692 74.9304 232.764 74.7224 232.764C74.5224 232.764 74.3504 232.692 74.2064 232.548C74.0704 232.404 74.0024 232.232 74.0024 232.032C74.0024 231.832 74.0704 231.66 74.2064 231.516C74.3504 231.372 74.5224 231.3 74.7224 231.3C74.9224 231.3 75.0944 231.372 75.2384 231.516C75.3824 231.66 75.4544 231.832 75.4544 232.032ZM75.2384 234.036V240H74.2424V234.744L74.0984 234.036H75.2384ZM77.9021 233.94C77.9581 234.076 78.0061 234.216 78.0461 234.36C78.0861 234.504 78.1141 234.648 78.1301 234.792C78.3701 234.552 78.6541 234.344 78.9821 234.168C79.3101 233.984 79.6461 233.892 79.9901 233.892C80.6541 233.892 81.1221 234.092 81.3941 234.492C81.6741 234.892 81.8141 235.4 81.8141 236.016V240H80.8301V236.34C80.8301 236.092 80.8101 235.848 80.7701 235.608C80.7381 235.368 80.6501 235.172 80.5061 235.02C80.3701 234.86 80.1421 234.78 79.8221 234.78C79.5261 234.78 79.2301 234.864 78.9341 235.032C78.6461 235.192 78.3981 235.372 78.1901 235.572V240H77.2061V235.776C77.2061 235.616 77.1941 235.432 77.1701 235.224C77.1461 235.008 77.1061 234.8 77.0501 234.6C76.9941 234.392 76.9141 234.22 76.8101 234.084L77.9021 233.94ZM85.8446 233.892C86.4766 233.892 86.9526 234.064 87.2726 234.408C87.5926 234.752 87.7526 235.236 87.7526 235.86V238.848C87.7526 239.016 87.7846 239.132 87.8486 239.196C87.9126 239.252 87.9886 239.28 88.0766 239.28C88.1486 239.28 88.2246 239.272 88.3046 239.256C88.3846 239.232 88.4606 239.204 88.5326 239.172L88.7486 239.82C88.6206 239.892 88.4566 239.956 88.2566 240.012C88.0646 240.076 87.8646 240.108 87.6566 240.108C87.4486 240.108 87.2606 240.052 87.0926 239.94C86.9246 239.82 86.8206 239.604 86.7806 239.292C86.5486 239.54 86.2766 239.744 85.9646 239.904C85.6526 240.056 85.3246 240.132 84.9806 240.132C84.5086 240.132 84.1166 239.992 83.8046 239.712C83.4926 239.432 83.3366 239.048 83.3366 238.56C83.3366 238.104 83.4446 237.74 83.6606 237.468C83.8846 237.196 84.1726 236.992 84.5246 236.856C84.8766 236.72 85.2486 236.628 85.6406 236.58C86.0406 236.532 86.4126 236.508 86.7566 236.508V235.872C86.7566 235.536 86.6886 235.252 86.5526 235.02C86.4166 234.788 86.1526 234.672 85.7606 234.672C85.4566 234.672 85.1646 234.732 84.8846 234.852C84.6046 234.972 84.3246 235.148 84.0446 235.38L83.5526 234.672C83.8806 234.408 84.2406 234.212 84.6326 234.084C85.0246 233.956 85.4286 233.892 85.8446 233.892ZM86.7566 237.288C86.5406 237.288 86.2966 237.3 86.0246 237.324C85.7526 237.34 85.4886 237.388 85.2326 237.468C84.9766 237.54 84.7646 237.66 84.5966 237.828C84.4366 237.996 84.3566 238.228 84.3566 238.524C84.3566 238.788 84.4446 238.984 84.6206 239.112C84.8046 239.232 85.0326 239.292 85.3046 239.292C85.5926 239.292 85.8446 239.212 86.0606 239.052C86.2766 238.892 86.4446 238.688 86.5646 238.44C86.6926 238.192 86.7566 237.936 86.7566 237.672V237.288ZM90.7423 230.856V240H89.7463V231.552L89.5903 230.856H90.7423ZM96.4836 230.856V236.496L98.7156 234.036H99.7836L97.4916 236.544L100.108 240H98.9196L96.4836 236.76V240H95.4876V231.564L95.3316 230.856H96.4836ZM103.017 233.892C103.737 233.892 104.281 234.108 104.649 234.54C105.025 234.964 105.213 235.524 105.213 236.22C105.213 236.332 105.205 236.448 105.189 236.568C105.181 236.68 105.169 236.8 105.153 236.928H101.361C101.361 237.688 101.529 238.276 101.865 238.692C102.201 239.108 102.649 239.316 103.209 239.316C103.665 239.316 104.169 239.172 104.721 238.884L105.093 239.484C104.813 239.708 104.497 239.876 104.145 239.988C103.793 240.1 103.437 240.156 103.077 240.156C102.453 240.156 101.933 240.008 101.517 239.712C101.109 239.416 100.805 239.032 100.605 238.56C100.405 238.088 100.305 237.596 100.305 237.084C100.305 236.684 100.361 236.296 100.473 235.92C100.585 235.544 100.753 235.204 100.977 234.9C101.209 234.588 101.493 234.344 101.829 234.168C102.165 233.984 102.561 233.892 103.017 233.892ZM102.921 234.648C102.649 234.648 102.409 234.724 102.201 234.876C101.993 235.028 101.825 235.224 101.697 235.464C101.569 235.696 101.481 235.936 101.433 236.184H104.169C104.185 235.688 104.081 235.308 103.857 235.044C103.633 234.78 103.321 234.648 102.921 234.648ZM106.931 234.036C107.107 234.532 107.279 235.028 107.447 235.524C107.623 236.02 107.799 236.528 107.975 237.048C108.063 237.32 108.151 237.596 108.239 237.876C108.335 238.148 108.427 238.42 108.515 238.692C108.603 238.412 108.691 238.136 108.779 237.864C108.875 237.592 108.967 237.32 109.055 237.048C109.231 236.528 109.403 236.02 109.571 235.524C109.747 235.028 109.923 234.532 110.099 234.036H111.035L108.923 240.024C108.835 240.272 108.723 240.544 108.587 240.84C108.451 241.144 108.291 241.428 108.107 241.692C107.923 241.956 107.707 242.172 107.459 242.34C107.211 242.516 106.931 242.604 106.619 242.604H106.163V241.8H106.295C106.631 241.8 106.907 241.7 107.123 241.5C107.347 241.3 107.531 241.056 107.675 240.768C107.819 240.488 107.939 240.216 108.035 239.952L105.851 234.036H106.931Z" fill="black"/>
<circle cx="251" cy="320" r="1" transform="rotate(-90 251 320)" fill="#333333"/>
<circle cx="251" cy="317" r="1" transform="rotate(-90 251 317)" fill="#333333"/>
<circle cx="251" cy="314" r="1" transform="rotate(-90 251 314)" fill="#333333"/>
</svg>
