<svg width="290" height="110" viewBox="0 0 290 110" fill="none" xmlns="http://www.w3.org/2000/svg">
<rect width="290" height="110" fill="white"/>
<path d="M16 10H10V98H16" stroke="black" stroke-width="2"/>
<path d="M105 10H111V98H105" stroke="black" stroke-width="2"/>
<path d="M24.66 15.916C25.076 15.916 25.44 16.004 25.752 16.18C26.064 16.356 26.32 16.596 26.52 16.9C26.728 17.196 26.884 17.524 26.988 17.884C27.092 18.244 27.144 18.612 27.144 18.988C27.144 19.524 27.048 20.036 26.856 20.524C26.672 21.004 26.384 21.396 25.992 21.7C25.608 22.004 25.116 22.156 24.516 22.156C24.18 22.156 23.856 22.092 23.544 21.964C23.24 21.836 22.98 21.644 22.764 21.388L22.548 22.012H21.948C21.956 21.876 21.964 21.74 21.972 21.604C21.98 21.46 21.984 21.32 21.984 21.184V13.552L21.816 12.856H22.98V16.168C22.98 16.24 22.976 16.312 22.968 16.384C22.968 16.448 22.964 16.516 22.956 16.588C23.212 16.356 23.472 16.188 23.736 16.084C24.008 15.972 24.316 15.916 24.66 15.916ZM24.408 16.768C24.144 16.768 23.884 16.832 23.628 16.96C23.38 17.08 23.164 17.236 22.98 17.428V19.612C22.98 19.948 23.028 20.252 23.124 20.524C23.22 20.796 23.376 21.012 23.592 21.172C23.816 21.332 24.112 21.412 24.48 21.412C24.784 21.412 25.036 21.336 25.236 21.184C25.444 21.024 25.608 20.824 25.728 20.584C25.848 20.336 25.936 20.076 25.992 19.804C26.048 19.524 26.076 19.264 26.076 19.024C26.076 18.672 26.02 18.324 25.908 17.98C25.804 17.636 25.628 17.348 25.38 17.116C25.14 16.884 24.816 16.768 24.408 16.768ZM30.4874 18.064C31.0474 18.064 31.4954 18.2 31.8314 18.472C32.1754 18.744 32.4234 19.112 32.5754 19.576C32.7274 20.032 32.8034 20.536 32.8034 21.088C32.8034 21.64 32.7154 22.144 32.5394 22.6C32.3634 23.064 32.0914 23.432 31.7234 23.704C31.3634 23.984 30.9034 24.124 30.3434 24.124C29.7914 24.124 29.3434 23.984 28.9994 23.704C28.6634 23.432 28.4154 23.064 28.2554 22.6C28.1034 22.144 28.0274 21.64 28.0274 21.088C28.0274 20.528 28.1154 20.02 28.2914 19.564C28.4674 19.108 28.7354 18.744 29.0954 18.472C29.4634 18.2 29.9274 18.064 30.4874 18.064ZM30.4154 18.82C30.0154 18.82 29.7114 18.936 29.5034 19.168C29.2954 19.392 29.1554 19.68 29.0834 20.032C29.0114 20.376 28.9754 20.728 28.9754 21.088C28.9754 21.448 29.0114 21.804 29.0834 22.156C29.1554 22.508 29.2914 22.796 29.4914 23.02C29.6994 23.252 30.0074 23.368 30.4154 23.368C30.7274 23.368 30.9754 23.3 31.1594 23.164C31.3514 23.036 31.4954 22.86 31.5914 22.636C31.6874 22.412 31.7514 22.168 31.7834 21.904C31.8234 21.632 31.8434 21.36 31.8434 21.088C31.8434 20.816 31.8234 20.548 31.7834 20.284C31.7514 20.012 31.6874 19.768 31.5914 19.552C31.4954 19.328 31.3514 19.152 31.1594 19.024C30.9754 18.888 30.7274 18.82 30.4154 18.82Z" fill="black"/>
<path d="M46.66 15.916C47.076 15.916 47.44 16.004 47.752 16.18C48.064 16.356 48.32 16.596 48.52 16.9C48.728 17.196 48.884 17.524 48.988 17.884C49.092 18.244 49.144 18.612 49.144 18.988C49.144 19.524 49.048 20.036 48.856 20.524C48.672 21.004 48.384 21.396 47.992 21.7C47.608 22.004 47.116 22.156 46.516 22.156C46.18 22.156 45.856 22.092 45.544 21.964C45.24 21.836 44.98 21.644 44.764 21.388L44.548 22.012H43.948C43.956 21.876 43.964 21.74 43.972 21.604C43.98 21.46 43.984 21.32 43.984 21.184V13.552L43.816 12.856H44.98V16.168C44.98 16.24 44.976 16.312 44.968 16.384C44.968 16.448 44.964 16.516 44.956 16.588C45.212 16.356 45.472 16.188 45.736 16.084C46.008 15.972 46.316 15.916 46.66 15.916ZM46.408 16.768C46.144 16.768 45.884 16.832 45.628 16.96C45.38 17.08 45.164 17.236 44.98 17.428V19.612C44.98 19.948 45.028 20.252 45.124 20.524C45.22 20.796 45.376 21.012 45.592 21.172C45.816 21.332 46.112 21.412 46.48 21.412C46.784 21.412 47.036 21.336 47.236 21.184C47.444 21.024 47.608 20.824 47.728 20.584C47.848 20.336 47.936 20.076 47.992 19.804C48.048 19.524 48.076 19.264 48.076 19.024C48.076 18.672 48.02 18.324 47.908 17.98C47.804 17.636 47.628 17.348 47.38 17.116C47.14 16.884 46.816 16.768 46.408 16.768ZM52.8834 22.672H50.1354V22.192L52.8834 18.196H53.8434V21.964H54.7434L54.5394 22.672H53.8434V23.992H52.8834V22.672ZM52.9194 19.348L51.1554 21.964H52.8834L52.9194 19.348Z" fill="black"/>
<path d="M68.66 15.916C69.076 15.916 69.44 16.004 69.752 16.18C70.064 16.356 70.32 16.596 70.52 16.9C70.728 17.196 70.884 17.524 70.988 17.884C71.092 18.244 71.144 18.612 71.144 18.988C71.144 19.524 71.048 20.036 70.856 20.524C70.672 21.004 70.384 21.396 69.992 21.7C69.608 22.004 69.116 22.156 68.516 22.156C68.18 22.156 67.856 22.092 67.544 21.964C67.24 21.836 66.98 21.644 66.764 21.388L66.548 22.012H65.948C65.956 21.876 65.964 21.74 65.972 21.604C65.98 21.46 65.984 21.32 65.984 21.184V13.552L65.816 12.856H66.98V16.168C66.98 16.24 66.976 16.312 66.968 16.384C66.968 16.448 66.964 16.516 66.956 16.588C67.212 16.356 67.472 16.188 67.736 16.084C68.008 15.972 68.316 15.916 68.66 15.916ZM68.408 16.768C68.144 16.768 67.884 16.832 67.628 16.96C67.38 17.08 67.164 17.236 66.98 17.428V19.612C66.98 19.948 67.028 20.252 67.124 20.524C67.22 20.796 67.376 21.012 67.592 21.172C67.816 21.332 68.112 21.412 68.48 21.412C68.784 21.412 69.036 21.336 69.236 21.184C69.444 21.024 69.608 20.824 69.728 20.584C69.848 20.336 69.936 20.076 69.992 19.804C70.048 19.524 70.076 19.264 70.076 19.024C70.076 18.672 70.02 18.324 69.908 17.98C69.804 17.636 69.628 17.348 69.38 17.116C69.14 16.884 68.816 16.768 68.408 16.768ZM76.2154 19.468C76.2154 19.7 76.1554 19.948 76.0354 20.212C75.9234 20.468 75.7114 20.692 75.3994 20.884C75.6794 21.036 75.9194 21.228 76.1194 21.46C76.3194 21.692 76.4194 22.008 76.4194 22.408C76.4194 22.784 76.3194 23.096 76.1194 23.344C75.9194 23.6 75.6634 23.788 75.3514 23.908C75.0394 24.036 74.7114 24.1 74.3674 24.1C74.0394 24.1 73.7274 24.04 73.4314 23.92C73.1354 23.808 72.8914 23.636 72.6994 23.404C72.5154 23.18 72.4234 22.896 72.4234 22.552C72.4234 22.248 72.4994 21.964 72.6514 21.7C72.8114 21.428 73.0554 21.188 73.3834 20.98C73.1594 20.836 72.9714 20.66 72.8194 20.452C72.6754 20.236 72.6034 19.968 72.6034 19.648C72.6034 19.296 72.6994 19.004 72.8914 18.772C73.0834 18.54 73.3234 18.364 73.6114 18.244C73.9074 18.124 74.2114 18.064 74.5234 18.064C74.8114 18.064 75.0834 18.116 75.3394 18.22C75.6034 18.324 75.8154 18.48 75.9754 18.688C76.1354 18.888 76.2154 19.148 76.2154 19.468ZM73.5394 19.564C73.5394 19.828 73.6554 20.032 73.8874 20.176C74.1194 20.312 74.3874 20.444 74.6914 20.572C74.9714 20.468 75.1674 20.316 75.2794 20.116C75.3994 19.908 75.4594 19.704 75.4594 19.504C75.4594 19.248 75.3594 19.056 75.1594 18.928C74.9674 18.8 74.7514 18.736 74.5114 18.736C74.2714 18.736 74.0474 18.804 73.8394 18.94C73.6394 19.076 73.5394 19.284 73.5394 19.564ZM73.2394 22.528C73.2394 22.816 73.3554 23.032 73.5874 23.176C73.8194 23.328 74.0714 23.404 74.3434 23.404C74.6234 23.404 74.8794 23.328 75.1114 23.176C75.3434 23.024 75.4594 22.796 75.4594 22.492C75.4594 22.292 75.3874 22.124 75.2434 21.988C75.1074 21.852 74.9274 21.736 74.7034 21.64C74.4794 21.536 74.2474 21.428 74.0074 21.316C73.6714 21.5 73.4594 21.7 73.3714 21.916C73.2834 22.124 73.2394 22.328 73.2394 22.528Z" fill="black"/>
<path d="M90.66 15.916C91.076 15.916 91.44 16.004 91.752 16.18C92.064 16.356 92.32 16.596 92.52 16.9C92.728 17.196 92.884 17.524 92.988 17.884C93.092 18.244 93.144 18.612 93.144 18.988C93.144 19.524 93.048 20.036 92.856 20.524C92.672 21.004 92.384 21.396 91.992 21.7C91.608 22.004 91.116 22.156 90.516 22.156C90.18 22.156 89.856 22.092 89.544 21.964C89.24 21.836 88.98 21.644 88.764 21.388L88.548 22.012H87.948C87.956 21.876 87.964 21.74 87.972 21.604C87.98 21.46 87.984 21.32 87.984 21.184V13.552L87.816 12.856H88.98V16.168C88.98 16.24 88.976 16.312 88.968 16.384C88.968 16.448 88.964 16.516 88.956 16.588C89.212 16.356 89.472 16.188 89.736 16.084C90.008 15.972 90.316 15.916 90.66 15.916ZM90.408 16.768C90.144 16.768 89.884 16.832 89.628 16.96C89.38 17.08 89.164 17.236 88.98 17.428V19.612C88.98 19.948 89.028 20.252 89.124 20.524C89.22 20.796 89.376 21.012 89.592 21.172C89.816 21.332 90.112 21.412 90.48 21.412C90.784 21.412 91.036 21.336 91.236 21.184C91.444 21.024 91.608 20.824 91.728 20.584C91.848 20.336 91.936 20.076 91.992 19.804C92.048 19.524 92.076 19.264 92.076 19.024C92.076 18.672 92.02 18.324 91.908 17.98C91.804 17.636 91.628 17.348 91.38 17.116C91.14 16.884 90.816 16.768 90.408 16.768ZM94.7834 23.284H96.2714V19.144L94.8194 19.564L94.6034 18.976L96.6314 18.184H97.2314V23.284H98.4314V23.992H94.7834V23.284ZM99.8483 23.536C99.8483 23.536 99.9203 23.476 100.064 23.356C100.208 23.236 100.396 23.072 100.628 22.864C100.86 22.664 101.104 22.432 101.36 22.168C101.616 21.912 101.86 21.64 102.092 21.352C102.324 21.056 102.512 20.764 102.656 20.476C102.8 20.188 102.872 19.916 102.872 19.66C102.872 19.404 102.788 19.192 102.62 19.024C102.46 18.848 102.228 18.76 101.924 18.76C101.652 18.76 101.4 18.812 101.168 18.916C100.944 19.02 100.76 19.128 100.616 19.24C100.48 19.344 100.412 19.396 100.412 19.396L100.028 18.832C100.028 18.832 100.076 18.796 100.172 18.724C100.268 18.644 100.404 18.552 100.58 18.448C100.764 18.344 100.984 18.256 101.24 18.184C101.496 18.104 101.788 18.064 102.116 18.064C102.556 18.064 102.904 18.14 103.16 18.292C103.416 18.444 103.6 18.64 103.712 18.88C103.824 19.112 103.88 19.348 103.88 19.588C103.88 19.948 103.788 20.304 103.604 20.656C103.428 21 103.208 21.324 102.944 21.628C102.68 21.932 102.412 22.2 102.14 22.432C101.876 22.664 101.652 22.844 101.468 22.972C101.292 23.108 101.204 23.176 101.204 23.176H104.048L103.82 23.992H99.8483V23.536Z" fill="black"/>
<path d="M24.66 38.916C25.076 38.916 25.44 39.004 25.752 39.18C26.064 39.356 26.32 39.596 26.52 39.9C26.728 40.196 26.884 40.524 26.988 40.884C27.092 41.244 27.144 41.612 27.144 41.988C27.144 42.524 27.048 43.036 26.856 43.524C26.672 44.004 26.384 44.396 25.992 44.7C25.608 45.004 25.116 45.156 24.516 45.156C24.18 45.156 23.856 45.092 23.544 44.964C23.24 44.836 22.98 44.644 22.764 44.388L22.548 45.012H21.948C21.956 44.876 21.964 44.74 21.972 44.604C21.98 44.46 21.984 44.32 21.984 44.184V36.552L21.816 35.856H22.98V39.168C22.98 39.24 22.976 39.312 22.968 39.384C22.968 39.448 22.964 39.516 22.956 39.588C23.212 39.356 23.472 39.188 23.736 39.084C24.008 38.972 24.316 38.916 24.66 38.916ZM24.408 39.768C24.144 39.768 23.884 39.832 23.628 39.96C23.38 40.08 23.164 40.236 22.98 40.428V42.612C22.98 42.948 23.028 43.252 23.124 43.524C23.22 43.796 23.376 44.012 23.592 44.172C23.816 44.332 24.112 44.412 24.48 44.412C24.784 44.412 25.036 44.336 25.236 44.184C25.444 44.024 25.608 43.824 25.728 43.584C25.848 43.336 25.936 43.076 25.992 42.804C26.048 42.524 26.076 42.264 26.076 42.024C26.076 41.672 26.02 41.324 25.908 40.98C25.804 40.636 25.628 40.348 25.38 40.116C25.14 39.884 24.816 39.768 24.408 39.768ZM28.7834 46.284H30.2714V42.144L28.8194 42.564L28.6034 41.976L30.6314 41.184H31.2314V46.284H32.4314V46.992H28.7834V46.284Z" fill="black"/>
<path d="M46.66 38.916C47.076 38.916 47.44 39.004 47.752 39.18C48.064 39.356 48.32 39.596 48.52 39.9C48.728 40.196 48.884 40.524 48.988 40.884C49.092 41.244 49.144 41.612 49.144 41.988C49.144 42.524 49.048 43.036 48.856 43.524C48.672 44.004 48.384 44.396 47.992 44.7C47.608 45.004 47.116 45.156 46.516 45.156C46.18 45.156 45.856 45.092 45.544 44.964C45.24 44.836 44.98 44.644 44.764 44.388L44.548 45.012H43.948C43.956 44.876 43.964 44.74 43.972 44.604C43.98 44.46 43.984 44.32 43.984 44.184V36.552L43.816 35.856H44.98V39.168C44.98 39.24 44.976 39.312 44.968 39.384C44.968 39.448 44.964 39.516 44.956 39.588C45.212 39.356 45.472 39.188 45.736 39.084C46.008 38.972 46.316 38.916 46.66 38.916ZM46.408 39.768C46.144 39.768 45.884 39.832 45.628 39.96C45.38 40.08 45.164 40.236 44.98 40.428V42.612C44.98 42.948 45.028 43.252 45.124 43.524C45.22 43.796 45.376 44.012 45.592 44.172C45.816 44.332 46.112 44.412 46.48 44.412C46.784 44.412 47.036 44.336 47.236 44.184C47.444 44.024 47.608 43.824 47.728 43.584C47.848 43.336 47.936 43.076 47.992 42.804C48.048 42.524 48.076 42.264 48.076 42.024C48.076 41.672 48.02 41.324 47.908 40.98C47.804 40.636 47.628 40.348 47.38 40.116C47.14 39.884 46.816 39.768 46.408 39.768ZM51.4554 41.172H54.4314L54.2274 42.012H52.0074L51.7554 42.888C52.3234 43.016 52.7674 43.188 53.0874 43.404C53.4074 43.62 53.6354 43.868 53.7714 44.148C53.9074 44.42 53.9754 44.72 53.9754 45.048C53.9754 45.472 53.8594 45.836 53.6274 46.14C53.3954 46.452 53.0794 46.688 52.6794 46.848C52.2794 47.016 51.8314 47.1 51.3354 47.1C51.1914 47.1 51.0434 47.092 50.8914 47.076C50.7474 47.068 50.5994 47.048 50.4474 47.016L50.5794 46.368C50.7074 46.384 50.8314 46.396 50.9514 46.404C51.0714 46.412 51.1874 46.416 51.2994 46.416C51.8274 46.416 52.2434 46.308 52.5474 46.092C52.8594 45.884 53.0154 45.548 53.0154 45.084C53.0154 44.788 52.9514 44.536 52.8234 44.328C52.6954 44.12 52.4754 43.944 52.1634 43.8C51.8594 43.648 51.4314 43.52 50.8794 43.416L51.4554 41.172Z" fill="black"/>
<path d="M68.66 38.916C69.076 38.916 69.44 39.004 69.752 39.18C70.064 39.356 70.32 39.596 70.52 39.9C70.728 40.196 70.884 40.524 70.988 40.884C71.092 41.244 71.144 41.612 71.144 41.988C71.144 42.524 71.048 43.036 70.856 43.524C70.672 44.004 70.384 44.396 69.992 44.7C69.608 45.004 69.116 45.156 68.516 45.156C68.18 45.156 67.856 45.092 67.544 44.964C67.24 44.836 66.98 44.644 66.764 44.388L66.548 45.012H65.948C65.956 44.876 65.964 44.74 65.972 44.604C65.98 44.46 65.984 44.32 65.984 44.184V36.552L65.816 35.856H66.98V39.168C66.98 39.24 66.976 39.312 66.968 39.384C66.968 39.448 66.964 39.516 66.956 39.588C67.212 39.356 67.472 39.188 67.736 39.084C68.008 38.972 68.316 38.916 68.66 38.916ZM68.408 39.768C68.144 39.768 67.884 39.832 67.628 39.96C67.38 40.08 67.164 40.236 66.98 40.428V42.612C66.98 42.948 67.028 43.252 67.124 43.524C67.22 43.796 67.376 44.012 67.592 44.172C67.816 44.332 68.112 44.412 68.48 44.412C68.784 44.412 69.036 44.336 69.236 44.184C69.444 44.024 69.608 43.824 69.728 43.584C69.848 43.336 69.936 43.076 69.992 42.804C70.048 42.524 70.076 42.264 70.076 42.024C70.076 41.672 70.02 41.324 69.908 40.98C69.804 40.636 69.628 40.348 69.38 40.116C69.14 39.884 68.816 39.768 68.408 39.768ZM73.1194 47.112L72.8914 46.476C73.6194 46.284 74.1674 46.016 74.5354 45.672C74.9114 45.328 75.1714 44.952 75.3154 44.544C75.1314 44.648 74.9474 44.728 74.7634 44.784C74.5794 44.832 74.3954 44.856 74.2114 44.856C73.9074 44.856 73.6234 44.788 73.3594 44.652C73.0954 44.508 72.8834 44.304 72.7234 44.04C72.5634 43.776 72.4834 43.468 72.4834 43.116C72.4834 42.78 72.5634 42.456 72.7234 42.144C72.8834 41.832 73.1154 41.576 73.4194 41.376C73.7314 41.168 74.1074 41.064 74.5474 41.064C74.8674 41.064 75.1714 41.144 75.4594 41.304C75.7554 41.456 75.9954 41.692 76.1794 42.012C76.3714 42.324 76.4674 42.724 76.4674 43.212C76.4674 43.9 76.3194 44.516 76.0234 45.06C75.7274 45.604 75.3274 46.052 74.8234 46.404C74.3194 46.756 73.7514 46.992 73.1194 47.112ZM73.4434 42.972C73.4434 43.348 73.5394 43.628 73.7314 43.812C73.9234 43.996 74.1594 44.088 74.4394 44.088C74.7754 44.088 75.1234 43.972 75.4834 43.74C75.4994 43.588 75.5074 43.424 75.5074 43.248C75.5074 42.776 75.4194 42.408 75.2434 42.144C75.0754 41.88 74.8194 41.748 74.4754 41.748C74.1314 41.748 73.8714 41.872 73.6954 42.12C73.5274 42.36 73.4434 42.644 73.4434 42.972Z" fill="black"/>
<path d="M90.66 38.916C91.076 38.916 91.44 39.004 91.752 39.18C92.064 39.356 92.32 39.596 92.52 39.9C92.728 40.196 92.884 40.524 92.988 40.884C93.092 41.244 93.144 41.612 93.144 41.988C93.144 42.524 93.048 43.036 92.856 43.524C92.672 44.004 92.384 44.396 91.992 44.7C91.608 45.004 91.116 45.156 90.516 45.156C90.18 45.156 89.856 45.092 89.544 44.964C89.24 44.836 88.98 44.644 88.764 44.388L88.548 45.012H87.948C87.956 44.876 87.964 44.74 87.972 44.604C87.98 44.46 87.984 44.32 87.984 44.184V36.552L87.816 35.856H88.98V39.168C88.98 39.24 88.976 39.312 88.968 39.384C88.968 39.448 88.964 39.516 88.956 39.588C89.212 39.356 89.472 39.188 89.736 39.084C90.008 38.972 90.316 38.916 90.66 38.916ZM90.408 39.768C90.144 39.768 89.884 39.832 89.628 39.96C89.38 40.08 89.164 40.236 88.98 40.428V42.612C88.98 42.948 89.028 43.252 89.124 43.524C89.22 43.796 89.376 44.012 89.592 44.172C89.816 44.332 90.112 44.412 90.48 44.412C90.784 44.412 91.036 44.336 91.236 44.184C91.444 44.024 91.608 43.824 91.728 43.584C91.848 43.336 91.936 43.076 91.992 42.804C92.048 42.524 92.076 42.264 92.076 42.024C92.076 41.672 92.02 41.324 91.908 40.98C91.804 40.636 91.628 40.348 91.38 40.116C91.14 39.884 90.816 39.768 90.408 39.768ZM94.7834 46.284H96.2714V42.144L94.8194 42.564L94.6034 41.976L96.6314 41.184H97.2314V46.284H98.4314V46.992H94.7834V46.284ZM99.9083 46.512C100.884 46.464 101.628 46.296 102.14 46.008C102.66 45.72 102.92 45.36 102.92 44.928C102.92 44.664 102.848 44.472 102.704 44.352C102.56 44.224 102.384 44.144 102.176 44.112C101.968 44.072 101.76 44.052 101.552 44.052C101.44 44.052 101.34 44.056 101.252 44.064C101.172 44.072 101.132 44.076 101.132 44.076L101.036 43.512C101.26 43.464 101.5 43.396 101.756 43.308C102.012 43.22 102.232 43.096 102.416 42.936C102.6 42.776 102.692 42.572 102.692 42.324C102.692 42.14 102.616 42 102.464 41.904C102.312 41.808 102.108 41.76 101.852 41.76C101.604 41.76 101.336 41.824 101.048 41.952C100.76 42.072 100.524 42.208 100.34 42.36L99.9563 41.808C100.228 41.592 100.56 41.416 100.952 41.28C101.352 41.136 101.728 41.064 102.08 41.064C102.32 41.064 102.556 41.096 102.788 41.16C103.028 41.224 103.224 41.336 103.376 41.496C103.536 41.648 103.616 41.864 103.616 42.144C103.616 42.376 103.556 42.58 103.436 42.756C103.324 42.924 103.18 43.068 103.004 43.188C102.828 43.3 102.652 43.392 102.476 43.464C102.852 43.504 103.18 43.644 103.46 43.884C103.74 44.116 103.88 44.432 103.88 44.832C103.88 45.048 103.824 45.284 103.712 45.54C103.608 45.796 103.416 46.036 103.136 46.26C102.856 46.492 102.464 46.688 101.96 46.848C101.456 47.008 100.812 47.1 100.028 47.124L99.9083 46.512Z" fill="black"/>
<path d="M24.66 61.916C25.076 61.916 25.44 62.004 25.752 62.18C26.064 62.356 26.32 62.596 26.52 62.9C26.728 63.196 26.884 63.524 26.988 63.884C27.092 64.244 27.144 64.612 27.144 64.988C27.144 65.524 27.048 66.036 26.856 66.524C26.672 67.004 26.384 67.396 25.992 67.7C25.608 68.004 25.116 68.156 24.516 68.156C24.18 68.156 23.856 68.092 23.544 67.964C23.24 67.836 22.98 67.644 22.764 67.388L22.548 68.012H21.948C21.956 67.876 21.964 67.74 21.972 67.604C21.98 67.46 21.984 67.32 21.984 67.184V59.552L21.816 58.856H22.98V62.168C22.98 62.24 22.976 62.312 22.968 62.384C22.968 62.448 22.964 62.516 22.956 62.588C23.212 62.356 23.472 62.188 23.736 62.084C24.008 61.972 24.316 61.916 24.66 61.916ZM24.408 62.768C24.144 62.768 23.884 62.832 23.628 62.96C23.38 63.08 23.164 63.236 22.98 63.428V65.612C22.98 65.948 23.028 66.252 23.124 66.524C23.22 66.796 23.376 67.012 23.592 67.172C23.816 67.332 24.112 67.412 24.48 67.412C24.784 67.412 25.036 67.336 25.236 67.184C25.444 67.024 25.608 66.824 25.728 66.584C25.848 66.336 25.936 66.076 25.992 65.804C26.048 65.524 26.076 65.264 26.076 65.024C26.076 64.672 26.02 64.324 25.908 63.98C25.804 63.636 25.628 63.348 25.38 63.116C25.14 62.884 24.816 62.768 24.408 62.768ZM28.3874 69.536C28.3874 69.536 28.4594 69.476 28.6034 69.356C28.7474 69.236 28.9354 69.072 29.1674 68.864C29.3994 68.664 29.6434 68.432 29.8994 68.168C30.1554 67.912 30.3994 67.64 30.6314 67.352C30.8634 67.056 31.0514 66.764 31.1954 66.476C31.3394 66.188 31.4114 65.916 31.4114 65.66C31.4114 65.404 31.3274 65.192 31.1594 65.024C30.9994 64.848 30.7674 64.76 30.4634 64.76C30.1914 64.76 29.9394 64.812 29.7074 64.916C29.4834 65.02 29.2994 65.128 29.1554 65.24C29.0194 65.344 28.9514 65.396 28.9514 65.396L28.5674 64.832C28.5674 64.832 28.6154 64.796 28.7114 64.724C28.8074 64.644 28.9434 64.552 29.1194 64.448C29.3034 64.344 29.5234 64.256 29.7794 64.184C30.0354 64.104 30.3274 64.064 30.6554 64.064C31.0954 64.064 31.4434 64.14 31.6994 64.292C31.9554 64.444 32.1394 64.64 32.2514 64.88C32.3634 65.112 32.4194 65.348 32.4194 65.588C32.4194 65.948 32.3274 66.304 32.1434 66.656C31.9674 67 31.7474 67.324 31.4834 67.628C31.2194 67.932 30.9514 68.2 30.6794 68.432C30.4154 68.664 30.1914 68.844 30.0074 68.972C29.8314 69.108 29.7434 69.176 29.7434 69.176H32.5874L32.3594 69.992H28.3874V69.536Z" fill="black"/>
<path d="M46.66 61.916C47.076 61.916 47.44 62.004 47.752 62.18C48.064 62.356 48.32 62.596 48.52 62.9C48.728 63.196 48.884 63.524 48.988 63.884C49.092 64.244 49.144 64.612 49.144 64.988C49.144 65.524 49.048 66.036 48.856 66.524C48.672 67.004 48.384 67.396 47.992 67.7C47.608 68.004 47.116 68.156 46.516 68.156C46.18 68.156 45.856 68.092 45.544 67.964C45.24 67.836 44.98 67.644 44.764 67.388L44.548 68.012H43.948C43.956 67.876 43.964 67.74 43.972 67.604C43.98 67.46 43.984 67.32 43.984 67.184V59.552L43.816 58.856H44.98V62.168C44.98 62.24 44.976 62.312 44.968 62.384C44.968 62.448 44.964 62.516 44.956 62.588C45.212 62.356 45.472 62.188 45.736 62.084C46.008 61.972 46.316 61.916 46.66 61.916ZM46.408 62.768C46.144 62.768 45.884 62.832 45.628 62.96C45.38 63.08 45.164 63.236 44.98 63.428V65.612C44.98 65.948 45.028 66.252 45.124 66.524C45.22 66.796 45.376 67.012 45.592 67.172C45.816 67.332 46.112 67.412 46.48 67.412C46.784 67.412 47.036 67.336 47.236 67.184C47.444 67.024 47.608 66.824 47.728 66.584C47.848 66.336 47.936 66.076 47.992 65.804C48.048 65.524 48.076 65.264 48.076 65.024C48.076 64.672 48.02 64.324 47.908 63.98C47.804 63.636 47.628 63.348 47.38 63.116C47.14 62.884 46.816 62.768 46.408 62.768ZM53.7234 63.812L53.9514 64.448C53.2634 64.72 52.7314 65.044 52.3554 65.42C51.9874 65.796 51.7234 66.192 51.5634 66.608C51.8994 66.408 52.2554 66.308 52.6314 66.308C52.9434 66.308 53.2274 66.38 53.4834 66.524C53.7474 66.66 53.9594 66.86 54.1194 67.124C54.2794 67.38 54.3594 67.688 54.3594 68.048C54.3594 68.376 54.2794 68.696 54.1194 69.008C53.9594 69.328 53.7234 69.588 53.4114 69.788C53.1074 69.996 52.7354 70.1 52.2954 70.1C51.9754 70.1 51.6674 70.02 51.3714 69.86C51.0834 69.708 50.8434 69.472 50.6514 69.152C50.4674 68.84 50.3754 68.44 50.3754 67.952C50.3754 67.264 50.5314 66.644 50.8434 66.092C51.1554 65.54 51.5634 65.072 52.0674 64.688C52.5794 64.296 53.1314 64.004 53.7234 63.812ZM51.3354 67.916C51.3354 68.38 51.4194 68.744 51.5874 69.008C51.7634 69.28 52.0234 69.416 52.3674 69.416C52.7194 69.416 52.9794 69.292 53.1474 69.044C53.3154 68.804 53.3994 68.52 53.3994 68.192C53.3994 67.816 53.3034 67.536 53.1114 67.352C52.9194 67.168 52.6834 67.076 52.4034 67.076C52.0674 67.076 51.7194 67.192 51.3594 67.424C51.3434 67.584 51.3354 67.748 51.3354 67.916Z" fill="black"/>
<path d="M68.66 61.916C69.076 61.916 69.44 62.004 69.752 62.18C70.064 62.356 70.32 62.596 70.52 62.9C70.728 63.196 70.884 63.524 70.988 63.884C71.092 64.244 71.144 64.612 71.144 64.988C71.144 65.524 71.048 66.036 70.856 66.524C70.672 67.004 70.384 67.396 69.992 67.7C69.608 68.004 69.116 68.156 68.516 68.156C68.18 68.156 67.856 68.092 67.544 67.964C67.24 67.836 66.98 67.644 66.764 67.388L66.548 68.012H65.948C65.956 67.876 65.964 67.74 65.972 67.604C65.98 67.46 65.984 67.32 65.984 67.184V59.552L65.816 58.856H66.98V62.168C66.98 62.24 66.976 62.312 66.968 62.384C66.968 62.448 66.964 62.516 66.956 62.588C67.212 62.356 67.472 62.188 67.736 62.084C68.008 61.972 68.316 61.916 68.66 61.916ZM68.408 62.768C68.144 62.768 67.884 62.832 67.628 62.96C67.38 63.08 67.164 63.236 66.98 63.428V65.612C66.98 65.948 67.028 66.252 67.124 66.524C67.22 66.796 67.376 67.012 67.592 67.172C67.816 67.332 68.112 67.412 68.48 67.412C68.784 67.412 69.036 67.336 69.236 67.184C69.444 67.024 69.608 66.824 69.728 66.584C69.848 66.336 69.936 66.076 69.992 65.804C70.048 65.524 70.076 65.264 70.076 65.024C70.076 64.672 70.02 64.324 69.908 63.98C69.804 63.636 69.628 63.348 69.38 63.116C69.14 62.884 68.816 62.768 68.408 62.768ZM72.7834 69.284H74.2714V65.144L72.8194 65.564L72.6034 64.976L74.6314 64.184H75.2314V69.284H76.4314V69.992H72.7834V69.284ZM79.9483 64.064C80.5083 64.064 80.9563 64.2 81.2923 64.472C81.6363 64.744 81.8843 65.112 82.0363 65.576C82.1883 66.032 82.2643 66.536 82.2643 67.088C82.2643 67.64 82.1763 68.144 82.0003 68.6C81.8243 69.064 81.5523 69.432 81.1843 69.704C80.8243 69.984 80.3643 70.124 79.8043 70.124C79.2523 70.124 78.8043 69.984 78.4603 69.704C78.1243 69.432 77.8763 69.064 77.7163 68.6C77.5643 68.144 77.4883 67.64 77.4883 67.088C77.4883 66.528 77.5763 66.02 77.7523 65.564C77.9283 65.108 78.1963 64.744 78.5563 64.472C78.9243 64.2 79.3883 64.064 79.9483 64.064ZM79.8763 64.82C79.4763 64.82 79.1723 64.936 78.9643 65.168C78.7563 65.392 78.6163 65.68 78.5443 66.032C78.4723 66.376 78.4363 66.728 78.4363 67.088C78.4363 67.448 78.4723 67.804 78.5443 68.156C78.6163 68.508 78.7523 68.796 78.9523 69.02C79.1603 69.252 79.4683 69.368 79.8763 69.368C80.1883 69.368 80.4363 69.3 80.6203 69.164C80.8123 69.036 80.9563 68.86 81.0523 68.636C81.1483 68.412 81.2123 68.168 81.2443 67.904C81.2843 67.632 81.3043 67.36 81.3043 67.088C81.3043 66.816 81.2843 66.548 81.2443 66.284C81.2123 66.012 81.1483 65.768 81.0523 65.552C80.9563 65.328 80.8123 65.152 80.6203 65.024C80.4363 64.888 80.1883 64.82 79.8763 64.82Z" fill="black"/>
<path d="M90.66 61.916C91.076 61.916 91.44 62.004 91.752 62.18C92.064 62.356 92.32 62.596 92.52 62.9C92.728 63.196 92.884 63.524 92.988 63.884C93.092 64.244 93.144 64.612 93.144 64.988C93.144 65.524 93.048 66.036 92.856 66.524C92.672 67.004 92.384 67.396 91.992 67.7C91.608 68.004 91.116 68.156 90.516 68.156C90.18 68.156 89.856 68.092 89.544 67.964C89.24 67.836 88.98 67.644 88.764 67.388L88.548 68.012H87.948C87.956 67.876 87.964 67.74 87.972 67.604C87.98 67.46 87.984 67.32 87.984 67.184V59.552L87.816 58.856H88.98V62.168C88.98 62.24 88.976 62.312 88.968 62.384C88.968 62.448 88.964 62.516 88.956 62.588C89.212 62.356 89.472 62.188 89.736 62.084C90.008 61.972 90.316 61.916 90.66 61.916ZM90.408 62.768C90.144 62.768 89.884 62.832 89.628 62.96C89.38 63.08 89.164 63.236 88.98 63.428V65.612C88.98 65.948 89.028 66.252 89.124 66.524C89.22 66.796 89.376 67.012 89.592 67.172C89.816 67.332 90.112 67.412 90.48 67.412C90.784 67.412 91.036 67.336 91.236 67.184C91.444 67.024 91.608 66.824 91.728 66.584C91.848 66.336 91.936 66.076 91.992 65.804C92.048 65.524 92.076 65.264 92.076 65.024C92.076 64.672 92.02 64.324 91.908 63.98C91.804 63.636 91.628 63.348 91.38 63.116C91.14 62.884 90.816 62.768 90.408 62.768ZM94.7834 69.284H96.2714V65.144L94.8194 65.564L94.6034 64.976L96.6314 64.184H97.2314V69.284H98.4314V69.992H94.7834V69.284ZM102.344 68.672H99.5963V68.192L102.344 64.196H103.304V67.964H104.204L104 68.672H103.304V69.992H102.344V68.672ZM102.38 65.348L100.616 67.964H102.344L102.38 65.348Z" fill="black"/>
<path d="M24.66 84.916C25.076 84.916 25.44 85.004 25.752 85.18C26.064 85.356 26.32 85.596 26.52 85.9C26.728 86.196 26.884 86.524 26.988 86.884C27.092 87.244 27.144 87.612 27.144 87.988C27.144 88.524 27.048 89.036 26.856 89.524C26.672 90.004 26.384 90.396 25.992 90.7C25.608 91.004 25.116 91.156 24.516 91.156C24.18 91.156 23.856 91.092 23.544 90.964C23.24 90.836 22.98 90.644 22.764 90.388L22.548 91.012H21.948C21.956 90.876 21.964 90.74 21.972 90.604C21.98 90.46 21.984 90.32 21.984 90.184V82.552L21.816 81.856H22.98V85.168C22.98 85.24 22.976 85.312 22.968 85.384C22.968 85.448 22.964 85.516 22.956 85.588C23.212 85.356 23.472 85.188 23.736 85.084C24.008 84.972 24.316 84.916 24.66 84.916ZM24.408 85.768C24.144 85.768 23.884 85.832 23.628 85.96C23.38 86.08 23.164 86.236 22.98 86.428V88.612C22.98 88.948 23.028 89.252 23.124 89.524C23.22 89.796 23.376 90.012 23.592 90.172C23.816 90.332 24.112 90.412 24.48 90.412C24.784 90.412 25.036 90.336 25.236 90.184C25.444 90.024 25.608 89.824 25.728 89.584C25.848 89.336 25.936 89.076 25.992 88.804C26.048 88.524 26.076 88.264 26.076 88.024C26.076 87.672 26.02 87.324 25.908 86.98C25.804 86.636 25.628 86.348 25.38 86.116C25.14 85.884 24.816 85.768 24.408 85.768ZM28.4474 92.512C29.4234 92.464 30.1674 92.296 30.6794 92.008C31.1994 91.72 31.4594 91.36 31.4594 90.928C31.4594 90.664 31.3874 90.472 31.2434 90.352C31.0994 90.224 30.9234 90.144 30.7154 90.112C30.5074 90.072 30.2994 90.052 30.0914 90.052C29.9794 90.052 29.8794 90.056 29.7914 90.064C29.7114 90.072 29.6714 90.076 29.6714 90.076L29.5754 89.512C29.7994 89.464 30.0394 89.396 30.2954 89.308C30.5514 89.22 30.7714 89.096 30.9554 88.936C31.1394 88.776 31.2314 88.572 31.2314 88.324C31.2314 88.14 31.1554 88 31.0034 87.904C30.8514 87.808 30.6474 87.76 30.3914 87.76C30.1434 87.76 29.8754 87.824 29.5874 87.952C29.2994 88.072 29.0634 88.208 28.8794 88.36L28.4954 87.808C28.7674 87.592 29.0994 87.416 29.4914 87.28C29.8914 87.136 30.2674 87.064 30.6194 87.064C30.8594 87.064 31.0954 87.096 31.3274 87.16C31.5674 87.224 31.7634 87.336 31.9154 87.496C32.0754 87.648 32.1554 87.864 32.1554 88.144C32.1554 88.376 32.0954 88.58 31.9754 88.756C31.8634 88.924 31.7194 89.068 31.5434 89.188C31.3674 89.3 31.1914 89.392 31.0154 89.464C31.3914 89.504 31.7194 89.644 31.9994 89.884C32.2794 90.116 32.4194 90.432 32.4194 90.832C32.4194 91.048 32.3634 91.284 32.2514 91.54C32.1474 91.796 31.9554 92.036 31.6754 92.26C31.3954 92.492 31.0034 92.688 30.4994 92.848C29.9954 93.008 29.3514 93.1 28.5674 93.124L28.4474 92.512Z" fill="black"/>
<path d="M46.66 84.916C47.076 84.916 47.44 85.004 47.752 85.18C48.064 85.356 48.32 85.596 48.52 85.9C48.728 86.196 48.884 86.524 48.988 86.884C49.092 87.244 49.144 87.612 49.144 87.988C49.144 88.524 49.048 89.036 48.856 89.524C48.672 90.004 48.384 90.396 47.992 90.7C47.608 91.004 47.116 91.156 46.516 91.156C46.18 91.156 45.856 91.092 45.544 90.964C45.24 90.836 44.98 90.644 44.764 90.388L44.548 91.012H43.948C43.956 90.876 43.964 90.74 43.972 90.604C43.98 90.46 43.984 90.32 43.984 90.184V82.552L43.816 81.856H44.98V85.168C44.98 85.24 44.976 85.312 44.968 85.384C44.968 85.448 44.964 85.516 44.956 85.588C45.212 85.356 45.472 85.188 45.736 85.084C46.008 84.972 46.316 84.916 46.66 84.916ZM46.408 85.768C46.144 85.768 45.884 85.832 45.628 85.96C45.38 86.08 45.164 86.236 44.98 86.428V88.612C44.98 88.948 45.028 89.252 45.124 89.524C45.22 89.796 45.376 90.012 45.592 90.172C45.816 90.332 46.112 90.412 46.48 90.412C46.784 90.412 47.036 90.336 47.236 90.184C47.444 90.024 47.608 89.824 47.728 89.584C47.848 89.336 47.936 89.076 47.992 88.804C48.048 88.524 48.076 88.264 48.076 88.024C48.076 87.672 48.02 87.324 47.908 86.98C47.804 86.636 47.628 86.348 47.38 86.116C47.14 85.884 46.816 85.768 46.408 85.768ZM51.0114 87.172H54.4194V87.532L52.0314 93.016H50.9274L53.3154 88.012H50.7834L51.0114 87.172Z" fill="black"/>
<path d="M68.66 84.916C69.076 84.916 69.44 85.004 69.752 85.18C70.064 85.356 70.32 85.596 70.52 85.9C70.728 86.196 70.884 86.524 70.988 86.884C71.092 87.244 71.144 87.612 71.144 87.988C71.144 88.524 71.048 89.036 70.856 89.524C70.672 90.004 70.384 90.396 69.992 90.7C69.608 91.004 69.116 91.156 68.516 91.156C68.18 91.156 67.856 91.092 67.544 90.964C67.24 90.836 66.98 90.644 66.764 90.388L66.548 91.012H65.948C65.956 90.876 65.964 90.74 65.972 90.604C65.98 90.46 65.984 90.32 65.984 90.184V82.552L65.816 81.856H66.98V85.168C66.98 85.24 66.976 85.312 66.968 85.384C66.968 85.448 66.964 85.516 66.956 85.588C67.212 85.356 67.472 85.188 67.736 85.084C68.008 84.972 68.316 84.916 68.66 84.916ZM68.408 85.768C68.144 85.768 67.884 85.832 67.628 85.96C67.38 86.08 67.164 86.236 66.98 86.428V88.612C66.98 88.948 67.028 89.252 67.124 89.524C67.22 89.796 67.376 90.012 67.592 90.172C67.816 90.332 68.112 90.412 68.48 90.412C68.784 90.412 69.036 90.336 69.236 90.184C69.444 90.024 69.608 89.824 69.728 89.584C69.848 89.336 69.936 89.076 69.992 88.804C70.048 88.524 70.076 88.264 70.076 88.024C70.076 87.672 70.02 87.324 69.908 86.98C69.804 86.636 69.628 86.348 69.38 86.116C69.14 85.884 68.816 85.768 68.408 85.768ZM72.7834 92.284H74.2714V88.144L72.8194 88.564L72.6034 87.976L74.6314 87.184H75.2314V92.284H76.4314V92.992H72.7834V92.284ZM78.2443 92.284H79.7323V88.144L78.2803 88.564L78.0643 87.976L80.0923 87.184H80.6923V92.284H81.8923V92.992H78.2443V92.284Z" fill="black"/>
<path d="M90.66 84.916C91.076 84.916 91.44 85.004 91.752 85.18C92.064 85.356 92.32 85.596 92.52 85.9C92.728 86.196 92.884 86.524 92.988 86.884C93.092 87.244 93.144 87.612 93.144 87.988C93.144 88.524 93.048 89.036 92.856 89.524C92.672 90.004 92.384 90.396 91.992 90.7C91.608 91.004 91.116 91.156 90.516 91.156C90.18 91.156 89.856 91.092 89.544 90.964C89.24 90.836 88.98 90.644 88.764 90.388L88.548 91.012H87.948C87.956 90.876 87.964 90.74 87.972 90.604C87.98 90.46 87.984 90.32 87.984 90.184V82.552L87.816 81.856H88.98V85.168C88.98 85.24 88.976 85.312 88.968 85.384C88.968 85.448 88.964 85.516 88.956 85.588C89.212 85.356 89.472 85.188 89.736 85.084C90.008 84.972 90.316 84.916 90.66 84.916ZM90.408 85.768C90.144 85.768 89.884 85.832 89.628 85.96C89.38 86.08 89.164 86.236 88.98 86.428V88.612C88.98 88.948 89.028 89.252 89.124 89.524C89.22 89.796 89.376 90.012 89.592 90.172C89.816 90.332 90.112 90.412 90.48 90.412C90.784 90.412 91.036 90.336 91.236 90.184C91.444 90.024 91.608 89.824 91.728 89.584C91.848 89.336 91.936 89.076 91.992 88.804C92.048 88.524 92.076 88.264 92.076 88.024C92.076 87.672 92.02 87.324 91.908 86.98C91.804 86.636 91.628 86.348 91.38 86.116C91.14 85.884 90.816 85.768 90.408 85.768ZM94.7834 92.284H96.2714V88.144L94.8194 88.564L94.6034 87.976L96.6314 87.184H97.2314V92.284H98.4314V92.992H94.7834V92.284ZM100.916 87.172H103.892L103.688 88.012H101.468L101.216 88.888C101.784 89.016 102.228 89.188 102.548 89.404C102.868 89.62 103.096 89.868 103.232 90.148C103.368 90.42 103.436 90.72 103.436 91.048C103.436 91.472 103.32 91.836 103.088 92.14C102.856 92.452 102.54 92.688 102.14 92.848C101.74 93.016 101.292 93.1 100.796 93.1C100.652 93.1 100.504 93.092 100.352 93.076C100.208 93.068 100.06 93.048 99.9083 93.016L100.04 92.368C100.168 92.384 100.292 92.396 100.412 92.404C100.532 92.412 100.648 92.416 100.76 92.416C101.288 92.416 101.704 92.308 102.008 92.092C102.32 91.884 102.476 91.548 102.476 91.084C102.476 90.788 102.412 90.536 102.284 90.328C102.156 90.12 101.936 89.944 101.624 89.8C101.32 89.648 100.892 89.52 100.34 89.416L100.916 87.172Z" fill="black"/>
<path d="M178 10H172V98H178" stroke="black" stroke-width="2"/>
<path d="M267 10H273V98H267" stroke="black" stroke-width="2"/>
<path d="M186.66 15.916C187.076 15.916 187.44 16.004 187.752 16.18C188.064 16.356 188.32 16.596 188.52 16.9C188.728 17.196 188.884 17.524 188.988 17.884C189.092 18.244 189.144 18.612 189.144 18.988C189.144 19.524 189.048 20.036 188.856 20.524C188.672 21.004 188.384 21.396 187.992 21.7C187.608 22.004 187.116 22.156 186.516 22.156C186.18 22.156 185.856 22.092 185.544 21.964C185.24 21.836 184.98 21.644 184.764 21.388L184.548 22.012H183.948C183.956 21.876 183.964 21.74 183.972 21.604C183.98 21.46 183.984 21.32 183.984 21.184V13.552L183.816 12.856H184.98V16.168C184.98 16.24 184.976 16.312 184.968 16.384C184.968 16.448 184.964 16.516 184.956 16.588C185.212 16.356 185.472 16.188 185.736 16.084C186.008 15.972 186.316 15.916 186.66 15.916ZM186.408 16.768C186.144 16.768 185.884 16.832 185.628 16.96C185.38 17.08 185.164 17.236 184.98 17.428V19.612C184.98 19.948 185.028 20.252 185.124 20.524C185.22 20.796 185.376 21.012 185.592 21.172C185.816 21.332 186.112 21.412 186.48 21.412C186.784 21.412 187.036 21.336 187.236 21.184C187.444 21.024 187.608 20.824 187.728 20.584C187.848 20.336 187.936 20.076 187.992 19.804C188.048 19.524 188.076 19.264 188.076 19.024C188.076 18.672 188.02 18.324 187.908 17.98C187.804 17.636 187.628 17.348 187.38 17.116C187.14 16.884 186.816 16.768 186.408 16.768ZM192.487 18.064C193.047 18.064 193.495 18.2 193.831 18.472C194.175 18.744 194.423 19.112 194.575 19.576C194.727 20.032 194.803 20.536 194.803 21.088C194.803 21.64 194.715 22.144 194.539 22.6C194.363 23.064 194.091 23.432 193.723 23.704C193.363 23.984 192.903 24.124 192.343 24.124C191.791 24.124 191.343 23.984 190.999 23.704C190.663 23.432 190.415 23.064 190.255 22.6C190.103 22.144 190.027 21.64 190.027 21.088C190.027 20.528 190.115 20.02 190.291 19.564C190.467 19.108 190.735 18.744 191.095 18.472C191.463 18.2 191.927 18.064 192.487 18.064ZM192.415 18.82C192.015 18.82 191.711 18.936 191.503 19.168C191.295 19.392 191.155 19.68 191.083 20.032C191.011 20.376 190.975 20.728 190.975 21.088C190.975 21.448 191.011 21.804 191.083 22.156C191.155 22.508 191.291 22.796 191.491 23.02C191.699 23.252 192.007 23.368 192.415 23.368C192.727 23.368 192.975 23.3 193.159 23.164C193.351 23.036 193.495 22.86 193.591 22.636C193.687 22.412 193.751 22.168 193.783 21.904C193.823 21.632 193.843 21.36 193.843 21.088C193.843 20.816 193.823 20.548 193.783 20.284C193.751 20.012 193.687 19.768 193.591 19.552C193.495 19.328 193.351 19.152 193.159 19.024C192.975 18.888 192.727 18.82 192.415 18.82Z" fill="black"/>
<path d="M208.66 15.916C209.076 15.916 209.44 16.004 209.752 16.18C210.064 16.356 210.32 16.596 210.52 16.9C210.728 17.196 210.884 17.524 210.988 17.884C211.092 18.244 211.144 18.612 211.144 18.988C211.144 19.524 211.048 20.036 210.856 20.524C210.672 21.004 210.384 21.396 209.992 21.7C209.608 22.004 209.116 22.156 208.516 22.156C208.18 22.156 207.856 22.092 207.544 21.964C207.24 21.836 206.98 21.644 206.764 21.388L206.548 22.012H205.948C205.956 21.876 205.964 21.74 205.972 21.604C205.98 21.46 205.984 21.32 205.984 21.184V13.552L205.816 12.856H206.98V16.168C206.98 16.24 206.976 16.312 206.968 16.384C206.968 16.448 206.964 16.516 206.956 16.588C207.212 16.356 207.472 16.188 207.736 16.084C208.008 15.972 208.316 15.916 208.66 15.916ZM208.408 16.768C208.144 16.768 207.884 16.832 207.628 16.96C207.38 17.08 207.164 17.236 206.98 17.428V19.612C206.98 19.948 207.028 20.252 207.124 20.524C207.22 20.796 207.376 21.012 207.592 21.172C207.816 21.332 208.112 21.412 208.48 21.412C208.784 21.412 209.036 21.336 209.236 21.184C209.444 21.024 209.608 20.824 209.728 20.584C209.848 20.336 209.936 20.076 209.992 19.804C210.048 19.524 210.076 19.264 210.076 19.024C210.076 18.672 210.02 18.324 209.908 17.98C209.804 17.636 209.628 17.348 209.38 17.116C209.14 16.884 208.816 16.768 208.408 16.768ZM214.883 22.672H212.135V22.192L214.883 18.196H215.843V21.964H216.743L216.539 22.672H215.843V23.992H214.883V22.672ZM214.919 19.348L213.155 21.964H214.883L214.919 19.348Z" fill="black"/>
<path d="M230.66 15.916C231.076 15.916 231.44 16.004 231.752 16.18C232.064 16.356 232.32 16.596 232.52 16.9C232.728 17.196 232.884 17.524 232.988 17.884C233.092 18.244 233.144 18.612 233.144 18.988C233.144 19.524 233.048 20.036 232.856 20.524C232.672 21.004 232.384 21.396 231.992 21.7C231.608 22.004 231.116 22.156 230.516 22.156C230.18 22.156 229.856 22.092 229.544 21.964C229.24 21.836 228.98 21.644 228.764 21.388L228.548 22.012H227.948C227.956 21.876 227.964 21.74 227.972 21.604C227.98 21.46 227.984 21.32 227.984 21.184V13.552L227.816 12.856H228.98V16.168C228.98 16.24 228.976 16.312 228.968 16.384C228.968 16.448 228.964 16.516 228.956 16.588C229.212 16.356 229.472 16.188 229.736 16.084C230.008 15.972 230.316 15.916 230.66 15.916ZM230.408 16.768C230.144 16.768 229.884 16.832 229.628 16.96C229.38 17.08 229.164 17.236 228.98 17.428V19.612C228.98 19.948 229.028 20.252 229.124 20.524C229.22 20.796 229.376 21.012 229.592 21.172C229.816 21.332 230.112 21.412 230.48 21.412C230.784 21.412 231.036 21.336 231.236 21.184C231.444 21.024 231.608 20.824 231.728 20.584C231.848 20.336 231.936 20.076 231.992 19.804C232.048 19.524 232.076 19.264 232.076 19.024C232.076 18.672 232.02 18.324 231.908 17.98C231.804 17.636 231.628 17.348 231.38 17.116C231.14 16.884 230.816 16.768 230.408 16.768ZM238.215 19.468C238.215 19.7 238.155 19.948 238.035 20.212C237.923 20.468 237.711 20.692 237.399 20.884C237.679 21.036 237.919 21.228 238.119 21.46C238.319 21.692 238.419 22.008 238.419 22.408C238.419 22.784 238.319 23.096 238.119 23.344C237.919 23.6 237.663 23.788 237.351 23.908C237.039 24.036 236.711 24.1 236.367 24.1C236.039 24.1 235.727 24.04 235.431 23.92C235.135 23.808 234.891 23.636 234.699 23.404C234.515 23.18 234.423 22.896 234.423 22.552C234.423 22.248 234.499 21.964 234.651 21.7C234.811 21.428 235.055 21.188 235.383 20.98C235.159 20.836 234.971 20.66 234.819 20.452C234.675 20.236 234.603 19.968 234.603 19.648C234.603 19.296 234.699 19.004 234.891 18.772C235.083 18.54 235.323 18.364 235.611 18.244C235.907 18.124 236.211 18.064 236.523 18.064C236.811 18.064 237.083 18.116 237.339 18.22C237.603 18.324 237.815 18.48 237.975 18.688C238.135 18.888 238.215 19.148 238.215 19.468ZM235.539 19.564C235.539 19.828 235.655 20.032 235.887 20.176C236.119 20.312 236.387 20.444 236.691 20.572C236.971 20.468 237.167 20.316 237.279 20.116C237.399 19.908 237.459 19.704 237.459 19.504C237.459 19.248 237.359 19.056 237.159 18.928C236.967 18.8 236.751 18.736 236.511 18.736C236.271 18.736 236.047 18.804 235.839 18.94C235.639 19.076 235.539 19.284 235.539 19.564ZM235.239 22.528C235.239 22.816 235.355 23.032 235.587 23.176C235.819 23.328 236.071 23.404 236.343 23.404C236.623 23.404 236.879 23.328 237.111 23.176C237.343 23.024 237.459 22.796 237.459 22.492C237.459 22.292 237.387 22.124 237.243 21.988C237.107 21.852 236.927 21.736 236.703 21.64C236.479 21.536 236.247 21.428 236.007 21.316C235.671 21.5 235.459 21.7 235.371 21.916C235.283 22.124 235.239 22.328 235.239 22.528Z" fill="black"/>
<path d="M252.66 15.916C253.076 15.916 253.44 16.004 253.752 16.18C254.064 16.356 254.32 16.596 254.52 16.9C254.728 17.196 254.884 17.524 254.988 17.884C255.092 18.244 255.144 18.612 255.144 18.988C255.144 19.524 255.048 20.036 254.856 20.524C254.672 21.004 254.384 21.396 253.992 21.7C253.608 22.004 253.116 22.156 252.516 22.156C252.18 22.156 251.856 22.092 251.544 21.964C251.24 21.836 250.98 21.644 250.764 21.388L250.548 22.012H249.948C249.956 21.876 249.964 21.74 249.972 21.604C249.98 21.46 249.984 21.32 249.984 21.184V13.552L249.816 12.856H250.98V16.168C250.98 16.24 250.976 16.312 250.968 16.384C250.968 16.448 250.964 16.516 250.956 16.588C251.212 16.356 251.472 16.188 251.736 16.084C252.008 15.972 252.316 15.916 252.66 15.916ZM252.408 16.768C252.144 16.768 251.884 16.832 251.628 16.96C251.38 17.08 251.164 17.236 250.98 17.428V19.612C250.98 19.948 251.028 20.252 251.124 20.524C251.22 20.796 251.376 21.012 251.592 21.172C251.816 21.332 252.112 21.412 252.48 21.412C252.784 21.412 253.036 21.336 253.236 21.184C253.444 21.024 253.608 20.824 253.728 20.584C253.848 20.336 253.936 20.076 253.992 19.804C254.048 19.524 254.076 19.264 254.076 19.024C254.076 18.672 254.02 18.324 253.908 17.98C253.804 17.636 253.628 17.348 253.38 17.116C253.14 16.884 252.816 16.768 252.408 16.768ZM256.783 23.284H258.271V19.144L256.819 19.564L256.603 18.976L258.631 18.184H259.231V23.284H260.431V23.992H256.783V23.284ZM261.848 23.536C261.848 23.536 261.92 23.476 262.064 23.356C262.208 23.236 262.396 23.072 262.628 22.864C262.86 22.664 263.104 22.432 263.36 22.168C263.616 21.912 263.86 21.64 264.092 21.352C264.324 21.056 264.512 20.764 264.656 20.476C264.8 20.188 264.872 19.916 264.872 19.66C264.872 19.404 264.788 19.192 264.62 19.024C264.46 18.848 264.228 18.76 263.924 18.76C263.652 18.76 263.4 18.812 263.168 18.916C262.944 19.02 262.76 19.128 262.616 19.24C262.48 19.344 262.412 19.396 262.412 19.396L262.028 18.832C262.028 18.832 262.076 18.796 262.172 18.724C262.268 18.644 262.404 18.552 262.58 18.448C262.764 18.344 262.984 18.256 263.24 18.184C263.496 18.104 263.788 18.064 264.116 18.064C264.556 18.064 264.904 18.14 265.16 18.292C265.416 18.444 265.6 18.64 265.712 18.88C265.824 19.112 265.88 19.348 265.88 19.588C265.88 19.948 265.788 20.304 265.604 20.656C265.428 21 265.208 21.324 264.944 21.628C264.68 21.932 264.412 22.2 264.14 22.432C263.876 22.664 263.652 22.844 263.468 22.972C263.292 23.108 263.204 23.176 263.204 23.176H266.048L265.82 23.992H261.848V23.536Z" fill="black"/>
<path d="M208.66 38.916C209.076 38.916 209.44 39.004 209.752 39.18C210.064 39.356 210.32 39.596 210.52 39.9C210.728 40.196 210.884 40.524 210.988 40.884C211.092 41.244 211.144 41.612 211.144 41.988C211.144 42.524 211.048 43.036 210.856 43.524C210.672 44.004 210.384 44.396 209.992 44.7C209.608 45.004 209.116 45.156 208.516 45.156C208.18 45.156 207.856 45.092 207.544 44.964C207.24 44.836 206.98 44.644 206.764 44.388L206.548 45.012H205.948C205.956 44.876 205.964 44.74 205.972 44.604C205.98 44.46 205.984 44.32 205.984 44.184V36.552L205.816 35.856H206.98V39.168C206.98 39.24 206.976 39.312 206.968 39.384C206.968 39.448 206.964 39.516 206.956 39.588C207.212 39.356 207.472 39.188 207.736 39.084C208.008 38.972 208.316 38.916 208.66 38.916ZM208.408 39.768C208.144 39.768 207.884 39.832 207.628 39.96C207.38 40.08 207.164 40.236 206.98 40.428V42.612C206.98 42.948 207.028 43.252 207.124 43.524C207.22 43.796 207.376 44.012 207.592 44.172C207.816 44.332 208.112 44.412 208.48 44.412C208.784 44.412 209.036 44.336 209.236 44.184C209.444 44.024 209.608 43.824 209.728 43.584C209.848 43.336 209.936 43.076 209.992 42.804C210.048 42.524 210.076 42.264 210.076 42.024C210.076 41.672 210.02 41.324 209.908 40.98C209.804 40.636 209.628 40.348 209.38 40.116C209.14 39.884 208.816 39.768 208.408 39.768ZM212.783 46.284H214.271V42.144L212.819 42.564L212.603 41.976L214.631 41.184H215.231V46.284H216.431V46.992H212.783V46.284Z" fill="black"/>
<path d="M230.66 38.916C231.076 38.916 231.44 39.004 231.752 39.18C232.064 39.356 232.32 39.596 232.52 39.9C232.728 40.196 232.884 40.524 232.988 40.884C233.092 41.244 233.144 41.612 233.144 41.988C233.144 42.524 233.048 43.036 232.856 43.524C232.672 44.004 232.384 44.396 231.992 44.7C231.608 45.004 231.116 45.156 230.516 45.156C230.18 45.156 229.856 45.092 229.544 44.964C229.24 44.836 228.98 44.644 228.764 44.388L228.548 45.012H227.948C227.956 44.876 227.964 44.74 227.972 44.604C227.98 44.46 227.984 44.32 227.984 44.184V36.552L227.816 35.856H228.98V39.168C228.98 39.24 228.976 39.312 228.968 39.384C228.968 39.448 228.964 39.516 228.956 39.588C229.212 39.356 229.472 39.188 229.736 39.084C230.008 38.972 230.316 38.916 230.66 38.916ZM230.408 39.768C230.144 39.768 229.884 39.832 229.628 39.96C229.38 40.08 229.164 40.236 228.98 40.428V42.612C228.98 42.948 229.028 43.252 229.124 43.524C229.22 43.796 229.376 44.012 229.592 44.172C229.816 44.332 230.112 44.412 230.48 44.412C230.784 44.412 231.036 44.336 231.236 44.184C231.444 44.024 231.608 43.824 231.728 43.584C231.848 43.336 231.936 43.076 231.992 42.804C232.048 42.524 232.076 42.264 232.076 42.024C232.076 41.672 232.02 41.324 231.908 40.98C231.804 40.636 231.628 40.348 231.38 40.116C231.14 39.884 230.816 39.768 230.408 39.768ZM235.455 41.172H238.431L238.227 42.012H236.007L235.755 42.888C236.323 43.016 236.767 43.188 237.087 43.404C237.407 43.62 237.635 43.868 237.771 44.148C237.907 44.42 237.975 44.72 237.975 45.048C237.975 45.472 237.859 45.836 237.627 46.14C237.395 46.452 237.079 46.688 236.679 46.848C236.279 47.016 235.831 47.1 235.335 47.1C235.191 47.1 235.043 47.092 234.891 47.076C234.747 47.068 234.599 47.048 234.447 47.016L234.579 46.368C234.707 46.384 234.831 46.396 234.951 46.404C235.071 46.412 235.187 46.416 235.299 46.416C235.827 46.416 236.243 46.308 236.547 46.092C236.859 45.884 237.015 45.548 237.015 45.084C237.015 44.788 236.951 44.536 236.823 44.328C236.695 44.12 236.475 43.944 236.163 43.8C235.859 43.648 235.431 43.52 234.879 43.416L235.455 41.172Z" fill="black"/>
<path d="M254.66 38.916C255.076 38.916 255.44 39.004 255.752 39.18C256.064 39.356 256.32 39.596 256.52 39.9C256.728 40.196 256.884 40.524 256.988 40.884C257.092 41.244 257.144 41.612 257.144 41.988C257.144 42.524 257.048 43.036 256.856 43.524C256.672 44.004 256.384 44.396 255.992 44.7C255.608 45.004 255.116 45.156 254.516 45.156C254.18 45.156 253.856 45.092 253.544 44.964C253.24 44.836 252.98 44.644 252.764 44.388L252.548 45.012H251.948C251.956 44.876 251.964 44.74 251.972 44.604C251.98 44.46 251.984 44.32 251.984 44.184V36.552L251.816 35.856H252.98V39.168C252.98 39.24 252.976 39.312 252.968 39.384C252.968 39.448 252.964 39.516 252.956 39.588C253.212 39.356 253.472 39.188 253.736 39.084C254.008 38.972 254.316 38.916 254.66 38.916ZM254.408 39.768C254.144 39.768 253.884 39.832 253.628 39.96C253.38 40.08 253.164 40.236 252.98 40.428V42.612C252.98 42.948 253.028 43.252 253.124 43.524C253.22 43.796 253.376 44.012 253.592 44.172C253.816 44.332 254.112 44.412 254.48 44.412C254.784 44.412 255.036 44.336 255.236 44.184C255.444 44.024 255.608 43.824 255.728 43.584C255.848 43.336 255.936 43.076 255.992 42.804C256.048 42.524 256.076 42.264 256.076 42.024C256.076 41.672 256.02 41.324 255.908 40.98C255.804 40.636 255.628 40.348 255.38 40.116C255.14 39.884 254.816 39.768 254.408 39.768ZM259.119 47.112L258.891 46.476C259.619 46.284 260.167 46.016 260.535 45.672C260.911 45.328 261.171 44.952 261.315 44.544C261.131 44.648 260.947 44.728 260.763 44.784C260.579 44.832 260.395 44.856 260.211 44.856C259.907 44.856 259.623 44.788 259.359 44.652C259.095 44.508 258.883 44.304 258.723 44.04C258.563 43.776 258.483 43.468 258.483 43.116C258.483 42.78 258.563 42.456 258.723 42.144C258.883 41.832 259.115 41.576 259.419 41.376C259.731 41.168 260.107 41.064 260.547 41.064C260.867 41.064 261.171 41.144 261.459 41.304C261.755 41.456 261.995 41.692 262.179 42.012C262.371 42.324 262.467 42.724 262.467 43.212C262.467 43.9 262.319 44.516 262.023 45.06C261.727 45.604 261.327 46.052 260.823 46.404C260.319 46.756 259.751 46.992 259.119 47.112ZM259.443 42.972C259.443 43.348 259.539 43.628 259.731 43.812C259.923 43.996 260.159 44.088 260.439 44.088C260.775 44.088 261.123 43.972 261.483 43.74C261.499 43.588 261.507 43.424 261.507 43.248C261.507 42.776 261.419 42.408 261.243 42.144C261.075 41.88 260.819 41.748 260.475 41.748C260.131 41.748 259.871 41.872 259.695 42.12C259.527 42.36 259.443 42.644 259.443 42.972Z" fill="black"/>
<path d="M184.66 38.916C185.076 38.916 185.44 39.004 185.752 39.18C186.064 39.356 186.32 39.596 186.52 39.9C186.728 40.196 186.884 40.524 186.988 40.884C187.092 41.244 187.144 41.612 187.144 41.988C187.144 42.524 187.048 43.036 186.856 43.524C186.672 44.004 186.384 44.396 185.992 44.7C185.608 45.004 185.116 45.156 184.516 45.156C184.18 45.156 183.856 45.092 183.544 44.964C183.24 44.836 182.98 44.644 182.764 44.388L182.548 45.012H181.948C181.956 44.876 181.964 44.74 181.972 44.604C181.98 44.46 181.984 44.32 181.984 44.184V36.552L181.816 35.856H182.98V39.168C182.98 39.24 182.976 39.312 182.968 39.384C182.968 39.448 182.964 39.516 182.956 39.588C183.212 39.356 183.472 39.188 183.736 39.084C184.008 38.972 184.316 38.916 184.66 38.916ZM184.408 39.768C184.144 39.768 183.884 39.832 183.628 39.96C183.38 40.08 183.164 40.236 182.98 40.428V42.612C182.98 42.948 183.028 43.252 183.124 43.524C183.22 43.796 183.376 44.012 183.592 44.172C183.816 44.332 184.112 44.412 184.48 44.412C184.784 44.412 185.036 44.336 185.236 44.184C185.444 44.024 185.608 43.824 185.728 43.584C185.848 43.336 185.936 43.076 185.992 42.804C186.048 42.524 186.076 42.264 186.076 42.024C186.076 41.672 186.02 41.324 185.908 40.98C185.804 40.636 185.628 40.348 185.38 40.116C185.14 39.884 184.816 39.768 184.408 39.768ZM188.783 46.284H190.271V42.144L188.819 42.564L188.603 41.976L190.631 41.184H191.231V46.284H192.431V46.992H188.783V46.284ZM193.908 46.512C194.884 46.464 195.628 46.296 196.14 46.008C196.66 45.72 196.92 45.36 196.92 44.928C196.92 44.664 196.848 44.472 196.704 44.352C196.56 44.224 196.384 44.144 196.176 44.112C195.968 44.072 195.76 44.052 195.552 44.052C195.44 44.052 195.34 44.056 195.252 44.064C195.172 44.072 195.132 44.076 195.132 44.076L195.036 43.512C195.26 43.464 195.5 43.396 195.756 43.308C196.012 43.22 196.232 43.096 196.416 42.936C196.6 42.776 196.692 42.572 196.692 42.324C196.692 42.14 196.616 42 196.464 41.904C196.312 41.808 196.108 41.76 195.852 41.76C195.604 41.76 195.336 41.824 195.048 41.952C194.76 42.072 194.524 42.208 194.34 42.36L193.956 41.808C194.228 41.592 194.56 41.416 194.952 41.28C195.352 41.136 195.728 41.064 196.08 41.064C196.32 41.064 196.556 41.096 196.788 41.16C197.028 41.224 197.224 41.336 197.376 41.496C197.536 41.648 197.616 41.864 197.616 42.144C197.616 42.376 197.556 42.58 197.436 42.756C197.324 42.924 197.18 43.068 197.004 43.188C196.828 43.3 196.652 43.392 196.476 43.464C196.852 43.504 197.18 43.644 197.46 43.884C197.74 44.116 197.88 44.432 197.88 44.832C197.88 45.048 197.824 45.284 197.712 45.54C197.608 45.796 197.416 46.036 197.136 46.26C196.856 46.492 196.464 46.688 195.96 46.848C195.456 47.008 194.812 47.1 194.028 47.124L193.908 46.512Z" fill="black"/>
<path d="M231.66 61.916C232.076 61.916 232.44 62.004 232.752 62.18C233.064 62.356 233.32 62.596 233.52 62.9C233.728 63.196 233.884 63.524 233.988 63.884C234.092 64.244 234.144 64.612 234.144 64.988C234.144 65.524 234.048 66.036 233.856 66.524C233.672 67.004 233.384 67.396 232.992 67.7C232.608 68.004 232.116 68.156 231.516 68.156C231.18 68.156 230.856 68.092 230.544 67.964C230.24 67.836 229.98 67.644 229.764 67.388L229.548 68.012H228.948C228.956 67.876 228.964 67.74 228.972 67.604C228.98 67.46 228.984 67.32 228.984 67.184V59.552L228.816 58.856H229.98V62.168C229.98 62.24 229.976 62.312 229.968 62.384C229.968 62.448 229.964 62.516 229.956 62.588C230.212 62.356 230.472 62.188 230.736 62.084C231.008 61.972 231.316 61.916 231.66 61.916ZM231.408 62.768C231.144 62.768 230.884 62.832 230.628 62.96C230.38 63.08 230.164 63.236 229.98 63.428V65.612C229.98 65.948 230.028 66.252 230.124 66.524C230.22 66.796 230.376 67.012 230.592 67.172C230.816 67.332 231.112 67.412 231.48 67.412C231.784 67.412 232.036 67.336 232.236 67.184C232.444 67.024 232.608 66.824 232.728 66.584C232.848 66.336 232.936 66.076 232.992 65.804C233.048 65.524 233.076 65.264 233.076 65.024C233.076 64.672 233.02 64.324 232.908 63.98C232.804 63.636 232.628 63.348 232.38 63.116C232.14 62.884 231.816 62.768 231.408 62.768ZM235.387 69.536C235.387 69.536 235.459 69.476 235.603 69.356C235.747 69.236 235.935 69.072 236.167 68.864C236.399 68.664 236.643 68.432 236.899 68.168C237.155 67.912 237.399 67.64 237.631 67.352C237.863 67.056 238.051 66.764 238.195 66.476C238.339 66.188 238.411 65.916 238.411 65.66C238.411 65.404 238.327 65.192 238.159 65.024C237.999 64.848 237.767 64.76 237.463 64.76C237.191 64.76 236.939 64.812 236.707 64.916C236.483 65.02 236.299 65.128 236.155 65.24C236.019 65.344 235.951 65.396 235.951 65.396L235.567 64.832C235.567 64.832 235.615 64.796 235.711 64.724C235.807 64.644 235.943 64.552 236.119 64.448C236.303 64.344 236.523 64.256 236.779 64.184C237.035 64.104 237.327 64.064 237.655 64.064C238.095 64.064 238.443 64.14 238.699 64.292C238.955 64.444 239.139 64.64 239.251 64.88C239.363 65.112 239.419 65.348 239.419 65.588C239.419 65.948 239.327 66.304 239.143 66.656C238.967 67 238.747 67.324 238.483 67.628C238.219 67.932 237.951 68.2 237.679 68.432C237.415 68.664 237.191 68.844 237.007 68.972C236.831 69.108 236.743 69.176 236.743 69.176H239.587L239.359 69.992H235.387V69.536Z" fill="black"/>
<path d="M254.66 61.916C255.076 61.916 255.44 62.004 255.752 62.18C256.064 62.356 256.32 62.596 256.52 62.9C256.728 63.196 256.884 63.524 256.988 63.884C257.092 64.244 257.144 64.612 257.144 64.988C257.144 65.524 257.048 66.036 256.856 66.524C256.672 67.004 256.384 67.396 255.992 67.7C255.608 68.004 255.116 68.156 254.516 68.156C254.18 68.156 253.856 68.092 253.544 67.964C253.24 67.836 252.98 67.644 252.764 67.388L252.548 68.012H251.948C251.956 67.876 251.964 67.74 251.972 67.604C251.98 67.46 251.984 67.32 251.984 67.184V59.552L251.816 58.856H252.98V62.168C252.98 62.24 252.976 62.312 252.968 62.384C252.968 62.448 252.964 62.516 252.956 62.588C253.212 62.356 253.472 62.188 253.736 62.084C254.008 61.972 254.316 61.916 254.66 61.916ZM254.408 62.768C254.144 62.768 253.884 62.832 253.628 62.96C253.38 63.08 253.164 63.236 252.98 63.428V65.612C252.98 65.948 253.028 66.252 253.124 66.524C253.22 66.796 253.376 67.012 253.592 67.172C253.816 67.332 254.112 67.412 254.48 67.412C254.784 67.412 255.036 67.336 255.236 67.184C255.444 67.024 255.608 66.824 255.728 66.584C255.848 66.336 255.936 66.076 255.992 65.804C256.048 65.524 256.076 65.264 256.076 65.024C256.076 64.672 256.02 64.324 255.908 63.98C255.804 63.636 255.628 63.348 255.38 63.116C255.14 62.884 254.816 62.768 254.408 62.768ZM261.723 63.812L261.951 64.448C261.263 64.72 260.731 65.044 260.355 65.42C259.987 65.796 259.723 66.192 259.563 66.608C259.899 66.408 260.255 66.308 260.631 66.308C260.943 66.308 261.227 66.38 261.483 66.524C261.747 66.66 261.959 66.86 262.119 67.124C262.279 67.38 262.359 67.688 262.359 68.048C262.359 68.376 262.279 68.696 262.119 69.008C261.959 69.328 261.723 69.588 261.411 69.788C261.107 69.996 260.735 70.1 260.295 70.1C259.975 70.1 259.667 70.02 259.371 69.86C259.083 69.708 258.843 69.472 258.651 69.152C258.467 68.84 258.375 68.44 258.375 67.952C258.375 67.264 258.531 66.644 258.843 66.092C259.155 65.54 259.563 65.072 260.067 64.688C260.579 64.296 261.131 64.004 261.723 63.812ZM259.335 67.916C259.335 68.38 259.419 68.744 259.587 69.008C259.763 69.28 260.023 69.416 260.367 69.416C260.719 69.416 260.979 69.292 261.147 69.044C261.315 68.804 261.399 68.52 261.399 68.192C261.399 67.816 261.303 67.536 261.111 67.352C260.919 67.168 260.683 67.076 260.403 67.076C260.067 67.076 259.719 67.192 259.359 67.424C259.343 67.584 259.335 67.748 259.335 67.916Z" fill="black"/>
<path d="M184.66 61.916C185.076 61.916 185.44 62.004 185.752 62.18C186.064 62.356 186.32 62.596 186.52 62.9C186.728 63.196 186.884 63.524 186.988 63.884C187.092 64.244 187.144 64.612 187.144 64.988C187.144 65.524 187.048 66.036 186.856 66.524C186.672 67.004 186.384 67.396 185.992 67.7C185.608 68.004 185.116 68.156 184.516 68.156C184.18 68.156 183.856 68.092 183.544 67.964C183.24 67.836 182.98 67.644 182.764 67.388L182.548 68.012H181.948C181.956 67.876 181.964 67.74 181.972 67.604C181.98 67.46 181.984 67.32 181.984 67.184V59.552L181.816 58.856H182.98V62.168C182.98 62.24 182.976 62.312 182.968 62.384C182.968 62.448 182.964 62.516 182.956 62.588C183.212 62.356 183.472 62.188 183.736 62.084C184.008 61.972 184.316 61.916 184.66 61.916ZM184.408 62.768C184.144 62.768 183.884 62.832 183.628 62.96C183.38 63.08 183.164 63.236 182.98 63.428V65.612C182.98 65.948 183.028 66.252 183.124 66.524C183.22 66.796 183.376 67.012 183.592 67.172C183.816 67.332 184.112 67.412 184.48 67.412C184.784 67.412 185.036 67.336 185.236 67.184C185.444 67.024 185.608 66.824 185.728 66.584C185.848 66.336 185.936 66.076 185.992 65.804C186.048 65.524 186.076 65.264 186.076 65.024C186.076 64.672 186.02 64.324 185.908 63.98C185.804 63.636 185.628 63.348 185.38 63.116C185.14 62.884 184.816 62.768 184.408 62.768ZM188.783 69.284H190.271V65.144L188.819 65.564L188.603 64.976L190.631 64.184H191.231V69.284H192.431V69.992H188.783V69.284ZM195.948 64.064C196.508 64.064 196.956 64.2 197.292 64.472C197.636 64.744 197.884 65.112 198.036 65.576C198.188 66.032 198.264 66.536 198.264 67.088C198.264 67.64 198.176 68.144 198 68.6C197.824 69.064 197.552 69.432 197.184 69.704C196.824 69.984 196.364 70.124 195.804 70.124C195.252 70.124 194.804 69.984 194.46 69.704C194.124 69.432 193.876 69.064 193.716 68.6C193.564 68.144 193.488 67.64 193.488 67.088C193.488 66.528 193.576 66.02 193.752 65.564C193.928 65.108 194.196 64.744 194.556 64.472C194.924 64.2 195.388 64.064 195.948 64.064ZM195.876 64.82C195.476 64.82 195.172 64.936 194.964 65.168C194.756 65.392 194.616 65.68 194.544 66.032C194.472 66.376 194.436 66.728 194.436 67.088C194.436 67.448 194.472 67.804 194.544 68.156C194.616 68.508 194.752 68.796 194.952 69.02C195.16 69.252 195.468 69.368 195.876 69.368C196.188 69.368 196.436 69.3 196.62 69.164C196.812 69.036 196.956 68.86 197.052 68.636C197.148 68.412 197.212 68.168 197.244 67.904C197.284 67.632 197.304 67.36 197.304 67.088C197.304 66.816 197.284 66.548 197.244 66.284C197.212 66.012 197.148 65.768 197.052 65.552C196.956 65.328 196.812 65.152 196.62 65.024C196.436 64.888 196.188 64.82 195.876 64.82Z" fill="black"/>
<path d="M206.66 61.916C207.076 61.916 207.44 62.004 207.752 62.18C208.064 62.356 208.32 62.596 208.52 62.9C208.728 63.196 208.884 63.524 208.988 63.884C209.092 64.244 209.144 64.612 209.144 64.988C209.144 65.524 209.048 66.036 208.856 66.524C208.672 67.004 208.384 67.396 207.992 67.7C207.608 68.004 207.116 68.156 206.516 68.156C206.18 68.156 205.856 68.092 205.544 67.964C205.24 67.836 204.98 67.644 204.764 67.388L204.548 68.012H203.948C203.956 67.876 203.964 67.74 203.972 67.604C203.98 67.46 203.984 67.32 203.984 67.184V59.552L203.816 58.856H204.98V62.168C204.98 62.24 204.976 62.312 204.968 62.384C204.968 62.448 204.964 62.516 204.956 62.588C205.212 62.356 205.472 62.188 205.736 62.084C206.008 61.972 206.316 61.916 206.66 61.916ZM206.408 62.768C206.144 62.768 205.884 62.832 205.628 62.96C205.38 63.08 205.164 63.236 204.98 63.428V65.612C204.98 65.948 205.028 66.252 205.124 66.524C205.22 66.796 205.376 67.012 205.592 67.172C205.816 67.332 206.112 67.412 206.48 67.412C206.784 67.412 207.036 67.336 207.236 67.184C207.444 67.024 207.608 66.824 207.728 66.584C207.848 66.336 207.936 66.076 207.992 65.804C208.048 65.524 208.076 65.264 208.076 65.024C208.076 64.672 208.02 64.324 207.908 63.98C207.804 63.636 207.628 63.348 207.38 63.116C207.14 62.884 206.816 62.768 206.408 62.768ZM210.783 69.284H212.271V65.144L210.819 65.564L210.603 64.976L212.631 64.184H213.231V69.284H214.431V69.992H210.783V69.284ZM218.344 68.672H215.596V68.192L218.344 64.196H219.304V67.964H220.204L220 68.672H219.304V69.992H218.344V68.672ZM218.38 65.348L216.616 67.964H218.344L218.38 65.348Z" fill="black"/>
<path d="M257.66 84.916C258.076 84.916 258.44 85.004 258.752 85.18C259.064 85.356 259.32 85.596 259.52 85.9C259.728 86.196 259.884 86.524 259.988 86.884C260.092 87.244 260.144 87.612 260.144 87.988C260.144 88.524 260.048 89.036 259.856 89.524C259.672 90.004 259.384 90.396 258.992 90.7C258.608 91.004 258.116 91.156 257.516 91.156C257.18 91.156 256.856 91.092 256.544 90.964C256.24 90.836 255.98 90.644 255.764 90.388L255.548 91.012H254.948C254.956 90.876 254.964 90.74 254.972 90.604C254.98 90.46 254.984 90.32 254.984 90.184V82.552L254.816 81.856H255.98V85.168C255.98 85.24 255.976 85.312 255.968 85.384C255.968 85.448 255.964 85.516 255.956 85.588C256.212 85.356 256.472 85.188 256.736 85.084C257.008 84.972 257.316 84.916 257.66 84.916ZM257.408 85.768C257.144 85.768 256.884 85.832 256.628 85.96C256.38 86.08 256.164 86.236 255.98 86.428V88.612C255.98 88.948 256.028 89.252 256.124 89.524C256.22 89.796 256.376 90.012 256.592 90.172C256.816 90.332 257.112 90.412 257.48 90.412C257.784 90.412 258.036 90.336 258.236 90.184C258.444 90.024 258.608 89.824 258.728 89.584C258.848 89.336 258.936 89.076 258.992 88.804C259.048 88.524 259.076 88.264 259.076 88.024C259.076 87.672 259.02 87.324 258.908 86.98C258.804 86.636 258.628 86.348 258.38 86.116C258.14 85.884 257.816 85.768 257.408 85.768ZM261.447 92.512C262.423 92.464 263.167 92.296 263.679 92.008C264.199 91.72 264.459 91.36 264.459 90.928C264.459 90.664 264.387 90.472 264.243 90.352C264.099 90.224 263.923 90.144 263.715 90.112C263.507 90.072 263.299 90.052 263.091 90.052C262.979 90.052 262.879 90.056 262.791 90.064C262.711 90.072 262.671 90.076 262.671 90.076L262.575 89.512C262.799 89.464 263.039 89.396 263.295 89.308C263.551 89.22 263.771 89.096 263.955 88.936C264.139 88.776 264.231 88.572 264.231 88.324C264.231 88.14 264.155 88 264.003 87.904C263.851 87.808 263.647 87.76 263.391 87.76C263.143 87.76 262.875 87.824 262.587 87.952C262.299 88.072 262.063 88.208 261.879 88.36L261.495 87.808C261.767 87.592 262.099 87.416 262.491 87.28C262.891 87.136 263.267 87.064 263.619 87.064C263.859 87.064 264.095 87.096 264.327 87.16C264.567 87.224 264.763 87.336 264.915 87.496C265.075 87.648 265.155 87.864 265.155 88.144C265.155 88.376 265.095 88.58 264.975 88.756C264.863 88.924 264.719 89.068 264.543 89.188C264.367 89.3 264.191 89.392 264.015 89.464C264.391 89.504 264.719 89.644 264.999 89.884C265.279 90.116 265.419 90.432 265.419 90.832C265.419 91.048 265.363 91.284 265.251 91.54C265.147 91.796 264.955 92.036 264.675 92.26C264.395 92.492 264.003 92.688 263.499 92.848C262.995 93.008 262.351 93.1 261.567 93.124L261.447 92.512Z" fill="black"/>
<path d="M186.66 84.916C187.076 84.916 187.44 85.004 187.752 85.18C188.064 85.356 188.32 85.596 188.52 85.9C188.728 86.196 188.884 86.524 188.988 86.884C189.092 87.244 189.144 87.612 189.144 87.988C189.144 88.524 189.048 89.036 188.856 89.524C188.672 90.004 188.384 90.396 187.992 90.7C187.608 91.004 187.116 91.156 186.516 91.156C186.18 91.156 185.856 91.092 185.544 90.964C185.24 90.836 184.98 90.644 184.764 90.388L184.548 91.012H183.948C183.956 90.876 183.964 90.74 183.972 90.604C183.98 90.46 183.984 90.32 183.984 90.184V82.552L183.816 81.856H184.98V85.168C184.98 85.24 184.976 85.312 184.968 85.384C184.968 85.448 184.964 85.516 184.956 85.588C185.212 85.356 185.472 85.188 185.736 85.084C186.008 84.972 186.316 84.916 186.66 84.916ZM186.408 85.768C186.144 85.768 185.884 85.832 185.628 85.96C185.38 86.08 185.164 86.236 184.98 86.428V88.612C184.98 88.948 185.028 89.252 185.124 89.524C185.22 89.796 185.376 90.012 185.592 90.172C185.816 90.332 186.112 90.412 186.48 90.412C186.784 90.412 187.036 90.336 187.236 90.184C187.444 90.024 187.608 89.824 187.728 89.584C187.848 89.336 187.936 89.076 187.992 88.804C188.048 88.524 188.076 88.264 188.076 88.024C188.076 87.672 188.02 87.324 187.908 86.98C187.804 86.636 187.628 86.348 187.38 86.116C187.14 85.884 186.816 85.768 186.408 85.768ZM191.011 87.172H194.419V87.532L192.031 93.016H190.927L193.315 88.012H190.783L191.011 87.172Z" fill="black"/>
<path d="M208.66 84.916C209.076 84.916 209.44 85.004 209.752 85.18C210.064 85.356 210.32 85.596 210.52 85.9C210.728 86.196 210.884 86.524 210.988 86.884C211.092 87.244 211.144 87.612 211.144 87.988C211.144 88.524 211.048 89.036 210.856 89.524C210.672 90.004 210.384 90.396 209.992 90.7C209.608 91.004 209.116 91.156 208.516 91.156C208.18 91.156 207.856 91.092 207.544 90.964C207.24 90.836 206.98 90.644 206.764 90.388L206.548 91.012H205.948C205.956 90.876 205.964 90.74 205.972 90.604C205.98 90.46 205.984 90.32 205.984 90.184V82.552L205.816 81.856H206.98V85.168C206.98 85.24 206.976 85.312 206.968 85.384C206.968 85.448 206.964 85.516 206.956 85.588C207.212 85.356 207.472 85.188 207.736 85.084C208.008 84.972 208.316 84.916 208.66 84.916ZM208.408 85.768C208.144 85.768 207.884 85.832 207.628 85.96C207.38 86.08 207.164 86.236 206.98 86.428V88.612C206.98 88.948 207.028 89.252 207.124 89.524C207.22 89.796 207.376 90.012 207.592 90.172C207.816 90.332 208.112 90.412 208.48 90.412C208.784 90.412 209.036 90.336 209.236 90.184C209.444 90.024 209.608 89.824 209.728 89.584C209.848 89.336 209.936 89.076 209.992 88.804C210.048 88.524 210.076 88.264 210.076 88.024C210.076 87.672 210.02 87.324 209.908 86.98C209.804 86.636 209.628 86.348 209.38 86.116C209.14 85.884 208.816 85.768 208.408 85.768ZM212.783 92.284H214.271V88.144L212.819 88.564L212.603 87.976L214.631 87.184H215.231V92.284H216.431V92.992H212.783V92.284ZM218.244 92.284H219.732V88.144L218.28 88.564L218.064 87.976L220.092 87.184H220.692V92.284H221.892V92.992H218.244V92.284Z" fill="black"/>
<path d="M230.66 84.916C231.076 84.916 231.44 85.004 231.752 85.18C232.064 85.356 232.32 85.596 232.52 85.9C232.728 86.196 232.884 86.524 232.988 86.884C233.092 87.244 233.144 87.612 233.144 87.988C233.144 88.524 233.048 89.036 232.856 89.524C232.672 90.004 232.384 90.396 231.992 90.7C231.608 91.004 231.116 91.156 230.516 91.156C230.18 91.156 229.856 91.092 229.544 90.964C229.24 90.836 228.98 90.644 228.764 90.388L228.548 91.012H227.948C227.956 90.876 227.964 90.74 227.972 90.604C227.98 90.46 227.984 90.32 227.984 90.184V82.552L227.816 81.856H228.98V85.168C228.98 85.24 228.976 85.312 228.968 85.384C228.968 85.448 228.964 85.516 228.956 85.588C229.212 85.356 229.472 85.188 229.736 85.084C230.008 84.972 230.316 84.916 230.66 84.916ZM230.408 85.768C230.144 85.768 229.884 85.832 229.628 85.96C229.38 86.08 229.164 86.236 228.98 86.428V88.612C228.98 88.948 229.028 89.252 229.124 89.524C229.22 89.796 229.376 90.012 229.592 90.172C229.816 90.332 230.112 90.412 230.48 90.412C230.784 90.412 231.036 90.336 231.236 90.184C231.444 90.024 231.608 89.824 231.728 89.584C231.848 89.336 231.936 89.076 231.992 88.804C232.048 88.524 232.076 88.264 232.076 88.024C232.076 87.672 232.02 87.324 231.908 86.98C231.804 86.636 231.628 86.348 231.38 86.116C231.14 85.884 230.816 85.768 230.408 85.768ZM234.783 92.284H236.271V88.144L234.819 88.564L234.603 87.976L236.631 87.184H237.231V92.284H238.431V92.992H234.783V92.284ZM240.916 87.172H243.892L243.688 88.012H241.468L241.216 88.888C241.784 89.016 242.228 89.188 242.548 89.404C242.868 89.62 243.096 89.868 243.232 90.148C243.368 90.42 243.436 90.72 243.436 91.048C243.436 91.472 243.32 91.836 243.088 92.14C242.856 92.452 242.54 92.688 242.14 92.848C241.74 93.016 241.292 93.1 240.796 93.1C240.652 93.1 240.504 93.092 240.352 93.076C240.208 93.068 240.06 93.048 239.908 93.016L240.04 92.368C240.168 92.384 240.292 92.396 240.412 92.404C240.532 92.412 240.648 92.416 240.76 92.416C241.288 92.416 241.704 92.308 242.008 92.092C242.32 91.884 242.476 91.548 242.476 91.084C242.476 90.788 242.412 90.536 242.284 90.328C242.156 90.12 241.936 89.944 241.624 89.8C241.32 89.648 240.892 89.52 240.34 89.416L240.916 87.172Z" fill="black"/>
<path d="M77.0705 82.2398C76.9381 82.2788 76.7991 82.203 76.7602 82.0705L76.1253 79.912C76.0863 79.7795 76.1621 79.6405 76.2946 79.6016C76.427 79.5626 76.566 79.6384 76.605 79.7709L77.1693 81.6896L79.088 81.1253C79.2205 81.0863 79.3595 81.1621 79.3984 81.2946C79.4374 81.427 79.3616 81.566 79.2291 81.605L77.0705 82.2398ZM93 82C92.7805 82.1197 92.7805 82.1198 92.7806 82.1198C92.7805 82.1198 92.7805 82.1197 92.7805 82.1197C92.7805 82.1196 92.7804 82.1194 92.7802 82.1191C92.7799 82.1186 92.7794 82.1177 92.7787 82.1164C92.7773 82.1139 92.7751 82.1099 92.7722 82.1046C92.7662 82.094 92.7572 82.0779 92.7451 82.0567C92.7208 82.0143 92.6843 81.9514 92.6359 81.8711C92.5392 81.7104 92.3953 81.4798 92.2077 81.2026C91.8323 80.6479 91.2836 79.909 90.5905 79.1712C89.1959 77.6866 87.2581 76.25 85 76.25V75.75C87.4692 75.75 89.5314 77.3134 90.9549 78.8288C91.6709 79.591 92.2359 80.3521 92.6218 80.9224C92.8149 81.2077 92.9636 81.4459 93.0644 81.6133C93.1147 81.697 93.1531 81.7631 93.1791 81.8085C93.1921 81.8313 93.202 81.8489 93.2088 81.8609C93.2121 81.867 93.2147 81.8716 93.2165 81.8749C93.2174 81.8765 93.2181 81.8778 93.2186 81.8787C93.2188 81.8791 93.219 81.8795 93.2192 81.8798C93.2193 81.8799 93.2193 81.88 93.2194 81.8801C93.2194 81.8802 93.2195 81.8803 93 82ZM85 76.25C82.7419 76.25 80.8041 77.6866 79.4095 79.1712C78.7164 79.909 78.1677 80.6479 77.7923 81.2026C77.6047 81.4798 77.4608 81.7104 77.3641 81.8711C77.3157 81.9514 77.2792 82.0143 77.2549 82.0567C77.2428 82.0779 77.2338 82.094 77.2278 82.1046C77.2249 82.1099 77.2227 82.1139 77.2213 82.1164C77.2206 82.1177 77.2201 82.1186 77.2198 82.1191C77.2196 82.1194 77.2195 82.1196 77.2195 82.1197C77.2195 82.1197 77.2195 82.1198 77.2194 82.1198C77.2195 82.1198 77.2195 82.1197 77 82C76.7805 81.8803 76.7806 81.8802 76.7806 81.8801C76.7807 81.88 76.7807 81.8799 76.7808 81.8798C76.781 81.8795 76.7812 81.8791 76.7814 81.8787C76.7819 81.8778 76.7826 81.8765 76.7835 81.8749C76.7853 81.8716 76.7879 81.867 76.7912 81.8609C76.798 81.8489 76.8079 81.8313 76.8209 81.8085C76.8469 81.7631 76.8853 81.697 76.9356 81.6133C77.0364 81.4459 77.1851 81.2077 77.3782 80.9224C77.7641 80.3521 78.3291 79.591 79.0451 78.8288C80.4686 77.3134 82.5308 75.75 85 75.75V76.25Z" fill="black"/>
<path d="M54.0705 82.2398C53.9381 82.2788 53.7991 82.203 53.7602 82.0705L53.1253 79.912C53.0863 79.7795 53.1621 79.6405 53.2946 79.6016C53.427 79.5626 53.566 79.6384 53.605 79.7709L54.1693 81.6896L56.088 81.1253C56.2205 81.0863 56.3595 81.1621 56.3984 81.2946C56.4374 81.427 56.3616 81.566 56.2291 81.605L54.0705 82.2398ZM70 82C69.7805 82.1197 69.7805 82.1198 69.7806 82.1198C69.7805 82.1198 69.7805 82.1197 69.7805 82.1197C69.7805 82.1196 69.7804 82.1194 69.7802 82.1191C69.7799 82.1186 69.7794 82.1177 69.7787 82.1164C69.7773 82.1139 69.7751 82.1099 69.7722 82.1046C69.7662 82.094 69.7572 82.0779 69.7451 82.0567C69.7208 82.0143 69.6843 81.9514 69.6359 81.8711C69.5392 81.7104 69.3953 81.4798 69.2077 81.2026C68.8323 80.6479 68.2836 79.909 67.5905 79.1712C66.1959 77.6866 64.2581 76.25 62 76.25V75.75C64.4692 75.75 66.5314 77.3134 67.9549 78.8288C68.6709 79.591 69.2359 80.3521 69.6218 80.9224C69.8149 81.2077 69.9636 81.4459 70.0644 81.6133C70.1147 81.697 70.1531 81.7631 70.1791 81.8085C70.1921 81.8313 70.202 81.8489 70.2088 81.8609C70.2121 81.867 70.2147 81.8716 70.2165 81.8749C70.2174 81.8765 70.2181 81.8778 70.2186 81.8787C70.2188 81.8791 70.219 81.8795 70.2192 81.8798C70.2193 81.8799 70.2193 81.88 70.2194 81.8801C70.2194 81.8802 70.2195 81.8803 70 82ZM62 76.25C59.7419 76.25 57.8041 77.6866 56.4095 79.1712C55.7164 79.909 55.1677 80.6479 54.7923 81.2026C54.6047 81.4798 54.4608 81.7104 54.3641 81.8711C54.3157 81.9514 54.2792 82.0143 54.2549 82.0567C54.2428 82.0779 54.2338 82.094 54.2278 82.1046C54.2249 82.1099 54.2227 82.1139 54.2213 82.1164C54.2206 82.1177 54.2201 82.1186 54.2198 82.1191C54.2196 82.1194 54.2195 82.1196 54.2195 82.1197C54.2195 82.1197 54.2195 82.1198 54.2194 82.1198C54.2195 82.1198 54.2195 82.1197 54 82C53.7805 81.8803 53.7806 81.8802 53.7806 81.8801C53.7807 81.88 53.7807 81.8799 53.7808 81.8798C53.781 81.8795 53.7812 81.8791 53.7814 81.8787C53.7819 81.8778 53.7826 81.8765 53.7835 81.8749C53.7853 81.8716 53.7879 81.867 53.7912 81.8609C53.798 81.8489 53.8079 81.8313 53.8209 81.8085C53.8469 81.7631 53.8853 81.697 53.9356 81.6133C54.0364 81.4459 54.1851 81.2077 54.3782 80.9224C54.7641 80.3521 55.3291 79.591 56.0451 78.8288C57.4686 77.3134 59.5308 75.75 62 75.75V76.25Z" fill="black"/>
<path d="M31.0705 82.2398C30.9381 82.2788 30.7991 82.203 30.7602 82.0705L30.1253 79.912C30.0863 79.7795 30.1621 79.6405 30.2946 79.6016C30.427 79.5626 30.566 79.6384 30.605 79.7709L31.1693 81.6896L33.088 81.1253C33.2205 81.0863 33.3595 81.1621 33.3984 81.2946C33.4374 81.427 33.3616 81.566 33.2291 81.605L31.0705 82.2398ZM47 82C46.7805 82.1197 46.7805 82.1198 46.7806 82.1198C46.7805 82.1198 46.7805 82.1197 46.7805 82.1197C46.7805 82.1196 46.7804 82.1194 46.7802 82.1191C46.7799 82.1186 46.7794 82.1177 46.7787 82.1164C46.7773 82.1139 46.7751 82.1099 46.7722 82.1046C46.7662 82.094 46.7572 82.0779 46.7451 82.0567C46.7208 82.0143 46.6843 81.9514 46.6359 81.8711C46.5392 81.7104 46.3953 81.4798 46.2077 81.2026C45.8323 80.6479 45.2836 79.909 44.5905 79.1712C43.1959 77.6866 41.2581 76.25 39 76.25V75.75C41.4692 75.75 43.5314 77.3134 44.9549 78.8288C45.6709 79.591 46.2359 80.3521 46.6218 80.9224C46.8149 81.2077 46.9636 81.4459 47.0644 81.6133C47.1147 81.697 47.1531 81.7631 47.1791 81.8085C47.1921 81.8313 47.202 81.8489 47.2088 81.8609C47.2121 81.867 47.2147 81.8716 47.2165 81.8749C47.2174 81.8765 47.2181 81.8778 47.2186 81.8787C47.2188 81.8791 47.219 81.8795 47.2192 81.8798C47.2193 81.8799 47.2193 81.88 47.2194 81.8801C47.2194 81.8802 47.2195 81.8803 47 82ZM39 76.25C36.7419 76.25 34.8041 77.6866 33.4095 79.1712C32.7164 79.909 32.1677 80.6479 31.7923 81.2026C31.6047 81.4798 31.4608 81.7104 31.3641 81.8711C31.3157 81.9514 31.2792 82.0143 31.2549 82.0567C31.2428 82.0779 31.2338 82.094 31.2278 82.1046C31.2249 82.1099 31.2227 82.1139 31.2213 82.1164C31.2206 82.1177 31.2201 82.1186 31.2198 82.1191C31.2196 82.1194 31.2195 82.1196 31.2195 82.1197C31.2195 82.1197 31.2195 82.1198 31.2194 82.1198C31.2195 82.1198 31.2195 82.1197 31 82C30.7805 81.8803 30.7806 81.8802 30.7806 81.8801C30.7807 81.88 30.7807 81.8799 30.7808 81.8798C30.781 81.8795 30.7812 81.8791 30.7814 81.8787C30.7819 81.8778 30.7826 81.8765 30.7835 81.8749C30.7853 81.8716 30.7879 81.867 30.7912 81.8609C30.798 81.8489 30.8079 81.8313 30.8209 81.8085C30.8469 81.7631 30.8853 81.697 30.9356 81.6133C31.0364 81.4459 31.1851 81.2077 31.3782 80.9224C31.7641 80.3521 32.3291 79.591 33.0451 78.8288C34.4686 77.3134 36.5308 75.75 39 75.75V76.25Z" fill="black"/>
<path d="M88.1598 95.8077C88.266 95.896 88.2805 96.0536 88.1923 96.1598L86.7541 97.8902C86.6659 97.9964 86.5083 98.0109 86.4021 97.9227C86.2959 97.8344 86.2814 97.6768 86.3696 97.5706L87.6479 96.0325L86.1098 94.7541C86.0036 94.6659 85.9891 94.5083 86.0773 94.4021C86.1656 94.2959 86.3232 94.2814 86.4294 94.3696L88.1598 95.8077ZM35 96C35.023 95.7511 35.023 95.7511 35.0231 95.7511C35.0231 95.7511 35.0232 95.7511 35.0234 95.7511C35.0237 95.7511 35.0242 95.7512 35.0248 95.7512C35.0261 95.7513 35.028 95.7515 35.0306 95.7518C35.0358 95.7522 35.0436 95.7529 35.054 95.7539C35.0748 95.7558 35.1061 95.7585 35.1475 95.7622C35.2304 95.7695 35.3541 95.7802 35.5172 95.7938C35.8435 95.8211 36.3274 95.8601 36.9571 95.9069C38.2165 96.0006 40.0593 96.1255 42.3912 96.2504C47.0552 96.5002 53.6757 96.75 61.5 96.75V97.25C53.6652 97.25 47.0357 96.9998 42.3645 96.7496C40.0288 96.6245 38.1826 96.4994 36.92 96.4056C36.2887 96.3586 35.8033 96.3195 35.4756 96.2921C35.3117 96.2784 35.1872 96.2676 35.1037 96.2603C35.0619 96.2566 35.0303 96.2538 35.0091 96.2519C34.9985 96.2509 34.9906 96.2502 34.9852 96.2497C34.9825 96.2494 34.9805 96.2493 34.9791 96.2491C34.9785 96.2491 34.9779 96.249 34.9776 96.249C34.9774 96.249 34.9773 96.249 34.9772 96.249C34.9771 96.2489 34.977 96.2489 35 96ZM61.5 96.75C69.3243 96.75 75.9448 96.5002 80.6088 96.2504C82.9407 96.1255 84.7835 96.0006 86.0429 95.9069C86.6726 95.8601 87.1565 95.8211 87.4828 95.7938C87.6459 95.7802 87.7696 95.7695 87.8525 95.7622C87.8939 95.7585 87.9252 95.7558 87.946 95.7539C87.9564 95.7529 87.9642 95.7522 87.9694 95.7518C87.972 95.7515 87.9739 95.7513 87.9752 95.7512C87.9758 95.7512 87.9763 95.7511 87.9766 95.7511C87.9768 95.7511 87.9769 95.7511 87.9769 95.7511C87.977 95.7511 87.977 95.7511 88 96C88.023 96.2489 88.0229 96.2489 88.0228 96.249C88.0227 96.249 88.0226 96.249 88.0224 96.249C88.0221 96.249 88.0215 96.2491 88.0209 96.2491C88.0195 96.2493 88.0175 96.2494 88.0148 96.2497C88.0094 96.2502 88.0015 96.2509 87.9909 96.2519C87.9697 96.2538 87.9381 96.2566 87.8963 96.2603C87.8128 96.2676 87.6883 96.2784 87.5244 96.2921C87.1967 96.3195 86.7113 96.3586 86.08 96.4056C84.8174 96.4994 82.9712 96.6245 80.6355 96.7496C75.9643 96.9998 69.3348 97.25 61.5 97.25V96.75Z" fill="black"/>
<path d="M73.038 59.2471C73.1745 59.2261 73.2681 59.0985 73.2471 58.962L72.905 56.7381C72.884 56.6017 72.7563 56.5081 72.6199 56.5291C72.4834 56.5501 72.3898 56.6777 72.4108 56.8142L72.7149 58.7909L70.7381 59.095C70.6017 59.116 70.5081 59.2437 70.5291 59.3801C70.5501 59.5166 70.6777 59.6102 70.8142 59.5892L73.038 59.2471ZM33 59C33.1478 59.2016 33.1478 59.2016 33.1478 59.2016C33.1478 59.2016 33.1479 59.2016 33.1479 59.2015C33.1481 59.2014 33.1484 59.2012 33.1488 59.2009C33.1496 59.2003 33.1509 59.1994 33.1527 59.1981C33.1563 59.1954 33.1619 59.1914 33.1695 59.186C33.1845 59.1752 33.2075 59.1589 33.2381 59.1375C33.2993 59.0946 33.3913 59.0313 33.513 58.9504C33.7564 58.7886 34.1185 58.5566 34.5903 58.2777C35.534 57.72 36.9162 56.9751 38.6661 56.23C42.1666 54.7395 47.1329 53.25 53 53.25V52.75C47.0489 52.75 42.0152 54.2605 38.4702 55.77C36.6974 56.5249 35.2956 57.28 34.3359 57.8473C33.856 58.1309 33.4865 58.3677 33.2362 58.534C33.1111 58.6172 33.0158 58.6827 32.9515 58.7278C32.9193 58.7503 32.8948 58.7677 32.8782 58.7796C32.8699 58.7855 32.8636 58.7901 32.8592 58.7933C32.8571 58.7948 32.8554 58.796 32.8542 58.7969C32.8536 58.7973 32.8531 58.7977 32.8528 58.7979C32.8526 58.7981 32.8525 58.7982 32.8524 58.7982C32.8523 58.7983 32.8522 58.7984 33 59ZM53 53.25C58.8671 53.25 63.8334 54.7395 67.3339 56.23C69.0838 56.9751 70.466 57.72 71.4097 58.2777C71.8815 58.5566 72.2436 58.7886 72.487 58.9504C72.6087 59.0313 72.7007 59.0946 72.7619 59.1375C72.7925 59.1589 72.8155 59.1752 72.8305 59.186C72.8381 59.1914 72.8437 59.1954 72.8473 59.1981C72.8491 59.1994 72.8504 59.2003 72.8512 59.2009C72.8516 59.2012 72.8519 59.2014 72.8521 59.2015C72.8521 59.2016 72.8522 59.2016 72.8522 59.2016C72.8522 59.2016 72.8522 59.2016 73 59C73.1478 58.7984 73.1477 58.7983 73.1476 58.7982C73.1475 58.7982 73.1474 58.7981 73.1472 58.7979C73.1469 58.7977 73.1464 58.7973 73.1458 58.7969C73.1446 58.796 73.1429 58.7948 73.1408 58.7933C73.1364 58.7901 73.1301 58.7855 73.1218 58.7796C73.1052 58.7677 73.0807 58.7503 73.0485 58.7278C72.9842 58.6827 72.8889 58.6172 72.7638 58.534C72.5135 58.3677 72.144 58.1309 71.6641 57.8473C70.7044 57.28 69.3026 56.5249 67.5298 55.77C63.9848 54.2605 58.9511 52.75 53 52.75V53.25Z" fill="black"/>
<path d="M53.8987 71.7714C53.7725 71.8274 53.7155 71.975 53.7714 72.1013L54.6828 74.1584C54.7388 74.2847 54.8864 74.3416 55.0127 74.2857C55.1389 74.2298 55.1959 74.0821 55.14 73.9559L54.3298 72.1273L56.1584 71.3172C56.2847 71.2612 56.3416 71.1136 56.2857 70.9873C56.2298 70.8611 56.0821 70.8041 55.9559 70.86L53.8987 71.7714ZM92 72C91.91 71.7668 91.91 71.7668 91.91 71.7668C91.91 71.7668 91.9099 71.7668 91.9098 71.7668C91.9097 71.7669 91.9094 71.767 91.909 71.7671C91.9082 71.7675 91.9069 71.7679 91.9052 71.7686C91.9017 71.7699 91.8964 71.772 91.8891 71.7747C91.8747 71.7801 91.8528 71.7883 91.8236 71.7991C91.7652 71.8206 91.6774 71.8524 91.5615 71.8929C91.3297 71.974 90.985 72.0903 90.5358 72.23C89.6375 72.5095 88.3216 72.8827 86.6556 73.2561C83.3231 74.0029 78.5917 74.75 73 74.75V75.25C78.6355 75.25 83.4042 74.4971 86.7649 73.7439C88.4454 73.3673 89.7744 72.9905 90.6843 72.7075C91.1393 72.5659 91.4896 72.4478 91.7266 72.3649C91.8452 72.3234 91.9354 72.2907 91.9964 72.2683C92.0268 72.2571 92.0499 72.2484 92.0656 72.2425C92.0734 72.2396 92.0794 72.2373 92.0835 72.2357C92.0855 72.235 92.0871 72.2344 92.0882 72.2339C92.0887 72.2337 92.0891 72.2336 92.0894 72.2335C92.0896 72.2334 92.0897 72.2333 92.0898 72.2333C92.0899 72.2333 92.09 72.2332 92 72ZM73 74.75C67.4083 74.75 62.6769 74.0029 59.3444 73.2561C57.6784 72.8827 56.3625 72.5095 55.4642 72.23C55.015 72.0903 54.6703 71.974 54.4385 71.8929C54.3226 71.8524 54.2348 71.8206 54.1764 71.7991C54.1472 71.7883 54.1253 71.7801 54.1109 71.7747C54.1036 71.772 54.0983 71.7699 54.0948 71.7686C54.0931 71.7679 54.0918 71.7675 54.091 71.7671C54.0906 71.767 54.0903 71.7669 54.0902 71.7668C54.0901 71.7668 54.09 71.7668 54.09 71.7668C54.09 71.7668 54.09 71.7668 54 72C53.91 72.2332 53.9101 72.2333 53.9102 72.2333C53.9103 72.2333 53.9104 72.2334 53.9106 72.2335C53.9109 72.2336 53.9113 72.2337 53.9118 72.2339C53.9129 72.2344 53.9145 72.235 53.9165 72.2357C53.9206 72.2373 53.9266 72.2396 53.9344 72.2425C53.9501 72.2484 53.9732 72.2571 54.0036 72.2683C54.0646 72.2907 54.1548 72.3234 54.2734 72.3649C54.5104 72.4478 54.8607 72.5659 55.3157 72.7075C56.2256 72.9905 57.5546 73.3673 59.2351 73.7439C62.5958 74.4971 67.3645 75.25 73 75.25V74.75Z" fill="black"/>
<path d="M94.038 59.2471C94.1745 59.2261 94.2681 59.0985 94.2471 58.962L93.905 56.7381C93.884 56.6017 93.7563 56.5081 93.6199 56.5291C93.4834 56.5501 93.3898 56.6777 93.4108 56.8142L93.7149 58.7909L91.7381 59.095C91.6017 59.116 91.5081 59.2437 91.5291 59.3801C91.5501 59.5166 91.6777 59.6102 91.8142 59.5892L94.038 59.2471ZM54 59C54.1478 59.2016 54.1478 59.2016 54.1478 59.2016C54.1478 59.2016 54.1479 59.2016 54.1479 59.2015C54.1481 59.2014 54.1484 59.2012 54.1488 59.2009C54.1496 59.2003 54.1509 59.1994 54.1527 59.1981C54.1563 59.1954 54.1619 59.1914 54.1695 59.186C54.1845 59.1752 54.2075 59.1589 54.2381 59.1375C54.2993 59.0946 54.3913 59.0313 54.513 58.9504C54.7564 58.7886 55.1185 58.5566 55.5903 58.2777C56.534 57.72 57.9162 56.9751 59.6661 56.23C63.1666 54.7395 68.1329 53.25 74 53.25V52.75C68.0489 52.75 63.0152 54.2605 59.4702 55.77C57.6974 56.5249 56.2956 57.28 55.3359 57.8473C54.856 58.1309 54.4865 58.3677 54.2362 58.534C54.1111 58.6172 54.0158 58.6827 53.9515 58.7278C53.9193 58.7503 53.8948 58.7677 53.8782 58.7796C53.8699 58.7855 53.8636 58.7901 53.8592 58.7933C53.8571 58.7948 53.8554 58.796 53.8542 58.7969C53.8536 58.7973 53.8531 58.7977 53.8528 58.7979C53.8526 58.7981 53.8525 58.7982 53.8524 58.7982C53.8523 58.7983 53.8522 58.7984 54 59ZM74 53.25C79.8671 53.25 84.8334 54.7395 88.3339 56.23C90.0838 56.9751 91.466 57.72 92.4097 58.2777C92.8815 58.5566 93.2436 58.7886 93.487 58.9504C93.6087 59.0313 93.7007 59.0946 93.7619 59.1375C93.7925 59.1589 93.8155 59.1752 93.8305 59.186C93.8381 59.1914 93.8437 59.1954 93.8473 59.1981C93.8491 59.1994 93.8504 59.2003 93.8512 59.2009C93.8516 59.2012 93.8519 59.2014 93.8521 59.2015C93.8521 59.2016 93.8522 59.2016 93.8522 59.2016C93.8522 59.2016 93.8522 59.2016 94 59C94.1478 58.7984 94.1477 58.7983 94.1476 58.7982C94.1475 58.7982 94.1474 58.7981 94.1472 58.7979C94.1469 58.7977 94.1464 58.7973 94.1458 58.7969C94.1446 58.796 94.1429 58.7948 94.1408 58.7933C94.1364 58.7901 94.1301 58.7855 94.1218 58.7796C94.1052 58.7677 94.0807 58.7503 94.0485 58.7278C93.9842 58.6827 93.8889 58.6172 93.7638 58.534C93.5135 58.3677 93.144 58.1309 92.6641 57.8473C91.7044 57.28 90.3026 56.5249 88.5298 55.77C84.9848 54.2605 79.9511 52.75 74 52.75V53.25Z" fill="black"/>
<path d="M30.8987 71.7714C30.7725 71.8274 30.7155 71.975 30.7714 72.1013L31.6828 74.1584C31.7388 74.2847 31.8864 74.3416 32.0127 74.2857C32.1389 74.2298 32.1959 74.0821 32.14 73.9559L31.3298 72.1273L33.1584 71.3172C33.2847 71.2612 33.3416 71.1136 33.2857 70.9873C33.2298 70.8611 33.0821 70.8041 32.9559 70.86L30.8987 71.7714ZM69 72C68.91 71.7668 68.91 71.7668 68.91 71.7668C68.91 71.7668 68.9099 71.7668 68.9098 71.7668C68.9097 71.7669 68.9094 71.767 68.909 71.7671C68.9082 71.7675 68.9069 71.7679 68.9052 71.7686C68.9017 71.7699 68.8964 71.772 68.8891 71.7747C68.8747 71.7801 68.8528 71.7883 68.8236 71.7991C68.7652 71.8206 68.6774 71.8524 68.5615 71.8929C68.3297 71.974 67.985 72.0903 67.5358 72.23C66.6375 72.5095 65.3216 72.8827 63.6556 73.2561C60.3231 74.0029 55.5917 74.75 50 74.75V75.25C55.6355 75.25 60.4042 74.4971 63.7649 73.7439C65.4454 73.3673 66.7744 72.9905 67.6843 72.7075C68.1393 72.5659 68.4896 72.4478 68.7266 72.3649C68.8452 72.3234 68.9354 72.2907 68.9964 72.2683C69.0268 72.2571 69.0499 72.2484 69.0656 72.2425C69.0734 72.2396 69.0794 72.2373 69.0835 72.2357C69.0855 72.235 69.0871 72.2344 69.0882 72.2339C69.0887 72.2337 69.0891 72.2336 69.0894 72.2335C69.0896 72.2334 69.0897 72.2333 69.0898 72.2333C69.0899 72.2333 69.09 72.2332 69 72ZM50 74.75C44.4083 74.75 39.6769 74.0029 36.3444 73.2561C34.6784 72.8827 33.3625 72.5095 32.4642 72.23C32.015 72.0903 31.6703 71.974 31.4385 71.8929C31.3226 71.8524 31.2348 71.8206 31.1764 71.7991C31.1472 71.7883 31.1253 71.7801 31.1109 71.7747C31.1036 71.772 31.0983 71.7699 31.0948 71.7686C31.0931 71.7679 31.0918 71.7675 31.091 71.7671C31.0906 71.767 31.0903 71.7669 31.0902 71.7668C31.0901 71.7668 31.09 71.7668 31.09 71.7668C31.09 71.7668 31.09 71.7668 31 72C30.91 72.2332 30.9101 72.2333 30.9102 72.2333C30.9103 72.2333 30.9104 72.2334 30.9106 72.2335C30.9109 72.2336 30.9113 72.2337 30.9118 72.2339C30.9129 72.2344 30.9145 72.235 30.9165 72.2357C30.9206 72.2373 30.9266 72.2396 30.9344 72.2425C30.9501 72.2484 30.9732 72.2571 31.0036 72.2683C31.0646 72.2907 31.1548 72.3234 31.2734 72.3649C31.5104 72.4478 31.8607 72.5659 32.3157 72.7075C33.2256 72.9905 34.5546 73.3673 36.2351 73.7439C39.5958 74.4971 44.3645 75.25 50 75.25V74.75Z" fill="black"/>
<path d="M45.9295 34.2398C46.0619 34.2788 46.2009 34.203 46.2398 34.0705L46.8747 31.912C46.9137 31.7795 46.8379 31.6405 46.7054 31.6016C46.573 31.5626 46.434 31.6384 46.395 31.7709L45.8307 33.6896L43.912 33.1253C43.7795 33.0863 43.6405 33.1621 43.6016 33.2946C43.5626 33.427 43.6384 33.566 43.7709 33.605L45.9295 34.2398ZM30 34C30.2195 34.1197 30.2195 34.1198 30.2194 34.1198C30.2195 34.1198 30.2195 34.1197 30.2195 34.1197C30.2195 34.1196 30.2196 34.1194 30.2198 34.1191C30.2201 34.1186 30.2206 34.1177 30.2213 34.1164C30.2227 34.1139 30.2249 34.1099 30.2278 34.1046C30.2338 34.094 30.2428 34.0779 30.2549 34.0567C30.2792 34.0143 30.3157 33.9514 30.3641 33.8711C30.4608 33.7104 30.6047 33.4798 30.7923 33.2026C31.1677 32.6479 31.7164 31.909 32.4095 31.1712C33.8041 29.6866 35.7419 28.25 38 28.25V27.75C35.5308 27.75 33.4686 29.3134 32.0451 30.8288C31.3291 31.591 30.7641 32.3521 30.3782 32.9224C30.1851 33.2077 30.0364 33.4459 29.9356 33.6133C29.8853 33.697 29.8469 33.7631 29.8209 33.8085C29.8079 33.8313 29.798 33.8489 29.7912 33.8609C29.7879 33.867 29.7853 33.8716 29.7835 33.8749C29.7826 33.8765 29.7819 33.8778 29.7814 33.8787C29.7812 33.8791 29.781 33.8795 29.7808 33.8798C29.7807 33.8799 29.7807 33.88 29.7806 33.8801C29.7806 33.8802 29.7805 33.8803 30 34ZM38 28.25C40.2581 28.25 42.1959 29.6866 43.5905 31.1712C44.2836 31.909 44.8323 32.6479 45.2077 33.2026C45.3953 33.4798 45.5392 33.7104 45.6359 33.8711C45.6843 33.9514 45.7208 34.0143 45.7451 34.0567C45.7572 34.0779 45.7662 34.094 45.7722 34.1046C45.7751 34.1099 45.7773 34.1139 45.7787 34.1164C45.7794 34.1177 45.7799 34.1186 45.7802 34.1191C45.7804 34.1194 45.7805 34.1196 45.7805 34.1197C45.7805 34.1197 45.7805 34.1198 45.7806 34.1198C45.7805 34.1198 45.7805 34.1197 46 34C46.2195 33.8803 46.2194 33.8802 46.2194 33.8801C46.2193 33.88 46.2193 33.8799 46.2192 33.8798C46.219 33.8795 46.2188 33.8791 46.2186 33.8787C46.2181 33.8778 46.2174 33.8765 46.2165 33.8749C46.2147 33.8716 46.2121 33.867 46.2088 33.8609C46.202 33.8489 46.1921 33.8313 46.1791 33.8085C46.1531 33.7631 46.1147 33.697 46.0644 33.6133C45.9636 33.4459 45.8149 33.2077 45.6218 32.9224C45.2359 32.3521 44.6709 31.591 43.9549 30.8288C42.5314 29.3134 40.4692 27.75 38 27.75V28.25Z" fill="black"/>
<path d="M68.9295 34.2398C69.0619 34.2788 69.2009 34.203 69.2398 34.0705L69.8747 31.912C69.9137 31.7795 69.8379 31.6405 69.7054 31.6016C69.573 31.5626 69.434 31.6384 69.395 31.7709L68.8307 33.6896L66.912 33.1253C66.7795 33.0863 66.6405 33.1621 66.6016 33.2946C66.5626 33.427 66.6384 33.566 66.7709 33.605L68.9295 34.2398ZM53 34C53.2195 34.1197 53.2195 34.1198 53.2194 34.1198C53.2195 34.1198 53.2195 34.1197 53.2195 34.1197C53.2195 34.1196 53.2196 34.1194 53.2198 34.1191C53.2201 34.1186 53.2206 34.1177 53.2213 34.1164C53.2227 34.1139 53.2249 34.1099 53.2278 34.1046C53.2338 34.094 53.2428 34.0779 53.2549 34.0567C53.2792 34.0143 53.3157 33.9514 53.3641 33.8711C53.4608 33.7104 53.6047 33.4798 53.7923 33.2026C54.1677 32.6479 54.7164 31.909 55.4095 31.1712C56.8041 29.6866 58.7419 28.25 61 28.25V27.75C58.5308 27.75 56.4686 29.3134 55.0451 30.8288C54.3291 31.591 53.7641 32.3521 53.3782 32.9224C53.1851 33.2077 53.0364 33.4459 52.9356 33.6133C52.8853 33.697 52.8469 33.7631 52.8209 33.8085C52.8079 33.8313 52.798 33.8489 52.7912 33.8609C52.7879 33.867 52.7853 33.8716 52.7835 33.8749C52.7826 33.8765 52.7819 33.8778 52.7814 33.8787C52.7812 33.8791 52.781 33.8795 52.7808 33.8798C52.7807 33.8799 52.7807 33.88 52.7806 33.8801C52.7806 33.8802 52.7805 33.8803 53 34ZM61 28.25C63.2581 28.25 65.1959 29.6866 66.5905 31.1712C67.2836 31.909 67.8323 32.6479 68.2077 33.2026C68.3953 33.4798 68.5392 33.7104 68.6359 33.8711C68.6843 33.9514 68.7208 34.0143 68.7451 34.0567C68.7572 34.0779 68.7662 34.094 68.7722 34.1046C68.7751 34.1099 68.7773 34.1139 68.7787 34.1164C68.7794 34.1177 68.7799 34.1186 68.7802 34.1191C68.7804 34.1194 68.7805 34.1196 68.7805 34.1197C68.7805 34.1197 68.7805 34.1198 68.7806 34.1198C68.7805 34.1198 68.7805 34.1197 69 34C69.2195 33.8803 69.2194 33.8802 69.2194 33.8801C69.2193 33.88 69.2193 33.8799 69.2192 33.8798C69.219 33.8795 69.2188 33.8791 69.2186 33.8787C69.2181 33.8778 69.2174 33.8765 69.2165 33.8749C69.2147 33.8716 69.2121 33.867 69.2088 33.8609C69.202 33.8489 69.1921 33.8313 69.1791 33.8085C69.1531 33.7631 69.1147 33.697 69.0644 33.6133C68.9636 33.4459 68.8149 33.2077 68.6218 32.9224C68.2359 32.3521 67.6709 31.591 66.9549 30.8288C65.5314 29.3134 63.4692 27.75 61 27.75V28.25Z" fill="black"/>
<path d="M91.9295 34.2398C92.0619 34.2788 92.2009 34.203 92.2398 34.0705L92.8747 31.912C92.9137 31.7795 92.8379 31.6405 92.7054 31.6016C92.573 31.5626 92.434 31.6384 92.395 31.7709L91.8307 33.6896L89.912 33.1253C89.7795 33.0863 89.6405 33.1621 89.6016 33.2946C89.5626 33.427 89.6384 33.566 89.7709 33.605L91.9295 34.2398ZM76 34C76.2195 34.1197 76.2195 34.1198 76.2194 34.1198C76.2195 34.1198 76.2195 34.1197 76.2195 34.1197C76.2195 34.1196 76.2196 34.1194 76.2198 34.1191C76.2201 34.1186 76.2206 34.1177 76.2213 34.1164C76.2227 34.1139 76.2249 34.1099 76.2278 34.1046C76.2338 34.094 76.2428 34.0779 76.2549 34.0567C76.2792 34.0143 76.3157 33.9514 76.3641 33.8711C76.4608 33.7104 76.6047 33.4798 76.7923 33.2026C77.1677 32.6479 77.7164 31.909 78.4095 31.1712C79.8041 29.6866 81.7419 28.25 84 28.25V27.75C81.5308 27.75 79.4686 29.3134 78.0451 30.8288C77.3291 31.591 76.7641 32.3521 76.3782 32.9224C76.1851 33.2077 76.0364 33.4459 75.9356 33.6133C75.8853 33.697 75.8469 33.7631 75.8209 33.8085C75.8079 33.8313 75.798 33.8489 75.7912 33.8609C75.7879 33.867 75.7853 33.8716 75.7835 33.8749C75.7826 33.8765 75.7819 33.8778 75.7814 33.8787C75.7812 33.8791 75.781 33.8795 75.7808 33.8798C75.7807 33.8799 75.7807 33.88 75.7806 33.8801C75.7806 33.8802 75.7805 33.8803 76 34ZM84 28.25C86.2581 28.25 88.1959 29.6866 89.5905 31.1712C90.2836 31.909 90.8323 32.6479 91.2077 33.2026C91.3953 33.4798 91.5392 33.7104 91.6359 33.8711C91.6843 33.9514 91.7208 34.0143 91.7451 34.0567C91.7572 34.0779 91.7662 34.094 91.7722 34.1046C91.7751 34.1099 91.7773 34.1139 91.7787 34.1164C91.7794 34.1177 91.7799 34.1186 91.7802 34.1191C91.7804 34.1194 91.7805 34.1196 91.7805 34.1197C91.7805 34.1197 91.7805 34.1198 91.7806 34.1198C91.7805 34.1198 91.7805 34.1197 92 34C92.2195 33.8803 92.2194 33.8802 92.2194 33.8801C92.2193 33.88 92.2193 33.8799 92.2192 33.8798C92.219 33.8795 92.2188 33.8791 92.2186 33.8787C92.2181 33.8778 92.2174 33.8765 92.2165 33.8749C92.2147 33.8716 92.2121 33.867 92.2088 33.8609C92.202 33.8489 92.1921 33.8313 92.1791 33.8085C92.1531 33.7631 92.1147 33.697 92.0644 33.6133C91.9636 33.4459 91.8149 33.2077 91.6218 32.9224C91.2359 32.3521 90.6709 31.591 89.9549 30.8288C88.5314 29.3134 86.4692 27.75 84 27.75V28.25Z" fill="black"/>
<path d="M34.8402 47.8077C34.734 47.896 34.7195 48.0536 34.8077 48.1598L36.2459 49.8902C36.3341 49.9964 36.4917 50.0109 36.5979 49.9227C36.7041 49.8344 36.7186 49.6768 36.6304 49.5706L35.3521 48.0325L36.8902 46.7541C36.9964 46.6659 37.0109 46.5083 36.9227 46.4021C36.8344 46.2959 36.6768 46.2814 36.5706 46.3696L34.8402 47.8077ZM88 48C87.977 47.7511 87.977 47.7511 87.9769 47.7511C87.9769 47.7511 87.9768 47.7511 87.9766 47.7511C87.9763 47.7511 87.9758 47.7512 87.9752 47.7512C87.9739 47.7513 87.972 47.7515 87.9694 47.7518C87.9642 47.7522 87.9564 47.7529 87.946 47.7539C87.9252 47.7558 87.8939 47.7585 87.8525 47.7622C87.7696 47.7695 87.6459 47.7802 87.4828 47.7938C87.1565 47.8211 86.6726 47.8601 86.0429 47.9069C84.7835 48.0006 82.9407 48.1255 80.6088 48.2504C75.9448 48.5002 69.3243 48.75 61.5 48.75V49.25C69.3348 49.25 75.9643 48.9998 80.6355 48.7496C82.9712 48.6245 84.8174 48.4994 86.08 48.4056C86.7113 48.3586 87.1967 48.3195 87.5244 48.2921C87.6883 48.2784 87.8128 48.2676 87.8963 48.2603C87.9381 48.2566 87.9697 48.2538 87.9909 48.2519C88.0015 48.2509 88.0094 48.2502 88.0148 48.2497C88.0175 48.2494 88.0195 48.2493 88.0209 48.2491C88.0215 48.2491 88.0221 48.249 88.0224 48.249C88.0226 48.249 88.0227 48.249 88.0228 48.249C88.0229 48.2489 88.023 48.2489 88 48ZM61.5 48.75C53.6757 48.75 47.0552 48.5002 42.3912 48.2504C40.0593 48.1255 38.2165 48.0006 36.9571 47.9069C36.3274 47.8601 35.8435 47.8211 35.5172 47.7938C35.3541 47.7802 35.2304 47.7695 35.1475 47.7622C35.1061 47.7585 35.0748 47.7558 35.054 47.7539C35.0436 47.7529 35.0358 47.7522 35.0306 47.7518C35.028 47.7515 35.0261 47.7513 35.0248 47.7512C35.0242 47.7512 35.0237 47.7511 35.0234 47.7511C35.0232 47.7511 35.0231 47.7511 35.0231 47.7511C35.023 47.7511 35.023 47.7511 35 48C34.977 48.2489 34.9771 48.2489 34.9772 48.249C34.9773 48.249 34.9774 48.249 34.9776 48.249C34.9779 48.249 34.9785 48.2491 34.9791 48.2491C34.9805 48.2493 34.9825 48.2494 34.9852 48.2497C34.9906 48.2502 34.9985 48.2509 35.0091 48.2519C35.0303 48.2538 35.0619 48.2566 35.1037 48.2603C35.1872 48.2676 35.3117 48.2784 35.4756 48.2921C35.8033 48.3195 36.2887 48.3586 36.92 48.4056C38.1826 48.4994 40.0288 48.6245 42.3645 48.7496C47.0357 48.9998 53.6652 49.25 61.5 49.25V48.75Z" fill="black"/>
<path d="M154.354 54.3536C154.549 54.1583 154.549 53.8417 154.354 53.6464L151.172 50.4645C150.976 50.2692 150.66 50.2692 150.464 50.4645C150.269 50.6597 150.269 50.9763 150.464 51.1716L153.293 54L150.464 56.8284C150.269 57.0237 150.269 57.3403 150.464 57.5355C150.66 57.7308 150.976 57.7308 151.172 57.5355L154.354 54.3536ZM129 54.5H154V53.5H129V54.5Z" fill="black"/>
</svg>
